AcariSans-Medium.ufo
<glyph name="numbersign" format="2">
  <advance width="1375"/>
  <unicode hex="0023"/>
  <outline>
    <contour>
      <point x="832" y="0" type="line"/>
      <point x="679" y="0" type="line"/>
      <point x="771" y="436" type="line"/>
      <point x="483" y="436" type="line"/>
      <point x="393" y="0" type="line"/>
      <point x="240" y="0" type="line"/>
      <point x="330" y="427" type="line"/>
      <point x="93" y="427" type="line"/>
      <point x="93" y="567" type="line"/>
      <point x="360" y="567" type="line"/>
      <point x="421" y="867" type="line"/>
      <point x="175" y="867" type="line"/>
      <point x="175" y="1010" type="line"/>
      <point x="450" y="1010" type="line"/>
      <point x="545" y="1434" type="line"/>
      <point x="699" y="1434" type="line"/>
      <point x="603" y="997" type="line"/>
      <point x="891" y="997" type="line"/>
      <point x="983" y="1434" type="line"/>
      <point x="1137" y="1434" type="line"/>
      <point x="1044" y="1007" type="line"/>
      <point x="1281" y="1007" type="line"/>
      <point x="1281" y="867" type="line"/>
      <point x="1015" y="867" type="line"/>
      <point x="954" y="567" type="line"/>
      <point x="1199" y="567" type="line"/>
      <point x="1199" y="425" type="line"/>
      <point x="924" y="425" type="line"/>
    </contour>
    <contour>
      <point x="801" y="567" type="line"/>
      <point x="861" y="867" type="line"/>
      <point x="574" y="867" type="line"/>
      <point x="513" y="567" type="line"/>
    </contour>
  </outline>
</glyph>
<glyph name="parenleft" format="2">
  <advance width="566"/>
  <unicode hex="0028"/>
  <outline>
    <contour>
      <point x="523" y="-75" type="qcurve"/>
      <point x="357" y="-75" type="line"/>
      <point x="242" y="56"/>
      <point x="115" y="507"/>
      <point x="115" y="706" type="qcurve" smooth="yes"/>
      <point x="115" y="934"/>
      <point x="234" y="1343"/>
      <point x="354" y="1485" type="qcurve"/>
      <point x="525" y="1485" type="line"/>
      <point x="270" y="1158"/>
      <point x="270" y="702" type="qcurve" smooth="yes"/>
      <point x="270" y="480"/>
      <point x="389" y="100"/>
    </contour>
  </outline>
</glyph>
<glyph name="plus" format="2">
  <advance width="1259"/>
  <unicode hex="002B"/>
  <outline>
    <contour>
      <point x="703" y="106" type="line"/>
      <point x="556" y="106" type="line"/>
      <point x="556" y="552" type="line"/>
      <point x="100" y="552" type="line"/>
      <point x="100" y="699" type="line"/>
      <point x="556" y="699" type="line"/>
      <point x="556" y="1143" type="line"/>
      <point x="703" y="1143" type="line"/>
      <point x="703" y="699" type="line"/>
      <point x="1160" y="699" type="line"/>
      <point x="1160" y="552" type="line"/>
      <point x="703" y="552" type="line"/>
    </contour>
  </outline>
</glyph>
<glyph name="hyphen" format="2">
  <advance width="850"/>
  <unicode hex="002D"/>
  <outline>
    <contour>
      <point x="698" y="545" type="line"/>
      <point x="152" y="545" type="line"/>
      <point x="152" y="692" type="line"/>
      <point x="698" y="692" type="line"/>
    </contour>
  </outline>
</glyph>
<glyph name="zero" format="2">
  <advance width="1200"/>
  <unicode hex="0030"/>
  <outline>
    <contour>
      <point x="610" y="-20" type="qcurve" smooth="yes"/>
      <point x="417" y="-20"/>
      <point x="171" y="203"/>
      <point x="62" y="535"/>
      <point x="62" y="707" type="qcurve" smooth="yes"/>
      <point x="62" y="880"/>
      <point x="168" y="1213"/>
      <point x="407" y="1436"/>
      <point x="596" y="1436" type="qcurve" smooth="yes"/>
      <point x="771" y="1436"/>
      <point x="895" y="1332" type="qcurve"/>
      <point x="1023" y="1219"/>
      <point x="1142" y="883"/>
      <point x="1142" y="704" type="qcurve" smooth="yes"/>
      <point x="1142" y="527"/>
      <point x="1026" y="194"/>
      <point x="901" y="83" type="qcurve"/>
      <point x="781" y="-20"/>
    </contour>
    <contour>
      <point x="604" y="169" type="qcurve" smooth="yes"/>
      <point x="717" y="169"/>
      <point x="791" y="252" type="qcurve"/>
      <point x="867" y="341"/>
      <point x="931" y="588"/>
      <point x="931" y="709" type="qcurve" smooth="yes"/>
      <point x="931" y="833"/>
      <point x="866" y="1077"/>
      <point x="788" y="1163" type="qcurve"/>
      <point x="712" y="1242"/>
      <point x="596" y="1242" type="qcurve" smooth="yes"/>
      <point x="480" y="1242"/>
      <point x="405" y="1162" type="qcurve"/>
      <point x="327" y="1076"/>
      <point x="262" y="831"/>
      <point x="262" y="707" type="qcurve" smooth="yes"/>
      <point x="262" y="582"/>
      <point x="328" y="337"/>
      <point x="408" y="250" type="qcurve" smooth="yes"/>
      <point x="484" y="169"/>
    </contour>
  </outline>
</glyph>
<glyph name="one" format="2">
  <advance width="1200"/>
  <unicode hex="0031"/>
  <outline>
    <contour>
      <point x="785" y="0" type="line"/>
      <point x="584" y="0" type="line"/>
      <point x="584" y="1060" type="line"/>
      <point x="209" y="1060" type="line"/>
      <point x="209" y="1217" type="line"/>
      <point x="432" y="1217" type="line" smooth="yes"/>
      <point x="514" y="1217"/>
      <point x="596" y="1308"/>
      <point x="596" y="1380" type="qcurve" smooth="yes"/>
      <point x="596" y="1413" type="line"/>
      <point x="785" y="1413" type="line"/>
    </contour>
  </outline>
</glyph>
<glyph name="two" format="2">
  <advance width="1200"/>
  <unicode hex="0032"/>
  <outline>
    <contour>
      <point x="1100" y="0" type="line"/>
      <point x="80" y="0" type="line"/>
      <point x="80" y="169" type="line"/>
      <point x="374" y="358"/>
      <point x="576" y="557" type="qcurve"/>
      <point x="702" y="686"/>
      <point x="824" y="903"/>
      <point x="824" y="1012" type="qcurve" smooth="yes"/>
      <point x="824" y="1117"/>
      <point x="711" y="1250"/>
      <point x="601" y="1250" type="qcurve" smooth="yes"/>
      <point x="473" y="1250"/>
      <point x="341" y="1070"/>
      <point x="334" y="926" type="qcurve"/>
      <point x="135" y="942" type="line"/>
      <point x="135" y="1078"/>
      <point x="244" y="1301"/>
      <point x="451" y="1432"/>
      <point x="597" y="1432" type="qcurve" smooth="yes"/>
      <point x="732" y="1432"/>
      <point x="926" y="1323"/>
      <point x="1031" y="1137"/>
      <point x="1031" y="1022" type="qcurve" smooth="yes"/>
      <point x="1031" y="870"/>
      <point x="858" y="583"/>
      <point x="701" y="428" type="qcurve" smooth="yes"/>
      <point x="531" y="262"/>
      <point x="391" y="179" type="qcurve"/>
      <point x="1100" y="179" type="line"/>
    </contour>
  </outline>
</glyph>
<glyph name="five" format="2">
  <advance width="1200"/>
  <unicode hex="0035"/>
  <outline>
    <contour>
      <point x="595" y="-20" type="qcurve" smooth="yes"/>
      <point x="469" y="-20"/>
      <point x="268" y="91"/>
      <point x="136" y="276"/>
      <point x="111" y="390" type="qcurve"/>
      <point x="296" y="446" type="line"/>
      <point x="320" y="325"/>
      <point x="462" y="158"/>
      <point x="593" y="158" type="qcurve" smooth="yes"/>
      <point x="685" y="158"/>
      <point x="813" y="250"/>
      <point x="881" y="393"/>
      <point x="881" y="472" type="qcurve" smooth="yes"/>
      <point x="881" y="548"/>
      <point x="819" y="684"/>
      <point x="694" y="770"/>
      <point x="600" y="770" type="qcurve" smooth="yes"/>
      <point x="524" y="770"/>
      <point x="381" y="696"/>
      <point x="335" y="625" type="qcurve"/>
      <point x="155" y="686" type="line"/>
      <point x="285" y="1413" type="line"/>
      <point x="1025" y="1413" type="line"/>
      <point x="1025" y="1230" type="line"/>
      <point x="444" y="1230" type="line"/>
      <point x="379" y="864" type="line"/>
      <point x="483" y="946"/>
      <point x="628" y="946" type="qcurve" smooth="yes"/>
      <point x="766" y="946"/>
      <point x="973" y="812"/>
      <point x="1088" y="595"/>
      <point x="1088" y="471" type="qcurve" smooth="yes"/>
      <point x="1088" y="336"/>
      <point x="955" y="114"/>
      <point x="731" y="-20"/>
    </contour>
  </outline>
</glyph>
<glyph name="eight" format="2">
  <advance width="1200"/>
  <unicode hex="0038"/>
  <outline>
    <contour>
      <point x="600" y="-20" type="qcurve" smooth="yes"/>
      <point x="504" y="-20"/>
      <point x="326" y="31"/>
      <point x="186" y="134"/>
      <point x="103" y="291"/>
      <point x="103" y="397" type="qcurve" smooth="yes"/>
      <point x="103" y="527"/>
      <point x="226" y="711"/>
      <point x="332" y="763" type="qcurve"/>
      <point x="253" y="817"/>
      <point x="175" y="972"/>
      <point x="175" y="1060" type="qcurve" smooth="yes"/>
      <point x="175" y="1180"/>
      <point x="294" y="1347"/>
      <point x="489" y="1434"/>
      <point x="601" y="1434" type="qcurve" smooth="yes"/>
      <point x="710" y="1434"/>
      <point x="905" y="1348"/>
      <point x="968" y="1260" type="qcurve"/>
      <point x="1026" y="1175"/>
      <point x="1026" y="1061" type="qcurve" smooth="yes"/>
      <point x="1026" y="965"/>
      <point x="943" y="813"/>
      <point x="871" y="763" type="qcurve"/>
      <point x="981" y="708"/>
      <point x="1097" y="520"/>
      <point x="1097" y="398" type="qcurve" smooth="yes"/>
      <point x="1097" y="259"/>
      <point x="959" y="73"/>
      <point x="733" y="-20"/>
    </contour>
    <contour>
      <point x="605" y="833" type="qcurve" smooth="yes"/>
      <point x="668" y="833"/>
      <point x="772" y="882"/>
      <point x="834" y="978"/>
      <point x="834" y="1047" type="qcurve" smooth="yes"/>
      <point x="834" y="1118"/>
      <point x="771" y="1214"/>
      <point x="667" y="1264"/>
      <point x="604" y="1264" type="qcurve" smooth="yes"/>
      <point x="546" y="1264"/>
      <point x="441" y="1218"/>
      <point x="374" y="1126"/>
      <point x="374" y="1056" type="qcurve" smooth="yes"/>
      <point x="374" y="951"/>
      <point x="504" y="833"/>
    </contour>
    <contour>
      <point x="599" y="150" type="qcurve" smooth="yes"/>
      <point x="675" y="150"/>
      <point x="811" y="205"/>
      <point x="896" y="320"/>
      <point x="896" y="409" type="qcurve" smooth="yes"/>
      <point x="896" y="493"/>
      <point x="815" y="609"/>
      <point x="680" y="669"/>
      <point x="599" y="669" type="qcurve" smooth="yes"/>
      <point x="517" y="669"/>
      <point x="382" y="610"/>
      <point x="301" y="495"/>
      <point x="301" y="410" type="qcurve" smooth="yes"/>
      <point x="301" y="324"/>
      <point x="383" y="209"/>
      <point x="519" y="150"/>
    </contour>
  </outline>
</glyph>
<glyph name="semicolon" format="2">
  <advance width="656"/>
  <unicode hex="003B"/>
  <outline>
    <contour>
      <point x="457" y="728" type="line"/>
      <point x="228" y="728" type="line"/>
      <point x="228" y="954" type="line"/>
      <point x="457" y="954" type="line"/>
    </contour>
    <contour>
      <point x="243" y="-315" type="line"/>
      <point x="118" y="-315" type="line"/>
      <point x="257" y="264" type="line"/>
      <point x="492" y="264" type="line"/>
    </contour>
  </outline>
</glyph>
<glyph name="greater" format="2">
  <advance width="1223"/>
  <unicode hex="003E"/>
  <outline>
    <contour>
      <point x="209" y="161" type="line"/>
      <point x="124" y="307" type="line"/>
      <point x="830" y="674" type="line"/>
      <point x="124" y="1040" type="line"/>
      <point x="209" y="1186" type="line"/>
      <point x="1148" y="674" type="line"/>
    </contour>
  </outline>
</glyph>
<glyph name="at" format="2">
  <advance width="2042"/>
  <unicode hex="0040"/>
  <outline>
    <contour>
      <point x="1013" y="-348" type="qcurve" smooth="yes"/>
      <point x="769" y="-348"/>
      <point x="364" y="-137"/>
      <point x="126" y="256"/>
      <point x="126" y="518" type="qcurve" smooth="yes"/>
      <point x="126" y="773"/>
      <point x="354" y="1191"/>
      <point x="766" y="1432"/>
      <point x="1031" y="1432" type="qcurve" smooth="yes"/>
      <point x="1294" y="1432"/>
      <point x="1699" y="1196"/>
      <point x="1920" y="795"/>
      <point x="1920" y="553" type="qcurve" smooth="yes"/>
      <point x="1920" y="393"/>
      <point x="1819" y="111"/>
      <point x="1614" y="-64"/>
      <point x="1465" y="-64" type="qcurve" smooth="yes"/>
      <point x="1333" y="-64"/>
      <point x="1261" y="5" type="qcurve" smooth="yes"/>
      <point x="1192" y="71"/>
      <point x="1192" y="183" type="qcurve" smooth="yes"/>
      <point x="1192" y="192" type="line"/>
      <point x="1132" y="126"/>
      <point x="972" y="55"/>
      <point x="886" y="55" type="qcurve" smooth="yes"/>
      <point x="781" y="55"/>
      <point x="635" y="161"/>
      <point x="562" y="337"/>
      <point x="562" y="443" type="qcurve" smooth="yes"/>
      <point x="562" y="581"/>
      <point x="678" y="863"/>
      <point x="894" y="1049"/>
      <point x="1035" y="1049" type="qcurve" smooth="yes"/>
      <point x="1131" y="1049"/>
      <point x="1272" y="959"/>
      <point x="1300" y="885" type="qcurve"/>
      <point x="1323" y="1000" type="line"/>
      <point x="1495" y="1000" type="line"/>
      <point x="1485" y="944"/>
      <point x="1453" y="810" type="qcurve" smooth="yes"/>
      <point x="1395" y="574"/>
      <point x="1346" y="327"/>
      <point x="1346" y="240" type="qcurve" smooth="yes"/>
      <point x="1346" y="168"/>
      <point x="1395" y="111"/>
      <point x="1458" y="111" type="qcurve" smooth="yes"/>
      <point x="1563" y="111"/>
      <point x="1696" y="243"/>
      <point x="1755" y="447"/>
      <point x="1755" y="556" type="qcurve" smooth="yes"/>
      <point x="1755" y="753"/>
      <point x="1577" y="1079"/>
      <point x="1249" y="1270"/>
      <point x="1033" y="1270" type="qcurve" smooth="yes"/>
      <point x="813" y="1270"/>
      <point x="476" y="1072"/>
      <point x="292" y="731"/>
      <point x="292" y="522" type="qcurve" smooth="yes"/>
      <point x="292" y="306"/>
      <point x="486" y="-11"/>
      <point x="816" y="-177"/>
      <point x="1015" y="-177" type="qcurve" smooth="yes"/>
      <point x="1134" y="-177"/>
      <point x="1261" y="-138" type="qcurve"/>
      <point x="1320" y="-296" type="line"/>
      <point x="1247" y="-321"/>
      <point x="1099" y="-348"/>
    </contour>
    <contour>
      <point x="903" y="225" type="qcurve" smooth="yes"/>
      <point x="1008" y="225"/>
      <point x="1085" y="294" type="qcurve"/>
      <point x="1165" y="368"/>
      <point x="1242" y="573"/>
      <point x="1242" y="670" type="qcurve" smooth="yes"/>
      <point x="1242" y="878"/>
      <point x="1062" y="878" type="qcurve" smooth="yes"/>
      <point x="956" y="878"/>
      <point x="879" y="810" type="qcurve"/>
      <point x="798" y="736"/>
      <point x="721" y="533"/>
      <point x="721" y="437" type="qcurve" smooth="yes"/>
      <point x="721" y="341"/>
      <point x="807" y="225"/>
    </contour>
  </outline>
</glyph>
<glyph name="B" format="2">
  <advance width="1257"/>
  <unicode hex="0042"/>
  <outline>
    <contour>
      <point x="703" y="0" type="qcurve" smooth="yes"/>
      <point x="198" y="0" type="line"/>
      <point x="198" y="1413" type="line"/>
      <point x="635" y="1413" type="line" smooth="yes"/>
      <point x="722" y="1413"/>
      <point x="884" y="1373"/>
      <point x="1012" y="1286"/>
      <point x="1088" y="1148"/>
      <point x="1088" y="1049" type="qcurve" smooth="yes"/>
      <point x="1088" y="941"/>
      <point x="991" y="792"/>
      <point x="917" y="751" type="qcurve"/>
      <point x="986" y="722"/>
      <point x="1094" y="620"/>
      <point x="1157" y="479"/>
      <point x="1157" y="392" type="qcurve" smooth="yes"/>
      <point x="1157" y="259"/>
      <point x="1030" y="85"/>
      <point x="823" y="0"/>
    </contour>
    <contour>
      <point x="647" y="816" type="line" smooth="yes"/>
      <point x="755" y="816"/>
      <point x="891" y="919"/>
      <point x="891" y="1031" type="qcurve" smooth="yes"/>
      <point x="891" y="1136"/>
      <point x="752" y="1230"/>
      <point x="638" y="1230" type="qcurve" smooth="yes"/>
      <point x="400" y="1230" type="line"/>
      <point x="400" y="816" type="line"/>
    </contour>
    <contour>
      <point x="707" y="191" type="line" smooth="yes"/>
      <point x="821" y="191"/>
      <point x="957" y="295"/>
      <point x="957" y="410" type="qcurve" smooth="yes"/>
      <point x="957" y="488"/>
      <point x="890" y="589"/>
      <point x="775" y="638"/>
      <point x="704" y="638" type="qcurve" smooth="yes"/>
      <point x="400" y="638" type="line"/>
      <point x="400" y="191" type="line"/>
    </contour>
  </outline>
</glyph>
<glyph name="D" format="2">
  <advance width="1407"/>
  <unicode hex="0044"/>
  <outline>
    <contour>
      <point x="579" y="0" type="qcurve" smooth="yes"/>
      <point x="198" y="0" type="line"/>
      <point x="198" y="1413" type="line"/>
      <point x="581" y="1413" type="line" smooth="yes"/>
      <point x="935" y="1413"/>
      <point x="1304" y="1041"/>
      <point x="1304" y="696" type="qcurve" smooth="yes"/>
      <point x="1304" y="358"/>
      <point x="922" y="0"/>
    </contour>
    <contour>
      <point x="555" y="186" type="line" smooth="yes"/>
      <point x="809" y="186"/>
      <point x="1101" y="440"/>
      <point x="1101" y="707" type="qcurve" smooth="yes"/>
      <point x="1101" y="891"/>
      <point x="982" y="1121"/>
      <point x="749" y="1228"/>
      <point x="577" y="1228" type="qcurve" smooth="yes"/>
      <point x="401" y="1228" type="line"/>
      <point x="401" y="186" type="line"/>
    </contour>
  </outline>
</glyph>
<glyph name="G" format="2">
  <advance width="1521"/>
  <unicode hex="0047"/>
  <outline>
    <contour>
      <point x="762" y="-20" type="qcurve" smooth="yes"/>
      <point x="546" y="-20"/>
      <point x="398" y="78" type="qcurve" smooth="yes"/>
      <point x="295" y="146"/>
      <point x="165" y="342"/>
      <point x="105" y="579"/>
      <point x="105" y="707" type="qcurve" smooth="yes"/>
      <point x="105" y="899"/>
      <point x="244" y="1232"/>
      <point x="398" y="1338" type="qcurve"/>
      <point x="545" y="1436"/>
      <point x="760" y="1436" type="qcurve" smooth="yes"/>
      <point x="956" y="1436"/>
      <point x="1266" y="1244"/>
      <point x="1354" y="1046" type="qcurve"/>
      <point x="1172" y="968" type="line"/>
      <point x="1112" y="1115"/>
      <point x="895" y="1253"/>
      <point x="758" y="1253" type="qcurve" smooth="yes"/>
      <point x="642" y="1253"/>
      <point x="471" y="1169"/>
      <point x="360" y="1021"/>
      <point x="306" y="827"/>
      <point x="306" y="717" type="qcurve" smooth="yes"/>
      <point x="306" y="604"/>
      <point x="358" y="404"/>
      <point x="468" y="252"/>
      <point x="641" y="165"/>
      <point x="762" y="165" type="qcurve" smooth="yes"/>
      <point x="869" y="165"/>
      <point x="1057" y="259"/>
      <point x="1119" y="356" type="qcurve" smooth="yes"/>
      <point x="1177" y="449"/>
      <point x="1185" y="576" type="qcurve"/>
      <point x="862" y="576" type="line"/>
      <point x="862" y="738" type="line"/>
      <point x="1379" y="738" type="line"/>
      <point x="1379" y="0" type="line"/>
      <point x="1215" y="0" type="line"/>
      <point x="1204" y="230" type="line"/>
      <point x="1171" y="161"/>
      <point x="1047" y="48"/>
      <point x="871" y="-20"/>
    </contour>
  </outline>
</glyph>
<glyph name="K" format="2">
  <advance width="1470"/>
  <unicode hex="004B"/>
  <outline>
    <contour>
      <point x="1429" y="0" type="line"/>
      <point x="1180" y="0" type="line"/>
      <point x="719" y="708" type="line"/>
      <point x="401" y="379" type="line"/>
      <point x="401" y="0" type="line"/>
      <point x="198" y="0" type="line"/>
      <point x="198" y="1413" type="line"/>
      <point x="401" y="1413" type="line"/>
      <point x="401" y="627" type="line"/>
      <point x="1139" y="1413" type="line"/>
      <point x="1407" y="1413" type="line"/>
      <point x="858" y="846" type="line"/>
    </contour>
  </outline>
</glyph>
<glyph name="O" format="2">
  <advance width="1521"/>
  <unicode hex="004F"/>
  <outline>
    <contour>
      <point x="760" y="-20" type="qcurve" smooth="yes"/>
      <point x="545" y="-20"/>
      <point x="398" y="78" type="qcurve"/>
      <point x="244" y="183"/>
      <point x="104" y="516"/>
      <point x="104" y="707" type="qcurve" smooth="yes"/>
      <point x="104" y="898"/>
      <point x="244" y="1231"/>
      <point x="398" y="1336" type="qcurve"/>
      <point x="545" y="1434"/>
      <point x="760" y="1434" type="qcurve" smooth="yes"/>
      <point x="975" y="1434"/>
      <point x="1123" y="1336" type="qcurve"/>
      <point x="1277" y="1231"/>
      <point x="1417" y="898"/>
      <point x="1417" y="707" type="qcurve" smooth="yes"/>
      <point x="1417" y="516"/>
      <point x="1277" y="183"/>
      <point x="1123" y="78" type="qcurve"/>
      <point x="975" y="-20"/>
    </contour>
    <contour>
      <point x="760" y="163" type="qcurve" smooth="yes"/>
      <point x="915" y="163"/>
      <point x="1016" y="237" type="qcurve"/>
      <point x="1120" y="315"/>
      <point x="1210" y="562"/>
      <point x="1210" y="707" type="qcurve" smooth="yes"/>
      <point x="1210" y="817"/>
      <point x="1159" y="1014"/>
      <point x="1051" y="1164"/>
      <point x="880" y="1250"/>
      <point x="760" y="1250" type="qcurve" smooth="yes"/>
      <point x="606" y="1250"/>
      <point x="506" y="1176" type="qcurve"/>
      <point x="402" y="1097"/>
      <point x="312" y="851"/>
      <point x="312" y="707" type="qcurve" smooth="yes"/>
      <point x="312" y="596"/>
      <point x="363" y="399"/>
      <point x="471" y="249"/>
      <point x="641" y="163"/>
    </contour>
  </outline>
</glyph>
<glyph name="P" format="2">
  <advance width="1157"/>
  <unicode hex="0050"/>
  <outline>
    <contour>
      <point x="400" y="0" type="line"/>
      <point x="198" y="0" type="line"/>
      <point x="198" y="1413" type="line"/>
      <point x="616" y="1413" type="line" smooth="yes"/>
      <point x="750" y="1413"/>
      <point x="965" y="1322"/>
      <point x="1090" y="1142"/>
      <point x="1090" y="1010" type="qcurve" smooth="yes"/>
      <point x="1090" y="881"/>
      <point x="969" y="705"/>
      <point x="755" y="614"/>
      <point x="616" y="614" type="qcurve" smooth="yes"/>
      <point x="400" y="614" type="line"/>
    </contour>
    <contour>
      <point x="616" y="800" type="line" smooth="yes"/>
      <point x="889" y="800"/>
      <point x="889" y="1010" type="qcurve" smooth="yes"/>
      <point x="889" y="1109"/>
      <point x="756" y="1227"/>
      <point x="616" y="1227" type="qcurve" smooth="yes"/>
      <point x="400" y="1227" type="line"/>
      <point x="400" y="800" type="line"/>
    </contour>
  </outline>
</glyph>
<glyph name="R" format="2">
  <advance width="1242"/>
  <unicode hex="0052"/>
  <outline>
    <contour>
      <point x="1190" y="-2" type="line"/>
      <point x="955" y="-2" type="line"/>
      <point x="604" y="619" type="line"/>
      <point x="401" y="619" type="line"/>
      <point x="401" y="-2" type="line"/>
      <point x="198" y="-2" type="line"/>
      <point x="198" y="1412" type="line"/>
      <point x="627" y="1412" type="line" smooth="yes"/>
      <point x="750" y="1412"/>
      <point x="963" y="1319"/>
      <point x="1030" y="1224" type="qcurve"/>
      <point x="1092" y="1132"/>
      <point x="1092" y="1009" type="qcurve" smooth="yes"/>
      <point x="1092" y="869"/>
      <point x="932" y="677"/>
      <point x="802" y="642" type="qcurve"/>
    </contour>
    <contour>
      <point x="651" y="794" type="line"/>
      <point x="758" y="799"/>
      <point x="891" y="906"/>
      <point x="891" y="1007" type="qcurve" smooth="yes"/>
      <point x="891" y="1114"/>
      <point x="744" y="1231"/>
      <point x="629" y="1231" type="qcurve" smooth="yes"/>
      <point x="403" y="1231" type="line"/>
      <point x="403" y="794" type="line"/>
    </contour>
  </outline>
</glyph>
<glyph name="U" format="2">
  <advance width="1366"/>
  <unicode hex="0055"/>
  <outline>
    <contour>
      <point x="682" y="-20" type="qcurve" smooth="yes"/>
      <point x="504" y="-20"/>
      <point x="277" y="122"/>
      <point x="168" y="372"/>
      <point x="168" y="534" type="qcurve" smooth="yes"/>
      <point x="168" y="1413" type="line"/>
      <point x="371" y="1413" type="line"/>
      <point x="371" y="571" type="line" smooth="yes"/>
      <point x="371" y="379"/>
      <point x="510" y="175"/>
      <point x="682" y="175" type="qcurve" smooth="yes"/>
      <point x="854" y="175"/>
      <point x="995" y="379"/>
      <point x="995" y="571" type="qcurve" smooth="yes"/>
      <point x="995" y="1413" type="line"/>
      <point x="1199" y="1413" type="line"/>
      <point x="1199" y="544" type="line" smooth="yes"/>
      <point x="1199" y="379"/>
      <point x="1091" y="125"/>
      <point x="862" y="-20"/>
    </contour>
  </outline>
</glyph>
<glyph name="V" format="2">
  <advance width="1333"/>
  <unicode hex="0056"/>
  <outline>
    <contour>
      <point x="749" y="0" type="line"/>
      <point x="587" y="0" type="line"/>
      <point x="39" y="1413" type="line"/>
      <point x="259" y="1413" type="line"/>
      <point x="669" y="305" type="line"/>
      <point x="1077" y="1413" type="line"/>
      <point x="1294" y="1413" type="line"/>
    </contour>
  </outline>
</glyph>
<glyph name="X" format="2">
  <advance width="1299"/>
  <unicode hex="0058"/>
  <outline>
    <contour>
      <point x="1249" y="0" type="line"/>
      <point x="1009" y="0" type="line"/>
      <point x="648" y="557" type="line"/>
      <point x="292" y="0" type="line"/>
      <point x="50" y="0" type="line"/>
      <point x="520" y="707" type="line"/>
      <point x="52" y="1413" type="line"/>
      <point x="294" y="1413" type="line"/>
      <point x="650" y="847" type="line"/>
      <point x="1007" y="1413" type="line"/>
      <point x="1247" y="1413" type="line"/>
      <point x="781" y="707" type="line"/>
    </contour>
  </outline>
</glyph>
<glyph name="Y" format="2">
  <advance width="1317"/>
  <unicode hex="0059"/>
  <outline>
    <contour>
      <point x="763" y="0" type="line"/>
      <point x="556" y="0" type="line"/>
      <point x="556" y="552" type="line"/>
      <point x="27" y="1413" type="line"/>
      <point x="269" y="1413" type="line"/>
      <point x="657" y="752" type="line"/>
      <point x="1047" y="1413" type="line"/>
      <point x="1290" y="1413" type="line"/>
      <point x="763" y="552" type="line"/>
    </contour>
  </outline>
</glyph>
<glyph name="bracketleft" format="2">
  <advance width="637"/>
  <unicode hex="005B"/>
  <outline>
    <contour>
      <point x="586" y="-126" type="line"/>
      <point x="191" y="-126" type="line"/>
      <point x="191" y="1536" type="line"/>
      <point x="586" y="1536" type="line"/>
      <point x="586" y="1412" type="line"/>
      <point x="350" y="1412" type="line"/>
      <point x="350" y="0" type="line"/>
      <point x="586" y="0" type="line"/>
    </contour>
  </outline>
</glyph>
<glyph name="underscore" format="2">
  <advance width="1241"/>
  <unicode hex="005F"/>
  <outline>
    <contour>
      <point x="1027" y="-147" type="line"/>
      <point x="214" y="-147" type="line"/>
      <point x="214" y="0" type="line"/>
      <point x="1027" y="0" type="line"/>
    </contour>
  </outline>
</glyph>
<glyph name="b" format="2">
  <advance width="1150"/>
  <unicode hex="0062"/>
  <outline>
    <contour>
      <point x="655" y="-20" type="qcurve" smooth="yes"/>
      <point x="562" y="-20"/>
      <point x="409" y="50"/>
      <point x="357" y="120" type="qcurve"/>
      <point x="357" y="0" type="line"/>
      <point x="160" y="0" type="line"/>
      <point x="160" y="1412" type="line"/>
      <point x="357" y="1412" type="line"/>
      <point x="357" y="880" type="line"/>
      <point x="462" y="1021"/>
      <point x="653" y="1021" type="qcurve" smooth="yes"/>
      <point x="788" y="1021"/>
      <point x="974" y="879"/>
      <point x="1069" y="642"/>
      <point x="1069" y="500" type="qcurve" smooth="yes"/>
      <point x="1069" y="364"/>
      <point x="976" y="125"/>
      <point x="879" y="50" type="qcurve"/>
      <point x="785" y="-20"/>
    </contour>
    <contour>
      <point x="606" y="155" type="qcurve" smooth="yes"/>
      <point x="698" y="155"/>
      <point x="817" y="249"/>
      <point x="875" y="405"/>
      <point x="875" y="500" type="qcurve" smooth="yes"/>
      <point x="875" y="592"/>
      <point x="818" y="750"/>
      <point x="699" y="847"/>
      <point x="606" y="847" type="qcurve" smooth="yes"/>
      <point x="515" y="847"/>
      <point x="397" y="753"/>
      <point x="339" y="596"/>
      <point x="339" y="500" type="qcurve" smooth="yes"/>
      <point x="339" y="408"/>
      <point x="394" y="251"/>
      <point x="512" y="155"/>
    </contour>
  </outline>
</glyph>
<glyph name="i" format="2">
  <advance width="509"/>
  <unicode hex="0069"/>
  <outline>
    <contour>
      <point x="361" y="1205" type="line"/>
      <point x="150" y="1205" type="line"/>
      <point x="150" y="1413" type="line"/>
      <point x="361" y="1413" type="line"/>
    </contour>
    <contour>
      <point x="351" y="0" type="line"/>
      <point x="158" y="0" type="line"/>
      <point x="158" y="999" type="line"/>
      <point x="351" y="999" type="line"/>
    </contour>
  </outline>
</glyph>
<glyph name="k" format="2">
  <advance width="1081"/>
  <unicode hex="006B"/>
  <outline>
    <contour>
      <point x="1069" y="0" type="line"/>
      <point x="839" y="0" type="line"/>
      <point x="540" y="499" type="line"/>
      <point x="354" y="293" type="line"/>
      <point x="354" y="0" type="line"/>
      <point x="160" y="0" type="line"/>
      <point x="160" y="1413" type="line"/>
      <point x="354" y="1413" type="line"/>
      <point x="354" y="518" type="line"/>
      <point x="767" y="999" type="line"/>
      <point x="1015" y="999" type="line"/>
      <point x="666" y="623" type="line"/>
    </contour>
  </outline>
</glyph>
<glyph name="m" format="2">
  <advance width="1719"/>
  <unicode hex="006D"/>
  <outline>
    <contour>
      <point x="1588" y="0" type="line"/>
      <point x="1391" y="0" type="line"/>
      <point x="1391" y="582" type="line" smooth="yes"/>
      <point x="1391" y="695"/>
      <point x="1306" y="844"/>
      <point x="1202" y="844" type="qcurve" smooth="yes"/>
      <point x="1127" y="844"/>
      <point x="1023" y="764"/>
      <point x="969" y="634"/>
      <point x="969" y="560" type="qcurve" smooth="yes"/>
      <point x="969" y="0" type="line"/>
      <point x="773" y="0" type="line"/>
      <point x="773" y="586" type="line" smooth="yes"/>
      <point x="773" y="844"/>
      <point x="586" y="844" type="qcurve" smooth="yes"/>
      <point x="511" y="844"/>
      <point x="407" y="764"/>
      <point x="353" y="634"/>
      <point x="353" y="560" type="qcurve" smooth="yes"/>
      <point x="353" y="0" type="line"/>
      <point x="158" y="0" type="line"/>
      <point x="158" y="999" type="line"/>
      <point x="353" y="999" type="line"/>
      <point x="353" y="859" type="line"/>
      <point x="394" y="939"/>
      <point x="536" y="1018"/>
      <point x="613" y="1018" type="qcurve" smooth="yes"/>
      <point x="712" y="1018"/>
      <point x="866" y="930"/>
      <point x="910" y="838" type="qcurve"/>
      <point x="965" y="928"/>
      <point x="1133" y="1016"/>
      <point x="1229" y="1016" type="qcurve" smooth="yes"/>
      <point x="1353" y="1016"/>
      <point x="1512" y="903"/>
      <point x="1588" y="716"/>
      <point x="1588" y="604" type="qcurve" smooth="yes"/>
    </contour>
  </outline>
</glyph>
<glyph name="o" format="2">
  <advance width="1123"/>
  <unicode hex="006F"/>
  <outline>
    <contour>
      <point x="561" y="-20" type="qcurve" smooth="yes"/>
      <point x="410" y="-20"/>
      <point x="189" y="123"/>
      <point x="69" y="357"/>
      <point x="69" y="496" type="qcurve" smooth="yes"/>
      <point x="69" y="632"/>
      <point x="188" y="869"/>
      <point x="305" y="943" type="qcurve"/>
      <point x="417" y="1012"/>
      <point x="561" y="1012" type="qcurve" smooth="yes"/>
      <point x="711" y="1012"/>
      <point x="932" y="869"/>
      <point x="1053" y="634"/>
      <point x="1053" y="496" type="qcurve" smooth="yes"/>
      <point x="1053" y="353"/>
      <point x="929" y="119"/>
      <point x="707" y="-20"/>
    </contour>
    <contour>
      <point x="561" y="149" type="qcurve" smooth="yes"/>
      <point x="660" y="149"/>
      <point x="785" y="242"/>
      <point x="845" y="399"/>
      <point x="845" y="496" type="qcurve" smooth="yes"/>
      <point x="845" y="591"/>
      <point x="787" y="749"/>
      <point x="661" y="843"/>
      <point x="561" y="843" type="qcurve" smooth="yes"/>
      <point x="462" y="843"/>
      <point x="336" y="749"/>
      <point x="277" y="591"/>
      <point x="277" y="496" type="qcurve" smooth="yes"/>
      <point x="277" y="404"/>
      <point x="334" y="245"/>
      <point x="459" y="149"/>
    </contour>
  </outline>
</glyph>
<glyph name="p" format="2">
  <advance width="1149"/>
  <unicode hex="0070"/>
  <outline>
    <contour>
      <point x="355" y="-438" type="line"/>
      <point x="160" y="-438" type="line"/>
      <point x="160" y="999" type="line"/>
      <point x="355" y="999" type="line"/>
      <point x="355" y="880" type="line"/>
      <point x="403" y="945"/>
      <point x="553" y="1020"/>
      <point x="651" y="1020" type="qcurve" smooth="yes"/>
      <point x="786" y="1020"/>
      <point x="972" y="878"/>
      <point x="1068" y="642"/>
      <point x="1068" y="500" type="qcurve" smooth="yes"/>
      <point x="1068" y="364"/>
      <point x="975" y="125"/>
      <point x="878" y="50" type="qcurve"/>
      <point x="784" y="-20"/>
      <point x="654" y="-20" type="qcurve" smooth="yes"/>
      <point x="464" y="-20"/>
      <point x="355" y="120" type="qcurve"/>
    </contour>
    <contour>
      <point x="603" y="155" type="qcurve" smooth="yes"/>
      <point x="695" y="155"/>
      <point x="814" y="248"/>
      <point x="872" y="404"/>
      <point x="872" y="500" type="qcurve" smooth="yes"/>
      <point x="872" y="591"/>
      <point x="817" y="750"/>
      <point x="698" y="847"/>
      <point x="603" y="847" type="qcurve" smooth="yes"/>
      <point x="513" y="847"/>
      <point x="395" y="753"/>
      <point x="337" y="596"/>
      <point x="337" y="500" type="qcurve" smooth="yes"/>
      <point x="337" y="407"/>
      <point x="393" y="250"/>
      <point x="510" y="155"/>
    </contour>
  </outline>
</glyph>
<glyph name="q" format="2">
  <advance width="1149"/>
  <unicode hex="0071"/>
  <outline>
    <contour>
      <point x="989" y="-438" type="line"/>
      <point x="794" y="-438" type="line"/>
      <point x="794" y="120" type="line"/>
      <point x="688" y="-20"/>
      <point x="496" y="-20" type="qcurve" smooth="yes"/>
      <point x="362" y="-20"/>
      <point x="177" y="123"/>
      <point x="81" y="360"/>
      <point x="81" y="500" type="qcurve" smooth="yes"/>
      <point x="81" y="636"/>
      <point x="175" y="875"/>
      <point x="273" y="950" type="qcurve" smooth="yes"/>
      <point x="366" y="1020"/>
      <point x="495" y="1020" type="qcurve" smooth="yes"/>
      <point x="683" y="1020"/>
      <point x="794" y="880" type="qcurve"/>
      <point x="794" y="999" type="line"/>
      <point x="989" y="999" type="line"/>
    </contour>
    <contour>
      <point x="545" y="155" type="qcurve" smooth="yes"/>
      <point x="678" y="155"/>
      <point x="810" y="348"/>
      <point x="810" y="500" type="qcurve" smooth="yes"/>
      <point x="810" y="593"/>
      <point x="756" y="751"/>
      <point x="639" y="846"/>
      <point x="545" y="846" type="qcurve" smooth="yes"/>
      <point x="454" y="846"/>
      <point x="335" y="752"/>
      <point x="278" y="595"/>
      <point x="278" y="500" type="qcurve" smooth="yes"/>
      <point x="278" y="408"/>
      <point x="333" y="251"/>
      <point x="451" y="155"/>
    </contour>
  </outline>
</glyph>
<glyph name="r" format="2">
  <advance width="805"/>
  <unicode hex="0072"/>
  <outline>
    <contour>
      <point x="348" y="0" type="line"/>
      <point x="158" y="0" type="line"/>
      <point x="158" y="999" type="line"/>
      <point x="350" y="999" type="line"/>
      <point x="350" y="818" type="line"/>
      <point x="383" y="917"/>
      <point x="537" y="1014"/>
      <point x="613" y="1014" type="qcurve" smooth="yes"/>
      <point x="659" y="1014"/>
      <point x="763" y="987"/>
      <point x="801" y="959" type="qcurve"/>
      <point x="722" y="797" type="line"/>
      <point x="676" y="837"/>
      <point x="603" y="837" type="qcurve" smooth="yes"/>
      <point x="522" y="837"/>
      <point x="408" y="731"/>
      <point x="348" y="552"/>
      <point x="348" y="443" type="qcurve" smooth="yes"/>
    </contour>
  </outline>
</glyph>
<glyph name="s" format="2">
  <advance width="888"/>
  <unicode hex="0073"/>
  <outline>
    <contour>
      <point x="417" y="-20" type="line"/>
      <point x="348" y="-15"/>
      <point x="226" y="31"/>
      <point x="130" y="104"/>
      <point x="62" y="200"/>
      <point x="47" y="254" type="qcurve"/>
      <point x="86" y="271"/>
      <point x="163" y="307"/>
      <point x="201" y="324" type="qcurve"/>
      <point x="214" y="284"/>
      <point x="257" y="216"/>
      <point x="318" y="167"/>
      <point x="397" y="140"/>
      <point x="445" y="140" type="qcurve" smooth="yes"/>
      <point x="477" y="140"/>
      <point x="539" y="157"/>
      <point x="588" y="193"/>
      <point x="618" y="248"/>
      <point x="618" y="286" type="qcurve" smooth="yes"/>
      <point x="618" y="318"/>
      <point x="582" y="365"/>
      <point x="522" y="400"/>
      <point x="446" y="428"/>
      <point x="364" y="453"/>
      <point x="285" y="481"/>
      <point x="252" y="499" type="qcurve"/>
      <point x="114" y="565"/>
      <point x="113" y="715" type="qcurve"/>
      <point x="113" y="785"/>
      <point x="163" y="895"/>
      <point x="251" y="972"/>
      <point x="373" y="1014"/>
      <point x="444" y="1015" type="qcurve"/>
      <point x="447" y="1015"/>
      <point x="449" y="1015" type="qcurve"/>
      <point x="458" y="1014" type="line"/>
      <point x="461" y="1014"/>
      <point x="463" y="1014" type="qcurve" smooth="yes"/>
      <point x="525" y="1014"/>
      <point x="630" y="979"/>
      <point x="716" y="921"/>
      <point x="782" y="843"/>
      <point x="805" y="801" type="qcurve"/>
      <point x="656" y="723" type="line"/>
      <point x="621" y="792"/>
      <point x="513" y="861"/>
      <point x="437" y="861" type="qcurve"/>
      <point x="370" y="860"/>
      <point x="291" y="796"/>
      <point x="291" y="744" type="qcurve" smooth="yes"/>
      <point x="291" y="701"/>
      <point x="342" y="658"/>
      <point x="437" y="623"/>
      <point x="574" y="581"/>
      <point x="660" y="538" type="qcurve" smooth="yes"/>
      <point x="724" y="506"/>
      <point x="802" y="388"/>
      <point x="802" y="301" type="qcurve" smooth="yes"/>
      <point x="802" y="220"/>
      <point x="740" y="100"/>
      <point x="641" y="21"/>
      <point x="516" y="-19"/>
      <point x="454" y="-20" type="qcurve"/>
    </contour>
  </outline>
</glyph>
<glyph name="w" format="2">
  <advance width="1441"/>
  <unicode hex="0077"/>
  <outline>
    <contour>
      <point x="504" y="-2" type="line"/>
      <point x="324" y="-2" type="line"/>
      <point x="31" y="999" type="line"/>
      <point x="237" y="999" type="line"/>
      <point x="426" y="280" type="line"/>
      <point x="636" y="999" type="line"/>
      <point x="806" y="999" type="line"/>
      <point x="1016" y="282" type="line"/>
      <point x="1205" y="999" type="line"/>
      <point x="1411" y="999" type="line"/>
      <point x="1118" y="0" type="line"/>
      <point x="938" y="0" type="line"/>
      <point x="722" y="738" type="line"/>
    </contour>
  </outline>
</glyph>
<glyph name="y" format="2">
  <advance width="1002"/>
  <unicode hex="0079"/>
  <outline>
    <contour>
      <point x="434" y="-430" type="line"/>
      <point x="226" y="-430" type="line"/>
      <point x="403" y="15" type="line"/>
      <point x="16" y="999" type="line"/>
      <point x="229" y="999" type="line"/>
      <point x="503" y="240" type="line"/>
      <point x="774" y="999" type="line"/>
      <point x="986" y="999" type="line"/>
    </contour>
  </outline>
</glyph>
<glyph name="z" format="2">
  <advance width="964"/>
  <unicode hex="007A"/>
  <outline>
    <contour>
      <point x="890" y="0" type="line"/>
      <point x="60" y="0" type="line"/>
      <point x="60" y="136" type="line"/>
      <point x="650" y="838" type="line"/>
      <point x="89" y="838" type="line"/>
      <point x="89" y="999" type="line"/>
      <point x="890" y="999" type="line"/>
      <point x="890" y="852" type="line"/>
      <point x="317" y="164" type="line"/>
      <point x="890" y="164" type="line"/>
    </contour>
  </outline>
</glyph>
<glyph name="bar" format="2">
  <advance width="622"/>
  <unicode hex="007C"/>
  <outline>
    <contour>
      <point x="382" y="-512" type="line"/>
      <point x="239" y="-512" type="line"/>
      <point x="239" y="1534" type="line"/>
      <point x="382" y="1534" type="line"/>
    </contour>
  </outline>
</glyph>
<glyph name="yen" format="2">
  <advance width="1314"/>
  <unicode hex="00A5"/>
  <outline>
    <contour>
      <point x="744" y="0" type="line"/>
      <point x="570" y="0" type="line"/>
      <point x="570" y="249" type="line"/>
      <point x="271" y="249" type="line"/>
      <point x="271" y="397" type="line"/>
      <point x="570" y="397" type="line"/>
      <point x="570" y="515" type="line"/>
      <point x="271" y="515" type="line"/>
      <point x="271" y="664" type="line"/>
      <point x="501" y="664" type="line"/>
      <point x="27" y="1413" type="line"/>
      <point x="233" y="1413" type="line"/>
      <point x="658" y="727" type="line"/>
      <point x="1082" y="1413" type="line"/>
      <point x="1288" y="1413" type="line"/>
      <point x="814" y="663" type="line"/>
      <point x="1044" y="663" type="line"/>
      <point x="1044" y="515" type="line"/>
      <point x="744" y="515" type="line"/>
      <point x="744" y="397" type="line"/>
      <point x="1044" y="397" type="line"/>
      <point x="1044" y="249" type="line"/>
      <point x="744" y="249" type="line"/>
    </contour>
  </outline>
</glyph>
<glyph name="copyright" format="2">
  <advance width="1745"/>
  <unicode hex="00A9"/>
  <outline>
    <contour>
      <point x="873" y="-50" type="qcurve" smooth="yes"/>
      <point x="727" y="-50"/>
      <point x="473" y="47"/>
      <point x="273" y="216"/>
      <point x="207" y="328" type="qcurve" smooth="yes"/>
      <point x="104" y="501"/>
      <point x="104" y="707" type="qcurve" smooth="yes"/>
      <point x="104" y="850"/>
      <point x="202" y="1099"/>
      <point x="373" y="1295"/>
      <point x="487" y="1361" type="qcurve" smooth="yes"/>
      <point x="664" y="1463"/>
      <point x="873" y="1463" type="qcurve" smooth="yes"/>
      <point x="1019" y="1463"/>
      <point x="1272" y="1366"/>
      <point x="1471" y="1197"/>
      <point x="1538" y="1086" type="qcurve" smooth="yes"/>
      <point x="1641" y="912"/>
      <point x="1641" y="707" type="qcurve" smooth="yes"/>
      <point x="1641" y="563"/>
      <point x="1543" y="314"/>
      <point x="1371" y="117"/>
      <point x="1258" y="52" type="qcurve" smooth="yes"/>
      <point x="1082" y="-50"/>
    </contour>
    <contour>
      <point x="873" y="102" type="qcurve" smooth="yes"/>
      <point x="1045" y="102"/>
      <point x="1323" y="271"/>
      <point x="1405" y="407" type="qcurve" smooth="yes"/>
      <point x="1489" y="546"/>
      <point x="1489" y="707" type="qcurve" smooth="yes"/>
      <point x="1489" y="820"/>
      <point x="1409" y="1018"/>
      <point x="1270" y="1176"/>
      <point x="1179" y="1229" type="qcurve" smooth="yes"/>
      <point x="1037" y="1311"/>
      <point x="873" y="1311" type="qcurve" smooth="yes"/>
      <point x="758" y="1311"/>
      <point x="555" y="1233"/>
      <point x="394" y="1096"/>
      <point x="340" y="1007" type="qcurve" smooth="yes"/>
      <point x="256" y="868"/>
      <point x="256" y="707" type="qcurve" smooth="yes"/>
      <point x="256" y="538"/>
      <point x="428" y="265"/>
      <point x="566" y="185" type="qcurve" smooth="yes"/>
      <point x="708" y="102"/>
    </contour>
    <contour>
      <point x="889" y="283" type="qcurve" smooth="yes"/>
      <point x="766" y="283"/>
      <point x="602" y="398"/>
      <point x="519" y="590"/>
      <point x="519" y="705" type="qcurve" smooth="yes"/>
      <point x="519" y="815"/>
      <point x="598" y="1007"/>
      <point x="762" y="1126"/>
      <point x="889" y="1126" type="qcurve" smooth="yes"/>
      <point x="1006" y="1126"/>
      <point x="1171" y="1013"/>
      <point x="1218" y="911" type="qcurve"/>
      <point x="1079" y="852" type="line"/>
      <point x="1019" y="974"/>
      <point x="889" y="974" type="qcurve" smooth="yes"/>
      <point x="813" y="974"/>
      <point x="716" y="901"/>
      <point x="668" y="779"/>
      <point x="668" y="705" type="qcurve" smooth="yes"/>
      <point x="668" y="589"/>
      <point x="778" y="438"/>
      <point x="887" y="438" type="qcurve" smooth="yes"/>
      <point x="1019" y="438"/>
      <point x="1077" y="560" type="qcurve"/>
      <point x="1218" y="500" type="line"/>
      <point x="1117" y="283"/>
    </contour>
  </outline>
</glyph>
<glyph name="ordfeminine" format="2">
  <advance width="899"/>
  <unicode hex="00AA"/>
  <outline>
    <contour>
      <point x="365" y="709" type="qcurve" smooth="yes"/>
      <point x="301" y="709"/>
      <point x="193" y="761"/>
      <point x="127" y="857"/>
      <point x="127" y="923" type="qcurve" smooth="yes"/>
      <point x="127" y="999"/>
      <point x="197" y="1093"/>
      <point x="318" y="1137"/>
      <point x="396" y="1137" type="qcurve" smooth="yes"/>
      <point x="600" y="1137" type="line"/>
      <point x="600" y="1318"/>
      <point x="435" y="1318" type="qcurve" smooth="yes"/>
      <point x="375" y="1318"/>
      <point x="284" y="1258"/>
      <point x="255" y="1215" type="qcurve"/>
      <point x="151" y="1283" type="line"/>
      <point x="256" y="1434"/>
      <point x="439" y="1434" type="qcurve" smooth="yes"/>
      <point x="578" y="1434"/>
      <point x="724" y="1277"/>
      <point x="724" y="1151" type="qcurve" smooth="yes"/>
      <point x="724" y="723" type="line"/>
      <point x="610" y="723" type="line"/>
      <point x="605" y="824" type="line"/>
      <point x="517" y="709"/>
    </contour>
    <contour>
      <point x="392" y="827" type="qcurve" smooth="yes"/>
      <point x="450" y="827"/>
      <point x="542" y="885"/>
      <point x="597" y="974"/>
      <point x="600" y="1023" type="qcurve"/>
      <point x="406" y="1023" type="line" smooth="yes"/>
      <point x="347" y="1023"/>
      <point x="268" y="971"/>
      <point x="268" y="923" type="qcurve" smooth="yes"/>
      <point x="268" y="881"/>
      <point x="348" y="827"/>
    </contour>
  </outline>
</glyph>
<glyph name="sfthyphen" format="2">
  <advance width="993"/>
  <unicode hex="00AD"/>
  <outline>
    <contour>
      <point x="841" y="545" type="line"/>
      <point x="152" y="545" type="line"/>
      <point x="152" y="692" type="line"/>
      <point x="841" y="692" type="line"/>
    </contour>
  </outline>
</glyph>
<glyph name="degree" format="2">
  <advance width="916"/>
  <unicode hex="00B0"/>
  <outline>
    <contour>
      <point x="458" y="848" type="qcurve" smooth="yes"/>
      <point x="373" y="848"/>
      <point x="241" y="930"/>
      <point x="165" y="1064"/>
      <point x="165" y="1141" type="qcurve" smooth="yes"/>
      <point x="165" y="1227"/>
      <point x="248" y="1359"/>
      <point x="382" y="1434"/>
      <point x="458" y="1434" type="qcurve" smooth="yes"/>
      <point x="542" y="1434"/>
      <point x="674" y="1352"/>
      <point x="750" y="1219"/>
      <point x="750" y="1141" type="qcurve" smooth="yes"/>
      <point x="750" y="1056"/>
      <point x="668" y="924"/>
      <point x="535" y="848"/>
    </contour>
    <contour>
      <point x="458" y="974" type="qcurve" smooth="yes"/>
      <point x="527" y="974"/>
      <point x="625" y="1072"/>
      <point x="625" y="1141" type="qcurve" smooth="yes"/>
      <point x="625" y="1213"/>
      <point x="523" y="1307"/>
      <point x="458" y="1307" type="qcurve" smooth="yes"/>
      <point x="387" y="1307"/>
      <point x="292" y="1207"/>
      <point x="292" y="1141" type="qcurve" smooth="yes"/>
      <point x="292" y="1069"/>
      <point x="393" y="974"/>
    </contour>
  </outline>
</glyph>
<glyph name="mu" format="2">
  <advance width="1296"/>
  <unicode hex="00B5"/>
  <outline>
    <contour>
      <point x="407" y="-266" type="line"/>
      <point x="238" y="-266" type="line"/>
      <point x="238" y="999" type="line"/>
      <point x="428" y="999" type="line"/>
      <point x="428" y="410" type="line" smooth="yes"/>
      <point x="428" y="151"/>
      <point x="616" y="151" type="qcurve" smooth="yes"/>
      <point x="697" y="151"/>
      <point x="824" y="234"/>
      <point x="898" y="364"/>
      <point x="898" y="435" type="qcurve" smooth="yes"/>
      <point x="898" y="999" type="line"/>
      <point x="1088" y="999" type="line"/>
      <point x="1088" y="0" type="line"/>
      <point x="898" y="0" type="line"/>
      <point x="898" y="136" type="line"/>
      <point x="854" y="71"/>
      <point x="699" y="-23"/>
      <point x="601" y="-23" type="qcurve" smooth="yes"/>
      <point x="503" y="-23"/>
      <point x="427" y="19" type="qcurve"/>
    </contour>
  </outline>
</glyph>
<glyph name="guillemotright" format="2">
  <advance width="960"/>
  <unicode hex="00BB"/>
  <outline>
    <contour>
      <point x="155" y="171" type="line"/>
      <point x="155" y="356" type="line"/>
      <point x="342" y="511" type="line"/>
      <point x="155" y="666" type="line"/>
      <point x="155" y="851" type="line"/>
      <point x="552" y="511" type="line"/>
    </contour>
    <contour>
      <point x="517" y="171" type="line"/>
      <point x="517" y="356" type="line"/>
      <point x="705" y="511" type="line"/>
      <point x="517" y="666" type="line"/>
      <point x="517" y="851" type="line"/>
      <point x="915" y="511" type="line"/>
    </contour>
  </outline>
</glyph>
<glyph name="Aring" format="2">
  <advance width="1323"/>
  <unicode hex="00C5"/>
  <outline>
    <contour>
      <point x="1284" y="0" type="line"/>
      <point x="1065" y="0" type="line"/>
      <point x="957" y="307" type="line"/>
      <point x="370" y="307" type="line"/>
      <point x="261" y="0" type="line"/>
      <point x="39" y="0" type="line"/>
      <point x="554" y="1331" type="line"/>
      <point x="506" y="1359"/>
      <point x="447" y="1457"/>
      <point x="447" y="1518" type="qcurve" smooth="yes"/>
      <point x="447" y="1612"/>
      <point x="575" y="1734"/>
      <point x="661" y="1734" type="qcurve" smooth="yes"/>
      <point x="754" y="1734"/>
      <point x="879" y="1605"/>
      <point x="879" y="1518" type="qcurve" smooth="yes"/>
      <point x="879" y="1456"/>
      <point x="819" y="1360"/>
      <point x="771" y="1333" type="qcurve"/>
    </contour>
    <contour>
      <point x="661" y="1418" type="qcurve" smooth="yes"/>
      <point x="706" y="1418"/>
      <point x="762" y="1477"/>
      <point x="762" y="1519" type="qcurve" smooth="yes"/>
      <point x="762" y="1561"/>
      <point x="709" y="1616"/>
      <point x="661" y="1616" type="qcurve" smooth="yes"/>
      <point x="616" y="1616"/>
      <point x="563" y="1562"/>
      <point x="563" y="1519" type="qcurve" smooth="yes"/>
      <point x="563" y="1474"/>
      <point x="619" y="1418"/>
    </contour>
    <contour>
      <point x="888" y="486" type="line"/>
      <point x="664" y="1114" type="line"/>
      <point x="438" y="486" type="line"/>
    </contour>
  </outline>
</glyph>
<glyph name="multiply" format="2">
  <advance width="1097"/>
  <unicode hex="00D7"/>
  <outline>
    <contour>
      <point x="226" y="198" type="line"/>
      <point x="122" y="301" type="line"/>
      <point x="444" y="625" type="line"/>
      <point x="130" y="939" type="line"/>
      <point x="234" y="1044" type="line"/>
      <point x="549" y="729" type="line"/>
      <point x="872" y="1051" type="line"/>
      <point x="976" y="948" type="line"/>
      <point x="653" y="625" type="line"/>
      <point x="967" y="311" type="line"/>
      <point x="863" y="206" type="line"/>
      <point x="549" y="521" type="line"/>
    </contour>
  </outline>
</glyph>
<glyph name="Oslash" format="2">
  <advance width="1521"/>
  <unicode hex="00D8"/>
  <outline>
    <contour>
      <point x="760" y="-20" type="qcurve" smooth="yes"/>
      <point x="586" y="-20"/>
      <point x="450" y="48" type="qcurve"/>
      <point x="422" y="0" type="line"/>
      <point x="268" y="0" type="line"/>
      <point x="339" y="121" type="line"/>
      <point x="218" y="227"/>
      <point x="104" y="535"/>
      <point x="104" y="707" type="qcurve" smooth="yes"/>
      <point x="104" y="898"/>
      <point x="244" y="1231"/>
      <point x="398" y="1336" type="qcurve"/>
      <point x="545" y="1434"/>
      <point x="760" y="1434" type="qcurve" smooth="yes"/>
      <point x="935" y="1434"/>
      <point x="1069" y="1367" type="qcurve"/>
      <point x="1096" y="1413" type="line"/>
      <point x="1249" y="1413" type="line"/>
      <point x="1180" y="1294" type="line"/>
      <point x="1302" y="1189"/>
      <point x="1417" y="879"/>
      <point x="1417" y="707" type="qcurve" smooth="yes"/>
      <point x="1417" y="516"/>
      <point x="1277" y="183"/>
      <point x="1123" y="78" type="qcurve"/>
      <point x="975" y="-20"/>
    </contour>
    <contour>
      <point x="441" y="295" type="qcurve"/>
      <point x="973" y="1202" type="line"/>
      <point x="882" y="1250"/>
      <point x="760" y="1250" type="qcurve" smooth="yes"/>
      <point x="606" y="1250"/>
      <point x="506" y="1176" type="qcurve"/>
      <point x="402" y="1097"/>
      <point x="312" y="851"/>
      <point x="312" y="707" type="qcurve" smooth="yes"/>
      <point x="312" y="588"/>
      <point x="374" y="373"/>
    </contour>
    <contour>
      <point x="760" y="163" type="qcurve" smooth="yes"/>
      <point x="915" y="163"/>
      <point x="1016" y="237" type="qcurve"/>
      <point x="1120" y="315"/>
      <point x="1210" y="562"/>
      <point x="1210" y="707" type="qcurve" smooth="yes"/>
      <point x="1210" y="826"/>
      <point x="1148" y="1042"/>
      <point x="1078" y="1121" type="qcurve"/>
      <point x="546" y="212" type="line"/>
      <point x="639" y="163"/>
    </contour>
  </outline>
</glyph>
<glyph name="germandbls" format="2">
  <advance width="1181"/>
  <unicode hex="00DF"/>
  <outline>
    <contour>
      <point x="724" y="-18" type="qcurve" smooth="yes"/>
      <point x="615" y="-18"/>
      <point x="488" y="34" type="qcurve"/>
      <point x="560" y="205" type="line"/>
      <point x="652" y="164"/>
      <point x="720" y="164" type="qcurve" smooth="yes"/>
      <point x="787" y="164"/>
      <point x="885" y="247"/>
      <point x="885" y="306" type="qcurve" smooth="yes"/>
      <point x="885" y="366"/>
      <point x="811" y="457"/>
      <point x="743" y="512" type="qcurve" smooth="yes"/>
      <point x="662" y="577"/>
      <point x="578" y="688"/>
      <point x="578" y="767" type="qcurve" smooth="yes"/>
      <point x="578" y="812"/>
      <point x="611" y="877"/>
      <point x="660" y="920"/>
      <point x="696" y="945" type="qcurve" smooth="yes"/>
      <point x="732" y="970"/>
      <point x="775" y="1008"/>
      <point x="803" y="1059"/>
      <point x="803" y="1094" type="qcurve" smooth="yes"/>
      <point x="803" y="1137"/>
      <point x="756" y="1214"/>
      <point x="660" y="1263"/>
      <point x="588" y="1263" type="qcurve" smooth="yes"/>
      <point x="352" y="1263"/>
      <point x="352" y="960" type="qcurve" smooth="yes"/>
      <point x="352" y="0" type="line"/>
      <point x="160" y="0" type="line"/>
      <point x="160" y="961" type="line" smooth="yes"/>
      <point x="160" y="1123"/>
      <point x="273" y="1332"/>
      <point x="463" y="1434"/>
      <point x="579" y="1434" type="qcurve" smooth="yes"/>
      <point x="679" y="1434"/>
      <point x="872" y="1350"/>
      <point x="938" y="1266" type="qcurve"/>
      <point x="998" y="1185"/>
      <point x="998" y="1081" type="qcurve" smooth="yes"/>
      <point x="998" y="1021"/>
      <point x="957" y="940"/>
      <point x="897" y="890"/>
      <point x="856" y="863" type="qcurve" smooth="yes"/>
      <point x="810" y="833"/>
      <point x="766" y="791"/>
      <point x="766" y="760" type="qcurve" smooth="yes"/>
      <point x="766" y="729"/>
      <point x="819" y="671"/>
      <point x="880" y="627" type="qcurve" smooth="yes"/>
      <point x="941" y="583"/>
      <point x="1032" y="494"/>
      <point x="1082" y="387"/>
      <point x="1082" y="315" type="qcurve" smooth="yes"/>
      <point x="1082" y="214"/>
      <point x="985" y="64"/>
      <point x="822" y="-18"/>
    </contour>
  </outline>
</glyph>
<glyph name="ae" format="2">
  <advance width="1670"/>
  <unicode hex="00E6"/>
  <outline>
    <contour>
      <point x="398" y="-20" type="qcurve" smooth="yes"/>
      <point x="307" y="-20"/>
      <point x="154" y="54"/>
      <point x="62" y="190"/>
      <point x="62" y="282" type="qcurve" smooth="yes"/>
      <point x="62" y="439"/>
      <point x="267" y="583"/>
      <point x="443" y="583" type="qcurve" smooth="yes"/>
      <point x="734" y="583" type="line"/>
      <point x="734" y="723"/>
      <point x="616" y="855"/>
      <point x="496" y="855" type="qcurve" smooth="yes"/>
      <point x="412" y="855"/>
      <point x="283" y="775"/>
      <point x="246" y="718" type="qcurve"/>
      <point x="104" y="816" type="line"/>
      <point x="251" y="1016"/>
      <point x="504" y="1016" type="qcurve" smooth="yes"/>
      <point x="625" y="1016"/>
      <point x="790" y="922"/>
      <point x="834" y="838" type="qcurve"/>
      <point x="946" y="1012"/>
      <point x="1162" y="1012" type="qcurve" smooth="yes"/>
      <point x="1320" y="1012"/>
      <point x="1515" y="868"/>
      <point x="1599" y="635"/>
      <point x="1599" y="491" type="qcurve" smooth="yes"/>
      <point x="1599" y="463"/>
      <point x="1593" y="436" type="qcurve"/>
      <point x="902" y="436" type="line"/>
      <point x="906" y="359"/>
      <point x="968" y="237"/>
      <point x="1084" y="165"/>
      <point x="1168" y="165" type="qcurve" smooth="yes"/>
      <point x="1262" y="165"/>
      <point x="1386" y="210"/>
      <point x="1437" y="263" type="qcurve"/>
      <point x="1569" y="150" type="line"/>
      <point x="1490" y="68"/>
      <point x="1299" y="-12"/>
      <point x="1171" y="-12" type="qcurve" smooth="yes"/>
      <point x="1029" y="-12"/>
      <point x="848" y="108"/>
      <point x="802" y="213" type="qcurve"/>
      <point x="746" y="106"/>
      <point x="546" y="-20"/>
    </contour>
    <contour>
      <point x="1411" y="583" type="line"/>
      <point x="1407" y="662"/>
      <point x="1351" y="779"/>
      <point x="1239" y="845"/>
      <point x="1152" y="845" type="qcurve" smooth="yes"/>
      <point x="1072" y="845"/>
      <point x="965" y="775"/>
      <point x="908" y="658"/>
      <point x="902" y="583" type="qcurve"/>
    </contour>
    <contour>
      <point x="437" y="142" type="qcurve" smooth="yes"/>
      <point x="522" y="142"/>
      <point x="655" y="230"/>
      <point x="731" y="364"/>
      <point x="734" y="436" type="qcurve"/>
      <point x="457" y="436" type="line" smooth="yes"/>
      <point x="371" y="436"/>
      <point x="253" y="357"/>
      <point x="253" y="284" type="qcurve" smooth="yes"/>
      <point x="253" y="240"/>
      <point x="306" y="176"/>
      <point x="390" y="142"/>
    </contour>
  </outline>
</glyph>
<glyph name="ccedilla" format="2">
  <advance width="988"/>
  <unicode hex="00E7"/>
  <outline>
    <contour>
      <point x="496" y="-513" type="qcurve" smooth="yes"/>
      <point x="431" y="-513"/>
      <point x="330" y="-440"/>
      <point x="308" y="-386" type="qcurve"/>
      <point x="424" y="-332" type="line"/>
      <point x="430" y="-357"/>
      <point x="473" y="-393"/>
      <point x="502" y="-393" type="qcurve" smooth="yes"/>
      <point x="544" y="-393"/>
      <point x="592" y="-342"/>
      <point x="592" y="-305" type="qcurve" smooth="yes"/>
      <point x="592" y="-259"/>
      <point x="503" y="-187"/>
      <point x="414" y="-187" type="qcurve" smooth="yes"/>
      <point x="360" y="-187" type="line"/>
      <point x="461" y="-15" type="line"/>
      <point x="334" y="4"/>
      <point x="163" y="151"/>
      <point x="76" y="372"/>
      <point x="76" y="498" type="qcurve" smooth="yes"/>
      <point x="76" y="629"/>
      <point x="175" y="866"/>
      <point x="282" y="944" type="qcurve"/>
      <point x="385" y="1016"/>
      <point x="531" y="1016" type="qcurve" smooth="yes"/>
      <point x="678" y="1016"/>
      <point x="886" y="865"/>
      <point x="940" y="741" type="qcurve"/>
      <point x="757" y="666" type="line"/>
      <point x="734" y="750"/>
      <point x="614" y="840"/>
      <point x="531" y="840" type="qcurve" smooth="yes"/>
      <point x="440" y="840"/>
      <point x="327" y="743"/>
      <point x="273" y="586"/>
      <point x="273" y="498" type="qcurve" smooth="yes"/>
      <point x="273" y="410"/>
      <point x="324" y="253"/>
      <point x="438" y="155"/>
      <point x="531" y="155" type="qcurve" smooth="yes"/>
      <point x="614" y="155"/>
      <point x="734" y="248"/>
      <point x="757" y="329" type="qcurve"/>
      <point x="929" y="260" type="line"/>
      <point x="837" y="15"/>
      <point x="589" y="-17" type="qcurve"/>
      <point x="528" y="-109" type="line"/>
      <point x="623" y="-118"/>
      <point x="716" y="-223"/>
      <point x="716" y="-297" type="qcurve" smooth="yes"/>
      <point x="716" y="-354"/>
      <point x="662" y="-452"/>
      <point x="563" y="-513"/>
    </contour>
  </outline>
</glyph>
<glyph name="oslash" format="2">
  <advance width="1123"/>
  <unicode hex="00F8"/>
  <outline>
    <contour>
      <point x="561" y="-20" type="qcurve" smooth="yes"/>
      <point x="441" y="-20"/>
      <point x="339" y="30" type="qcurve"/>
      <point x="322" y="0" type="line"/>
      <point x="213" y="0" type="line"/>
      <point x="260" y="80" type="line"/>
      <point x="171" y="150"/>
      <point x="69" y="366"/>
      <point x="69" y="496" type="qcurve" smooth="yes"/>
      <point x="69" y="632"/>
      <point x="188" y="869"/>
      <point x="305" y="943" type="qcurve"/>
      <point x="417" y="1012"/>
      <point x="561" y="1012" type="qcurve" smooth="yes"/>
      <point x="679" y="1012"/>
      <point x="777" y="964" type="qcurve"/>
      <point x="798" y="999" type="line"/>
      <point x="906" y="999" type="line"/>
      <point x="857" y="915" type="line"/>
      <point x="949" y="845"/>
      <point x="1053" y="628"/>
      <point x="1053" y="496" type="qcurve" smooth="yes"/>
      <point x="1053" y="353"/>
      <point x="929" y="119"/>
      <point x="707" y="-20"/>
    </contour>
    <contour>
      <point x="353" y="240" type="qcurve"/>
      <point x="690" y="815" type="line"/>
      <point x="634" y="843"/>
      <point x="561" y="843" type="qcurve" smooth="yes"/>
      <point x="462" y="843"/>
      <point x="336" y="749"/>
      <point x="277" y="591"/>
      <point x="277" y="496" type="qcurve" smooth="yes"/>
      <point x="277" y="423"/>
      <point x="314" y="290"/>
    </contour>
    <contour>
      <point x="561" y="149" type="qcurve" smooth="yes"/>
      <point x="660" y="149"/>
      <point x="785" y="242"/>
      <point x="845" y="399"/>
      <point x="845" y="496" type="qcurve" smooth="yes"/>
      <point x="845" y="663"/>
      <point x="765" y="757" type="qcurve"/>
      <point x="427" y="179" type="line"/>
      <point x="485" y="149"/>
    </contour>
  </outline>
</glyph>
<glyph name="thorn" format="2">
  <advance width="1147"/>
  <unicode hex="00FE"/>
  <outline>
    <contour>
      <point x="354" y="-438" type="line"/>
      <point x="161" y="-438" type="line"/>
      <point x="161" y="1413" type="line"/>
      <point x="354" y="1413" type="line"/>
      <point x="354" y="887" type="line"/>
      <point x="403" y="949"/>
      <point x="551" y="1020"/>
      <point x="650" y="1020" type="qcurve" smooth="yes"/>
      <point x="785" y="1020"/>
      <point x="970" y="878"/>
      <point x="1066" y="642"/>
      <point x="1066" y="500" type="qcurve" smooth="yes"/>
      <point x="1066" y="398"/>
      <point x="1014" y="211"/>
      <point x="911" y="65"/>
      <point x="755" y="-20"/>
      <point x="650" y="-20" type="qcurve" smooth="yes"/>
      <point x="552" y="-20"/>
      <point x="403" y="51"/>
      <point x="354" y="112" type="qcurve"/>
    </contour>
    <contour>
      <point x="609" y="152" type="qcurve" smooth="yes"/>
      <point x="700" y="152"/>
      <point x="820" y="244"/>
      <point x="879" y="402"/>
      <point x="879" y="500" type="qcurve" smooth="yes"/>
      <point x="879" y="594"/>
      <point x="822" y="751"/>
      <point x="703" y="846"/>
      <point x="609" y="846" type="qcurve" smooth="yes"/>
      <point x="517" y="846"/>
      <point x="396" y="753"/>
      <point x="337" y="595"/>
      <point x="337" y="500" type="qcurve" smooth="yes"/>
      <point x="337" y="406"/>
      <point x="394" y="248"/>
      <point x="515" y="152"/>
    </contour>
  </outline>
</glyph>
<glyph name="aogonek" format="2">
  <advance width="1042"/>
  <unicode hex="0105"/>
  <outline>
    <contour>
      <point x="782" y="-451" type="qcurve" smooth="yes"/>
      <point x="693" y="-451"/>
      <point x="567" y="-342"/>
      <point x="567" y="-246" type="qcurve" smooth="yes"/>
      <point x="567" y="-175"/>
      <point x="644" y="-67"/>
      <point x="729" y="-7"/>
      <point x="757" y="0" type="qcurve"/>
      <point x="751" y="0" type="line"/>
      <point x="741" y="169" type="line"/>
      <point x="632" y="-20"/>
      <point x="409" y="-20" type="qcurve" smooth="yes"/>
      <point x="311" y="-20"/>
      <point x="153" y="53"/>
      <point x="60" y="192"/>
      <point x="60" y="292" type="qcurve" smooth="yes"/>
      <point x="60" y="442"/>
      <point x="285" y="583"/>
      <point x="487" y="583" type="qcurve" smooth="yes"/>
      <point x="730" y="583" type="line"/>
      <point x="730" y="662"/>
      <point x="685" y="781"/>
      <point x="586" y="847"/>
      <point x="507" y="847" type="qcurve" smooth="yes"/>
      <point x="418" y="847"/>
      <point x="290" y="766"/>
      <point x="250" y="705" type="qcurve"/>
      <point x="105" y="813" type="line"/>
      <point x="250" y="1016"/>
      <point x="501" y="1016" type="qcurve" smooth="yes"/>
      <point x="634" y="1016"/>
      <point x="818" y="913"/>
      <point x="912" y="730"/>
      <point x="912" y="610" type="qcurve" smooth="yes"/>
      <point x="912" y="0" type="line"/>
      <point x="884" y="-10"/>
      <point x="787" y="-62"/>
      <point x="694" y="-159"/>
      <point x="694" y="-222" type="qcurve" smooth="yes"/>
      <point x="694" y="-274"/>
      <point x="741" y="-320"/>
      <point x="774" y="-320" type="qcurve" smooth="yes"/>
      <point x="844" y="-320"/>
      <point x="887" y="-259" type="qcurve"/>
      <point x="994" y="-333" type="line"/>
      <point x="917" y="-451"/>
    </contour>
    <contour>
      <point x="434" y="144" type="qcurve" smooth="yes"/>
      <point x="522" y="144"/>
      <point x="654" y="232"/>
      <point x="728" y="367"/>
      <point x="730" y="440" type="qcurve"/>
      <point x="501" y="440" type="line" smooth="yes"/>
      <point x="387" y="440"/>
      <point x="259" y="364"/>
      <point x="259" y="286" type="qcurve" smooth="yes"/>
      <point x="259" y="215"/>
      <point x="360" y="144"/>
    </contour>
  </outline>
</glyph>
<glyph name="dcroat" format="2">
  <advance width="1149"/>
  <unicode hex="0111"/>
  <outline>
    <contour>
      <point x="496" y="-20" type="qcurve" smooth="yes"/>
      <point x="362" y="-20"/>
      <point x="177" y="123"/>
      <point x="81" y="360"/>
      <point x="81" y="500" type="qcurve" smooth="yes"/>
      <point x="81" y="636"/>
      <point x="175" y="875"/>
      <point x="273" y="950" type="qcurve" smooth="yes"/>
      <point x="366" y="1020"/>
      <point x="494" y="1020" type="qcurve" smooth="yes"/>
      <point x="591" y="1020"/>
      <point x="744" y="947"/>
      <point x="794" y="880" type="qcurve"/>
      <point x="794" y="1149" type="line"/>
      <point x="516" y="1149" type="line"/>
      <point x="516" y="1288" type="line"/>
      <point x="794" y="1288" type="line"/>
      <point x="794" y="1413" type="line"/>
      <point x="989" y="1413" type="line"/>
      <point x="989" y="1288" type="line"/>
      <point x="1150" y="1288" type="line"/>
      <point x="1150" y="1149" type="line"/>
      <point x="989" y="1149" type="line"/>
      <point x="989" y="0" type="line"/>
      <point x="805" y="0" type="line"/>
      <point x="799" y="125" type="line"/>
      <point x="749" y="55"/>
      <point x="596" y="-20"/>
    </contour>
    <contour>
      <point x="545" y="158" type="qcurve" smooth="yes"/>
      <point x="678" y="158"/>
      <point x="810" y="348"/>
      <point x="810" y="500" type="qcurve" smooth="yes"/>
      <point x="810" y="593"/>
      <point x="756" y="749"/>
      <point x="640" y="843"/>
      <point x="545" y="843" type="qcurve" smooth="yes"/>
      <point x="454" y="843"/>
      <point x="336" y="751"/>
      <point x="278" y="595"/>
      <point x="278" y="500" type="qcurve" smooth="yes"/>
      <point x="278" y="406"/>
      <point x="334" y="251"/>
      <point x="452" y="158"/>
    </contour>
  </outline>
</glyph>
<glyph name="Hbar" format="2">
  <advance width="1472"/>
  <unicode hex="0126"/>
  <outline>
    <contour>
      <point x="1274" y="0" type="line"/>
      <point x="1070" y="0" type="line"/>
      <point x="1070" y="617" type="line"/>
      <point x="401" y="617" type="line"/>
      <point x="401" y="0" type="line"/>
      <point x="198" y="0" type="line"/>
      <point x="198" y="1057" type="line"/>
      <point x="89" y="1057" type="line"/>
      <point x="89" y="1172" type="line"/>
      <point x="198" y="1172" type="line"/>
      <point x="198" y="1413" type="line"/>
      <point x="401" y="1413" type="line"/>
      <point x="401" y="1172" type="line"/>
      <point x="1070" y="1172" type="line"/>
      <point x="1070" y="1413" type="line"/>
      <point x="1274" y="1413" type="line"/>
      <point x="1274" y="1172" type="line"/>
      <point x="1382" y="1172" type="line"/>
      <point x="1382" y="1057" type="line"/>
      <point x="1274" y="1057" type="line"/>
    </contour>
    <contour>
      <point x="1070" y="797" type="line"/>
      <point x="1070" y="1057" type="line"/>
      <point x="401" y="1057" type="line"/>
      <point x="401" y="797" type="line"/>
    </contour>
  </outline>
</glyph>
<glyph name="hbar" format="2">
  <advance width="1145"/>
  <unicode hex="0127"/>
  <outline>
    <contour>
      <point x="1014" y="0" type="line"/>
      <point x="817" y="0" type="line"/>
      <point x="817" y="582" type="line" smooth="yes"/>
      <point x="817" y="835"/>
      <point x="632" y="835" type="qcurve" smooth="yes"/>
      <point x="551" y="835"/>
      <point x="426" y="751"/>
      <point x="354" y="619"/>
      <point x="354" y="547" type="qcurve" smooth="yes"/>
      <point x="354" y="0" type="line"/>
      <point x="160" y="0" type="line"/>
      <point x="160" y="1118" type="line"/>
      <point x="-4" y="1118" type="line"/>
      <point x="-4" y="1257" type="line"/>
      <point x="160" y="1257" type="line"/>
      <point x="160" y="1413" type="line"/>
      <point x="354" y="1413" type="line"/>
      <point x="354" y="1257" type="line"/>
      <point x="630" y="1257" type="line"/>
      <point x="630" y="1118" type="line"/>
      <point x="354" y="1118" type="line"/>
      <point x="354" y="857" type="line"/>
      <point x="411" y="938"/>
      <point x="577" y="1016"/>
      <point x="662" y="1016" type="qcurve" smooth="yes"/>
      <point x="783" y="1016"/>
      <point x="939" y="904"/>
      <point x="1014" y="719"/>
      <point x="1014" y="609" type="qcurve" smooth="yes"/>
    </contour>
  </outline>
</glyph>
<glyph name="kgreenlandic" format="2">
  <advance width="1078"/>
  <unicode hex="0138"/>
  <outline>
    <contour>
      <point x="1066" y="0" type="line"/>
      <point x="836" y="0" type="line"/>
      <point x="537" y="497" type="line"/>
      <point x="351" y="291" type="line"/>
      <point x="351" y="0" type="line"/>
      <point x="158" y="0" type="line"/>
      <point x="158" y="999" type="line"/>
      <point x="351" y="999" type="line"/>
      <point x="351" y="526" type="line"/>
      <point x="764" y="999" type="line"/>
      <point x="1012" y="999" type="line"/>
      <point x="663" y="623" type="line"/>
    </contour>
  </outline>
</glyph>
<glyph name="eng" format="2">
  <advance width="1137"/>
  <unicode hex="014B"/>
  <outline>
    <contour>
      <point x="715" y="-369" type="qcurve" smooth="yes"/>
      <point x="614" y="-369" type="line"/>
      <point x="614" y="-206" type="line"/>
      <point x="679" y="-206" type="line" smooth="yes"/>
      <point x="740" y="-206"/>
      <point x="797" y="-151"/>
      <point x="813" y="-80"/>
      <point x="813" y="-32" type="qcurve" smooth="yes"/>
      <point x="813" y="583" type="line" smooth="yes"/>
      <point x="813" y="697"/>
      <point x="731" y="837"/>
      <point x="627" y="837" type="qcurve" smooth="yes"/>
      <point x="546" y="837"/>
      <point x="421" y="757"/>
      <point x="349" y="629"/>
      <point x="349" y="559" type="qcurve" smooth="yes"/>
      <point x="349" y="0" type="line"/>
      <point x="158" y="0" type="line"/>
      <point x="158" y="999" type="line"/>
      <point x="349" y="999" type="line"/>
      <point x="349" y="856" type="line"/>
      <point x="403" y="936"/>
      <point x="568" y="1016"/>
      <point x="652" y="1016" type="qcurve" smooth="yes"/>
      <point x="774" y="1016"/>
      <point x="853" y="960" type="qcurve"/>
      <point x="934" y="899"/>
      <point x="1004" y="712"/>
      <point x="1004" y="605" type="qcurve" smooth="yes"/>
      <point x="1004" y="-75" type="line" smooth="yes"/>
      <point x="1004" y="-143"/>
      <point x="970" y="-268"/>
      <point x="842" y="-369"/>
    </contour>
  </outline>
</glyph>
<glyph name="OE" format="2">
  <advance width="2249"/>
  <unicode hex="0152"/>
  <outline>
    <contour>
      <point x="760" y="-20" type="qcurve" smooth="yes"/>
      <point x="545" y="-20"/>
      <point x="398" y="78" type="qcurve"/>
      <point x="244" y="183"/>
      <point x="104" y="516"/>
      <point x="104" y="707" type="qcurve" smooth="yes"/>
      <point x="104" y="898"/>
      <point x="244" y="1231"/>
      <point x="398" y="1336" type="qcurve"/>
      <point x="545" y="1434"/>
      <point x="760" y="1434" type="qcurve" smooth="yes"/>
      <point x="1073" y="1434"/>
      <point x="1214" y="1208" type="qcurve"/>
      <point x="1214" y="1413" type="line"/>
      <point x="2132" y="1413" type="line"/>
      <point x="2132" y="1231" type="line"/>
      <point x="1417" y="1231" type="line"/>
      <point x="1417" y="797" type="line"/>
      <point x="2066" y="797" type="line"/>
      <point x="2066" y="617" type="line"/>
      <point x="1417" y="617" type="line"/>
      <point x="1417" y="189" type="line"/>
      <point x="2132" y="189" type="line"/>
      <point x="2132" y="0" type="line"/>
      <point x="1214" y="0" type="line"/>
      <point x="1214" y="205" type="line"/>
      <point x="1072" y="-20"/>
    </contour>
    <contour>
      <point x="760" y="169" type="qcurve" smooth="yes"/>
      <point x="915" y="169"/>
      <point x="1017" y="242" type="qcurve"/>
      <point x="1122" y="319"/>
      <point x="1214" y="563"/>
      <point x="1214" y="707" type="qcurve" smooth="yes"/>
      <point x="1214" y="817"/>
      <point x="1162" y="1011"/>
      <point x="1052" y="1159"/>
      <point x="880" y="1244"/>
      <point x="760" y="1244" type="qcurve" smooth="yes"/>
      <point x="605" y="1244"/>
      <point x="504" y="1172" type="qcurve"/>
      <point x="399" y="1094"/>
      <point x="307" y="851"/>
      <point x="307" y="707" type="qcurve" smooth="yes"/>
      <point x="307" y="598"/>
      <point x="358" y="404"/>
      <point x="467" y="255"/>
      <point x="639" y="169"/>
    </contour>
  </outline>
</glyph>
<glyph name="oe" format="2">
  <advance width="1805"/>
  <unicode hex="0153"/>
  <outline>
    <contour>
      <point x="560" y="-20" type="qcurve" smooth="yes"/>
      <point x="408" y="-20"/>
      <point x="188" y="123"/>
      <point x="69" y="358"/>
      <point x="69" y="496" type="qcurve" smooth="yes"/>
      <point x="69" y="631"/>
      <point x="187" y="868"/>
      <point x="304" y="943" type="qcurve"/>
      <point x="416" y="1012"/>
      <point x="560" y="1012" type="qcurve" smooth="yes"/>
      <point x="685" y="1012"/>
      <point x="873" y="907"/>
      <point x="932" y="820" type="qcurve"/>
      <point x="1051" y="1012"/>
      <point x="1285" y="1012" type="qcurve" smooth="yes"/>
      <point x="1524" y="1012"/>
      <point x="1731" y="718"/>
      <point x="1731" y="492" type="qcurve" smooth="yes"/>
      <point x="1731" y="457"/>
      <point x="1726" y="434" type="qcurve"/>
      <point x="1035" y="434" type="line"/>
      <point x="1040" y="362"/>
      <point x="1102" y="241"/>
      <point x="1219" y="167"/>
      <point x="1306" y="167" type="qcurve" smooth="yes"/>
      <point x="1396" y="167"/>
      <point x="1523" y="218"/>
      <point x="1575" y="273" type="qcurve"/>
      <point x="1710" y="158" type="line"/>
      <point x="1630" y="72"/>
      <point x="1435" y="-12"/>
      <point x="1308" y="-12" type="qcurve" smooth="yes"/>
      <point x="1177" y="-12"/>
      <point x="991" y="91"/>
      <point x="935" y="176" type="qcurve"/>
      <point x="876" y="86"/>
      <point x="688" y="-20"/>
    </contour>
    <contour>
      <point x="1540" y="583" type="line"/>
      <point x="1536" y="661"/>
      <point x="1480" y="778"/>
      <point x="1370" y="843"/>
      <point x="1285" y="843" type="qcurve" smooth="yes"/>
      <point x="1172" y="843"/>
      <point x="1046" y="698"/>
      <point x="1035" y="583" type="qcurve"/>
    </contour>
    <contour>
      <point x="557" y="150" type="qcurve" smooth="yes"/>
      <point x="702" y="150"/>
      <point x="841" y="343"/>
      <point x="841" y="496" type="qcurve" smooth="yes"/>
      <point x="841" y="649"/>
      <point x="704" y="841"/>
      <point x="560" y="841" type="qcurve" smooth="yes"/>
      <point x="462" y="841"/>
      <point x="337" y="750"/>
      <point x="276" y="593"/>
      <point x="276" y="494" type="qcurve" smooth="yes"/>
      <point x="276" y="342"/>
      <point x="414" y="150"/>
    </contour>
  </outline>
</glyph>
<glyph name="Scedilla" format="2">
  <advance width="1123"/>
  <unicode hex="015E"/>
  <outline>
    <contour>
      <point x="521" y="-513" type="qcurve" smooth="yes"/>
      <point x="456" y="-513"/>
      <point x="355" y="-440"/>
      <point x="333" y="-386" type="qcurve"/>
      <point x="449" y="-332" type="line"/>
      <point x="455" y="-357"/>
      <point x="498" y="-393"/>
      <point x="527" y="-393" type="qcurve" smooth="yes"/>
      <point x="569" y="-393"/>
      <point x="617" y="-342"/>
      <point x="617" y="-305" type="qcurve" smooth="yes"/>
      <point x="617" y="-259"/>
      <point x="528" y="-187"/>
      <point x="439" y="-187" type="qcurve" smooth="yes"/>
      <point x="385" y="-187" type="line"/>
      <point x="489" y="-10" type="line"/>
      <point x="335" y="10"/>
      <point x="98" y="201"/>
      <point x="65" y="379" type="qcurve"/>
      <point x="262" y="432" type="line"/>
      <point x="279" y="295"/>
      <point x="459" y="165"/>
      <point x="580" y="165" type="qcurve" smooth="yes"/>
      <point x="696" y="165"/>
      <point x="842" y="275"/>
      <point x="842" y="383" type="qcurve" smooth="yes"/>
      <point x="842" y="455"/>
      <point x="802" y="505" type="qcurve" smooth="yes"/>
      <point x="765" y="551"/>
      <point x="643" y="621"/>
      <point x="538" y="664" type="qcurve" smooth="yes"/>
      <point x="416" y="715"/>
      <point x="265" y="802"/>
      <point x="159" y="950"/>
      <point x="159" y="1061" type="qcurve" smooth="yes"/>
      <point x="159" y="1179"/>
      <point x="273" y="1346"/>
      <point x="459" y="1434"/>
      <point x="569" y="1434" type="qcurve" smooth="yes"/>
      <point x="694" y="1434"/>
      <point x="908" y="1323"/>
      <point x="979" y="1201" type="qcurve"/>
      <point x="817" y="1098" type="line"/>
      <point x="774" y="1177"/>
      <point x="640" y="1255"/>
      <point x="564" y="1255" type="qcurve" smooth="yes"/>
      <point x="510" y="1255"/>
      <point x="417" y="1211"/>
      <point x="360" y="1130"/>
      <point x="360" y="1074" type="qcurve" smooth="yes"/>
      <point x="360" y="1008"/>
      <point x="433" y="920"/>
      <point x="550" y="856"/>
      <point x="650" y="815" type="qcurve" smooth="yes"/>
      <point x="776" y="764"/>
      <point x="932" y="674"/>
      <point x="1042" y="518"/>
      <point x="1042" y="400" type="qcurve" smooth="yes"/>
      <point x="1042" y="275"/>
      <point x="928" y="95"/>
      <point x="736" y="-7"/>
      <point x="616" y="-15" type="qcurve"/>
      <point x="553" y="-109" type="line"/>
      <point x="648" y="-118"/>
      <point x="741" y="-223"/>
      <point x="741" y="-297" type="qcurve" smooth="yes"/>
      <point x="741" y="-354"/>
      <point x="687" y="-452"/>
      <point x="588" y="-513"/>
    </contour>
  </outline>
</glyph>
<glyph name="tcedilla" format="2">
  <advance width="711"/>
  <unicode hex="0163"/>
  <outline>
    <contour>
      <point x="432" y="-513" type="qcurve" smooth="yes"/>
      <point x="367" y="-513"/>
      <point x="266" y="-440"/>
      <point x="244" y="-386" type="qcurve"/>
      <point x="360" y="-332" type="line"/>
      <point x="366" y="-357"/>
      <point x="409" y="-393"/>
      <point x="438" y="-393" type="qcurve" smooth="yes"/>
      <point x="480" y="-393"/>
      <point x="528" y="-342"/>
      <point x="528" y="-305" type="qcurve" smooth="yes"/>
      <point x="528" y="-259"/>
      <point x="439" y="-187"/>
      <point x="350" y="-187" type="qcurve" smooth="yes"/>
      <point x="296" y="-187" type="line"/>
      <point x="398" y="-13" type="line"/>
      <point x="293" y="8"/>
      <point x="194" y="160"/>
      <point x="194" y="270" type="qcurve" smooth="yes"/>
      <point x="194" y="838" type="line"/>
      <point x="35" y="838" type="line"/>
      <point x="35" y="999" type="line"/>
      <point x="197" y="999" type="line"/>
      <point x="197" y="1235" type="line"/>
      <point x="383" y="1391" type="line"/>
      <point x="383" y="999" type="line"/>
      <point x="641" y="999" type="line"/>
      <point x="641" y="838" type="line"/>
      <point x="383" y="838" type="line"/>
      <point x="383" y="290" type="line" smooth="yes"/>
      <point x="383" y="213"/>
      <point x="456" y="146"/>
      <point x="508" y="146" type="qcurve" smooth="yes"/>
      <point x="567" y="146"/>
      <point x="627" y="177" type="qcurve"/>
      <point x="627" y="5" type="line"/>
      <point x="589" y="-11"/>
      <point x="525" y="-17" type="qcurve"/>
      <point x="464" y="-109" type="line"/>
      <point x="559" y="-118"/>
      <point x="652" y="-223"/>
      <point x="652" y="-297" type="qcurve" smooth="yes"/>
      <point x="652" y="-354"/>
      <point x="598" y="-452"/>
      <point x="499" y="-513"/>
    </contour>
  </outline>
</glyph>
<glyph name="tcaron" format="2">
  <advance width="715"/>
  <unicode hex="0165"/>
  <outline>
    <contour>
      <point x="620" y="1123" type="line"/>
      <point x="504" y="1123" type="line"/>
      <point x="631" y="1534" type="line"/>
      <point x="855" y="1534" type="line"/>
    </contour>
    <contour>
      <point x="463" y="-20" type="qcurve" smooth="yes"/>
      <point x="368" y="-20"/>
      <point x="250" y="54"/>
      <point x="195" y="184"/>
      <point x="195" y="270" type="qcurve" smooth="yes"/>
      <point x="195" y="829" type="line"/>
      <point x="36" y="829" type="line"/>
      <point x="36" y="999" type="line"/>
      <point x="198" y="999" type="line"/>
      <point x="198" y="1235" type="line"/>
      <point x="384" y="1391" type="line"/>
      <point x="384" y="999" type="line"/>
      <point x="642" y="999" type="line"/>
      <point x="642" y="829" type="line"/>
      <point x="384" y="829" type="line"/>
      <point x="384" y="266" type="line" smooth="yes"/>
      <point x="384" y="150"/>
      <point x="485" y="150" type="qcurve" smooth="yes"/>
      <point x="548" y="150"/>
      <point x="622" y="173"/>
      <point x="628" y="177" type="qcurve"/>
      <point x="628" y="5" type="line"/>
      <point x="620" y="1"/>
      <point x="536" y="-20"/>
    </contour>
  </outline>
</glyph>
<glyph name="uogonek" format="2">
  <advance width="1140"/>
  <unicode hex="0173"/>
  <outline>
    <contour>
      <point x="853" y="-451" type="qcurve" smooth="yes"/>
      <point x="764" y="-451"/>
      <point x="638" y="-342"/>
      <point x="638" y="-246" type="qcurve" smooth="yes"/>
      <point x="638" y="-175"/>
      <point x="715" y="-67"/>
      <point x="800" y="-7"/>
      <point x="828" y="0" type="qcurve"/>
      <point x="788" y="0" type="line"/>
      <point x="788" y="145" type="line"/>
      <point x="745" y="74"/>
      <point x="586" y="-23"/>
      <point x="486" y="-23" type="qcurve" smooth="yes"/>
      <point x="362" y="-23"/>
      <point x="204" y="96"/>
      <point x="129" y="293"/>
      <point x="129" y="409" type="qcurve" smooth="yes"/>
      <point x="129" y="999" type="line"/>
      <point x="325" y="999" type="line"/>
      <point x="325" y="412" type="line" smooth="yes"/>
      <point x="325" y="154"/>
      <point x="521" y="154" type="qcurve" smooth="yes"/>
      <point x="592" y="154"/>
      <point x="714" y="223"/>
      <point x="788" y="363"/>
      <point x="788" y="470" type="qcurve" smooth="yes"/>
      <point x="788" y="999" type="line"/>
      <point x="983" y="999" type="line"/>
      <point x="983" y="0" type="line"/>
      <point x="955" y="-10"/>
      <point x="858" y="-62"/>
      <point x="765" y="-159"/>
      <point x="765" y="-222" type="qcurve" smooth="yes"/>
      <point x="765" y="-274"/>
      <point x="812" y="-320"/>
      <point x="845" y="-320" type="qcurve" smooth="yes"/>
      <point x="915" y="-320"/>
      <point x="958" y="-259" type="qcurve"/>
      <point x="1065" y="-333" type="line"/>
      <point x="988" y="-451"/>
    </contour>
  </outline>
</glyph>
<glyph name="florin" format="2">
  <advance width="1038"/>
  <unicode hex="0192"/>
  <outline>
    <contour>
      <point x="90" y="-457" type="qcurve"/>
      <point x="90" y="-289" type="line"/>
      <point x="218" y="-289"/>
      <point x="363" y="-228"/>
      <point x="428" y="-100"/>
      <point x="428" y="12" type="qcurve" smooth="yes"/>
      <point x="428" y="834" type="line"/>
      <point x="250" y="834" type="line"/>
      <point x="250" y="999" type="line"/>
      <point x="428" y="999" type="line"/>
      <point x="428" y="1144" type="line" smooth="yes"/>
      <point x="428" y="1236"/>
      <point x="507" y="1373"/>
      <point x="636" y="1449"/>
      <point x="711" y="1449" type="qcurve" smooth="yes"/>
      <point x="827" y="1449"/>
      <point x="932" y="1359" type="qcurve"/>
      <point x="823" y="1231" type="line"/>
      <point x="767" y="1281"/>
      <point x="711" y="1281" type="qcurve" smooth="yes"/>
      <point x="665" y="1281"/>
      <point x="596" y="1215"/>
      <point x="596" y="1144" type="qcurve" smooth="yes"/>
      <point x="596" y="999" type="line"/>
      <point x="901" y="999" type="line"/>
      <point x="901" y="834" type="line"/>
      <point x="596" y="834" type="line"/>
      <point x="596" y="12" type="line" smooth="yes"/>
      <point x="596" y="-217"/>
      <point x="329" y="-457"/>
    </contour>
  </outline>
</glyph>
<glyph name="clickretroflex" format="2">
  <advance width="622"/>
  <unicode hex="01C3"/>
  <outline>
    <contour>
      <point x="384" y="402" type="line"/>
      <point x="238" y="402" type="line"/>
      <point x="209" y="1434" type="line"/>
      <point x="413" y="1434" type="line"/>
    </contour>
    <contour>
      <point x="425" y="0" type="line"/>
      <point x="197" y="0" type="line"/>
      <point x="197" y="226" type="line"/>
      <point x="425" y="226" type="line"/>
    </contour>
  </outline>
</glyph>
<glyph name="oogonek" format="2">
  <advance width="1123"/>
  <unicode hex="01EB"/>
  <outline>
    <contour>
      <point x="568" y="-451" type="qcurve" smooth="yes"/>
      <point x="479" y="-451"/>
      <point x="353" y="-342"/>
      <point x="353" y="-246" type="qcurve" smooth="yes"/>
      <point x="353" y="-165"/>
      <point x="446" y="-49"/>
      <point x="505" y="-17" type="qcurve"/>
      <point x="300" y="9"/>
      <point x="69" y="301"/>
      <point x="69" y="496" type="qcurve" smooth="yes"/>
      <point x="69" y="632"/>
      <point x="188" y="869"/>
      <point x="305" y="943" type="qcurve"/>
      <point x="417" y="1012"/>
      <point x="561" y="1012" type="qcurve" smooth="yes"/>
      <point x="711" y="1012"/>
      <point x="932" y="869"/>
      <point x="1053" y="634"/>
      <point x="1053" y="496" type="qcurve" smooth="yes"/>
      <point x="1053" y="313"/>
      <point x="853" y="39"/>
      <point x="684" y="-5" type="qcurve"/>
      <point x="480" y="-94"/>
      <point x="480" y="-222" type="qcurve" smooth="yes"/>
      <point x="480" y="-274"/>
      <point x="527" y="-320"/>
      <point x="560" y="-320" type="qcurve" smooth="yes"/>
      <point x="630" y="-320"/>
      <point x="673" y="-259" type="qcurve"/>
      <point x="780" y="-333" type="line"/>
      <point x="703" y="-451"/>
    </contour>
    <contour>
      <point x="561" y="149" type="qcurve" smooth="yes"/>
      <point x="660" y="149"/>
      <point x="785" y="242"/>
      <point x="845" y="399"/>
      <point x="845" y="496" type="qcurve" smooth="yes"/>
      <point x="845" y="591"/>
      <point x="787" y="749"/>
      <point x="661" y="843"/>
      <point x="561" y="843" type="qcurve" smooth="yes"/>
      <point x="462" y="843"/>
      <point x="336" y="749"/>
      <point x="277" y="591"/>
      <point x="277" y="496" type="qcurve" smooth="yes"/>
      <point x="277" y="404"/>
      <point x="334" y="245"/>
      <point x="459" y="149"/>
    </contour>
  </outline>
</glyph>
<glyph name="dotlessj" format="2">
  <advance width="516"/>
  <unicode hex="0237"/>
  <outline>
    <contour>
      <point x="80" y="-438" type="qcurve" smooth="yes"/>
      <point x="41" y="-438"/>
      <point x="-47" y="-418"/>
      <point x="-79" y="-406" type="qcurve"/>
      <point x="-35" y="-242" type="line"/>
      <point x="25" y="-257"/>
      <point x="74" y="-257" type="qcurve" smooth="yes"/>
      <point x="122" y="-257"/>
      <point x="161" y="-199"/>
      <point x="161" y="-142" type="qcurve" smooth="yes"/>
      <point x="161" y="999" type="line"/>
      <point x="356" y="999" type="line"/>
      <point x="356" y="-134" type="line" smooth="yes"/>
      <point x="356" y="-271"/>
      <point x="217" y="-438"/>
    </contour>
  </outline>
</glyph>
<glyph name="oopen" format="2">
  <advance width="984"/>
  <unicode hex="0254"/>
  <outline>
    <contour>
      <point x="458" y="-20" type="qcurve" smooth="yes"/>
      <point x="311" y="-20"/>
      <point x="102" y="129"/>
      <point x="48" y="255" type="qcurve"/>
      <point x="232" y="329" type="line"/>
      <point x="254" y="250"/>
      <point x="372" y="155"/>
      <point x="458" y="155" type="qcurve" smooth="yes"/>
      <point x="549" y="155"/>
      <point x="663" y="253"/>
      <point x="716" y="410"/>
      <point x="716" y="498" type="qcurve" smooth="yes"/>
      <point x="716" y="586"/>
      <point x="665" y="742"/>
      <point x="551" y="840"/>
      <point x="458" y="840" type="qcurve" smooth="yes"/>
      <point x="372" y="840"/>
      <point x="254" y="745"/>
      <point x="232" y="666" type="qcurve"/>
      <point x="60" y="735" type="line"/>
      <point x="108" y="869"/>
      <point x="313" y="1016"/>
      <point x="456" y="1016" type="qcurve" smooth="yes"/>
      <point x="570" y="1016"/>
      <point x="741" y="932"/>
      <point x="856" y="787"/>
      <point x="913" y="601"/>
      <point x="913" y="498" type="qcurve" smooth="yes"/>
      <point x="913" y="366"/>
      <point x="815" y="128"/>
      <point x="708" y="52" type="qcurve" smooth="yes"/>
      <point x="605" y="-20"/>
    </contour>
  </outline>
</glyph>
<glyph name="ereversed" format="2">
  <advance width="1042"/>
  <unicode hex="0258"/>
  <outline>
    <contour>
      <point x="496" y="-12" type="qcurve" smooth="yes"/>
      <point x="368" y="-12"/>
      <point x="177" y="68"/>
      <point x="99" y="151" type="qcurve"/>
      <point x="232" y="265" type="line"/>
      <point x="283" y="211"/>
      <point x="406" y="164"/>
      <point x="499" y="164" type="qcurve" smooth="yes"/>
      <point x="625" y="164"/>
      <point x="760" y="314"/>
      <point x="766" y="436" type="qcurve"/>
      <point x="75" y="436" type="line"/>
      <point x="69" y="469"/>
      <point x="69" y="489" type="qcurve" smooth="yes"/>
      <point x="69" y="718"/>
      <point x="275" y="1012"/>
      <point x="514" y="1012" type="qcurve" smooth="yes"/>
      <point x="629" y="1012"/>
      <point x="800" y="928"/>
      <point x="914" y="783"/>
      <point x="971" y="597"/>
      <point x="971" y="494" type="qcurve" smooth="yes"/>
      <point x="971" y="362"/>
      <point x="868" y="130"/>
      <point x="756" y="57" type="qcurve" smooth="yes"/>
      <point x="649" y="-12"/>
    </contour>
    <contour>
      <point x="766" y="584" type="line"/>
      <point x="760" y="659"/>
      <point x="702" y="776"/>
      <point x="594" y="845"/>
      <point x="514" y="845" type="qcurve" smooth="yes"/>
      <point x="429" y="845"/>
      <point x="318" y="780"/>
      <point x="261" y="663"/>
      <point x="257" y="584" type="qcurve"/>
    </contour>
  </outline>
</glyph>
<glyph name="schwa" format="2">
  <advance width="1042"/>
  <unicode hex="0259"/>
  <outline>
    <contour>
      <point x="514" y="-12" type="qcurve" smooth="yes"/>
      <point x="275" y="-12"/>
      <point x="69" y="282"/>
      <point x="69" y="511" type="qcurve" smooth="yes"/>
      <point x="69" y="541"/>
      <point x="74" y="557" type="qcurve"/>
      <point x="75" y="564" type="line"/>
      <point x="766" y="564" type="line"/>
      <point x="760" y="686"/>
      <point x="625" y="836"/>
      <point x="499" y="836" type="qcurve" smooth="yes"/>
      <point x="406" y="836"/>
      <point x="283" y="790"/>
      <point x="232" y="736" type="qcurve"/>
      <point x="99" y="848" type="line"/>
      <point x="177" y="931"/>
      <point x="368" y="1012"/>
      <point x="496" y="1012" type="qcurve" smooth="yes"/>
      <point x="653" y="1012"/>
      <point x="864" y="873"/>
      <point x="971" y="643"/>
      <point x="971" y="506" type="qcurve" smooth="yes"/>
      <point x="971" y="373"/>
      <point x="873" y="136"/>
      <point x="766" y="60" type="qcurve"/>
      <point x="662" y="-12"/>
    </contour>
    <contour>
      <point x="514" y="154" type="qcurve" smooth="yes"/>
      <point x="630" y="154"/>
      <point x="756" y="300"/>
      <point x="766" y="416" type="qcurve"/>
      <point x="257" y="416" type="line"/>
      <point x="261" y="337"/>
      <point x="318" y="220"/>
      <point x="429" y="154"/>
    </contour>
  </outline>
</glyph>
<glyph name="colontriangularmod" format="2">
  <advance width="545"/>
  <unicode hex="02D0"/>
  <outline>
    <contour>
      <point x="283" y="583" type="line"/>
      <point x="43" y="999" type="line"/>
      <point x="492" y="1019" type="line"/>
    </contour>
    <contour>
      <point x="53" y="-20" type="line"/>
      <point x="262" y="416" type="line"/>
      <point x="503" y="0" type="line"/>
    </contour>
  </outline>
</glyph>
<glyph name="colontriangularhalfmod" format="2">
  <advance width="557"/>
  <unicode hex="02D1"/>
  <outline>
    <contour>
      <point x="289" y="240" type="line"/>
      <point x="49" y="657" type="line"/>
      <point x="499" y="677" type="line"/>
    </contour>
  </outline>
</glyph>
<glyph name="tildecmb" format="2">
  <unicode hex="0303"/>
  <anchor x="-431" y="1010" name="_t.ringcmb_1"/>
  <outline>
    <contour>
      <point x="-308" y="1139" type="qcurve" smooth="yes"/>
      <point x="-361" y="1139"/>
      <point x="-437" y="1185"/>
      <point x="-478" y="1231" type="qcurve" smooth="yes"/>
      <point x="-506" y="1261"/>
      <point x="-544" y="1289"/>
      <point x="-565" y="1289" type="qcurve" smooth="yes"/>
      <point x="-601" y="1289"/>
      <point x="-633" y="1212"/>
      <point x="-633" y="1152" type="qcurve"/>
      <point x="-751" y="1152" type="line"/>
      <point x="-751" y="1270"/>
      <point x="-655" y="1419"/>
      <point x="-562" y="1419" type="qcurve" smooth="yes"/>
      <point x="-506" y="1419"/>
      <point x="-430" y="1368"/>
      <point x="-391" y="1325" type="qcurve" smooth="yes"/>
      <point x="-363" y="1295"/>
      <point x="-326" y="1268"/>
      <point x="-306" y="1268" type="qcurve" smooth="yes"/>
      <point x="-272" y="1268"/>
      <point x="-239" y="1346"/>
      <point x="-239" y="1413" type="qcurve"/>
      <point x="-115" y="1413" type="line"/>
      <point x="-115" y="1276"/>
      <point x="-221" y="1139"/>
    </contour>
  </outline>
</glyph>
<glyph name="uni0326" format="2">
  <unicode hex="0326"/>
  <anchor x="-175" y="0" name="_b.uni0326"/>
  <anchor x="-175" y="0" name="_b.uni0326_2"/>
  <anchor x="-239" y="-452" name="b.uni0326_2"/>
  <outline>
    <contour>
      <point x="-285" y="-452" type="line"/>
      <point x="-408" y="-452" type="line"/>
      <point x="-279" y="-109" type="line"/>
      <point x="-48" y="-109" type="line"/>
    </contour>
  </outline>
</glyph>
<glyph name="cedillacmb" format="2">
  <unicode hex="0327"/>
  <anchor x="-273" y="0" name="_b.uni0326"/>
  <anchor x="-273" y="0" name="_b.uni0326_2"/>
  <anchor x="-294" y="-500" name="b.uni0326_2"/>
  <outline>
    <contour>
      <point x="-309" y="-513" type="qcurve" smooth="yes"/>
      <point x="-374" y="-513"/>
      <point x="-475" y="-440"/>
      <point x="-497" y="-386" type="qcurve"/>
      <point x="-381" y="-332" type="line"/>
      <point x="-375" y="-357"/>
      <point x="-332" y="-393"/>
      <point x="-303" y="-393" type="qcurve" smooth="yes"/>
      <point x="-261" y="-393"/>
      <point x="-213" y="-342"/>
      <point x="-213" y="-305" type="qcurve" smooth="yes"/>
      <point x="-213" y="-259"/>
      <point x="-302" y="-187"/>
      <point x="-391" y="-187" type="qcurve" smooth="yes"/>
      <point x="-445" y="-187" type="line"/>
      <point x="-336" y="-1" type="line"/>
      <point x="-205" y="-1" type="line"/>
      <point x="-277" y="-109" type="line"/>
      <point x="-182" y="-118"/>
      <point x="-89" y="-223"/>
      <point x="-89" y="-297" type="qcurve" smooth="yes"/>
      <point x="-89" y="-354"/>
      <point x="-143" y="-452"/>
      <point x="-242" y="-513"/>
    </contour>
  </outline>
</glyph>
<glyph name="afii10051" format="2">
  <advance width="1621"/>
  <unicode hex="0402"/>
  <outline>
    <contour>
      <point x="1118" y="-19" type="qcurve" smooth="yes"/>
      <point x="1030" y="-19"/>
      <point x="856" y="52"/>
      <point x="799" y="108" type="qcurve"/>
      <point x="910" y="247" type="line"/>
      <point x="981" y="170"/>
      <point x="1096" y="170" type="qcurve" smooth="yes"/>
      <point x="1204" y="170"/>
      <point x="1330" y="318"/>
      <point x="1330" y="435" type="qcurve" smooth="yes"/>
      <point x="1330" y="568"/>
      <point x="1269" y="726"/>
      <point x="1205" y="765" type="qcurve" smooth="yes"/>
      <point x="1136" y="806"/>
      <point x="1017" y="806" type="qcurve" smooth="yes"/>
      <point x="910" y="806"/>
      <point x="752" y="729"/>
      <point x="706" y="673" type="qcurve"/>
      <point x="706" y="0" type="line"/>
      <point x="503" y="0" type="line"/>
      <point x="503" y="1237" type="line"/>
      <point x="41" y="1237" type="line"/>
      <point x="41" y="1412" type="line"/>
      <point x="1167" y="1412" type="line"/>
      <point x="1167" y="1237" type="line"/>
      <point x="706" y="1237" type="line"/>
      <point x="706" y="901" type="line"/>
      <point x="770" y="947"/>
      <point x="927" y="1001"/>
      <point x="1017" y="1001" type="qcurve" smooth="yes"/>
      <point x="1281" y="1001"/>
      <point x="1534" y="714"/>
      <point x="1534" y="445" type="qcurve" smooth="yes"/>
      <point x="1534" y="296"/>
      <point x="1428" y="89"/>
      <point x="1241" y="-19"/>
    </contour>
  </outline>
</glyph>
<glyph name="afii10052" format="2">
  <advance width="1067"/>
  <unicode hex="0403"/>
  <outline>
    <contour>
      <point x="606" y="1537" type="line"/>
      <point x="460" y="1537" type="line"/>
      <point x="679" y="1826" type="line"/>
      <point x="892" y="1826" type="line"/>
    </contour>
    <contour>
      <point x="401" y="0" type="line"/>
      <point x="198" y="0" type="line"/>
      <point x="198" y="1412" type="line"/>
      <point x="1025" y="1412" type="line"/>
      <point x="1025" y="1231" type="line"/>
      <point x="401" y="1231" type="line"/>
    </contour>
  </outline>
</glyph>
<glyph name="afii10055" format="2">
  <advance width="599"/>
  <unicode hex="0406"/>
  <outline>
    <contour>
      <point x="401" y="0" type="line"/>
      <point x="198" y="0" type="line"/>
      <point x="198" y="1412" type="line"/>
      <point x="401" y="1412" type="line"/>
    </contour>
  </outline>
</glyph>
<glyph name="afii10058" format="2">
  <advance width="1980"/>
  <unicode hex="0409"/>
  <outline>
    <contour>
      <point x="221" y="-20" type="qcurve" smooth="yes"/>
      <point x="120" y="-20"/>
      <point x="32" y="31" type="qcurve"/>
      <point x="98" y="196" type="line"/>
      <point x="160" y="173"/>
      <point x="210" y="173" type="qcurve" smooth="yes"/>
      <point x="284" y="173"/>
      <point x="344" y="621"/>
      <point x="344" y="887" type="qcurve" smooth="yes"/>
      <point x="344" y="1412" type="line"/>
      <point x="1222" y="1412" type="line"/>
      <point x="1222" y="799" type="line"/>
      <point x="1439" y="799" type="line" smooth="yes"/>
      <point x="1573" y="799"/>
      <point x="1789" y="711"/>
      <point x="1853" y="618" type="qcurve"/>
      <point x="1912" y="528"/>
      <point x="1912" y="403" type="qcurve" smooth="yes"/>
      <point x="1912" y="274"/>
      <point x="1790" y="94"/>
      <point x="1577" y="0"/>
      <point x="1439" y="0" type="qcurve" smooth="yes"/>
      <point x="1021" y="0" type="line"/>
      <point x="1021" y="1231" type="line"/>
      <point x="547" y="1231" type="line"/>
      <point x="547" y="888" type="line" smooth="yes"/>
      <point x="547" y="645"/>
      <point x="511" y="269"/>
      <point x="368" y="-20"/>
    </contour>
    <contour>
      <point x="1439" y="186" type="line" smooth="yes"/>
      <point x="1579" y="186"/>
      <point x="1713" y="304"/>
      <point x="1713" y="403" type="qcurve" smooth="yes"/>
      <point x="1713" y="504"/>
      <point x="1578" y="613"/>
      <point x="1439" y="613" type="qcurve" smooth="yes"/>
      <point x="1222" y="613" type="line"/>
      <point x="1222" y="186" type="line"/>
    </contour>
  </outline>
</glyph>
<glyph name="afii10060" format="2">
  <advance width="1643"/>
  <unicode hex="040B"/>
  <outline>
    <contour>
      <point x="1534" y="0" type="line"/>
      <point x="1330" y="0" type="line"/>
      <point x="1330" y="401" type="line" smooth="yes"/>
      <point x="1330" y="533"/>
      <point x="1271" y="713"/>
      <point x="1134" y="806"/>
      <point x="1017" y="806" type="qcurve" smooth="yes"/>
      <point x="910" y="806"/>
      <point x="752" y="729"/>
      <point x="706" y="673" type="qcurve"/>
      <point x="706" y="0" type="line"/>
      <point x="503" y="0" type="line"/>
      <point x="503" y="1237" type="line"/>
      <point x="41" y="1237" type="line"/>
      <point x="41" y="1412" type="line"/>
      <point x="1167" y="1412" type="line"/>
      <point x="1167" y="1237" type="line"/>
      <point x="706" y="1237" type="line"/>
      <point x="706" y="901" type="line"/>
      <point x="834" y="1001"/>
      <point x="1017" y="1001" type="qcurve" smooth="yes"/>
      <point x="1280" y="1001"/>
      <point x="1534" y="687"/>
      <point x="1534" y="412" type="qcurve" smooth="yes"/>
    </contour>
  </outline>
</glyph>
<glyph name="afii10020" format="2">
  <advance width="1067"/>
  <unicode hex="0413"/>
  <outline>
    <contour>
      <point x="401" y="0" type="line"/>
      <point x="198" y="0" type="line"/>
      <point x="198" y="1412" type="line"/>
      <point x="1025" y="1412" type="line"/>
      <point x="1025" y="1231" type="line"/>
      <point x="401" y="1231" type="line"/>
    </contour>
  </outline>
</glyph>
<glyph name="afii10021" format="2">
  <advance width="1469"/>
  <unicode hex="0414"/>
  <outline>
    <contour>
      <point x="1427" y="-278" type="line"/>
      <point x="1225" y="-278" type="line"/>
      <point x="1225" y="0" type="line"/>
      <point x="244" y="0" type="line"/>
      <point x="244" y="-278" type="line"/>
      <point x="41" y="-278" type="line"/>
      <point x="41" y="174" type="line"/>
      <point x="177" y="174" type="line"/>
      <point x="652" y="1413" type="line"/>
      <point x="814" y="1413" type="line"/>
      <point x="1291" y="174" type="line"/>
      <point x="1427" y="174" type="line"/>
    </contour>
    <contour>
      <point x="1074" y="174" type="line"/>
      <point x="733" y="1109" type="line"/>
      <point x="392" y="174" type="line"/>
    </contour>
  </outline>
</glyph>
<glyph name="afii10025" format="2">
  <advance width="1113"/>
  <unicode hex="0417"/>
  <outline>
    <contour>
      <point x="513" y="-20" type="qcurve" smooth="yes"/>
      <point x="371" y="-20"/>
      <point x="130" y="88"/>
      <point x="66" y="201" type="qcurve"/>
      <point x="230" y="310" type="line"/>
      <point x="266" y="229"/>
      <point x="418" y="156"/>
      <point x="513" y="156" type="qcurve" smooth="yes"/>
      <point x="591" y="156"/>
      <point x="726" y="213"/>
      <point x="810" y="327"/>
      <point x="810" y="414" type="qcurve" smooth="yes"/>
      <point x="810" y="497"/>
      <point x="730" y="607"/>
      <point x="595" y="662"/>
      <point x="513" y="662" type="qcurve" smooth="yes"/>
      <point x="363" y="662" type="line"/>
      <point x="361" y="838" type="line"/>
      <point x="519" y="838" type="line" smooth="yes"/>
      <point x="616" y="838"/>
      <point x="749" y="943"/>
      <point x="749" y="1040" type="qcurve" smooth="yes"/>
      <point x="749" y="1108"/>
      <point x="686" y="1203"/>
      <point x="581" y="1253"/>
      <point x="517" y="1253" type="qcurve" smooth="yes"/>
      <point x="434" y="1253"/>
      <point x="298" y="1162"/>
      <point x="289" y="1074" type="qcurve"/>
      <point x="90" y="1074" type="line"/>
      <point x="101" y="1249"/>
      <point x="351" y="1434"/>
      <point x="515" y="1434" type="qcurve" smooth="yes"/>
      <point x="624" y="1434"/>
      <point x="819" y="1349"/>
      <point x="881" y="1260" type="qcurve" smooth="yes"/>
      <point x="939" y="1175"/>
      <point x="939" y="1060" type="qcurve" smooth="yes"/>
      <point x="939" y="961"/>
      <point x="851" y="806"/>
      <point x="768" y="763" type="qcurve"/>
      <point x="838" y="738"/>
      <point x="947" y="641"/>
      <point x="1011" y="496"/>
      <point x="1011" y="399" type="qcurve" smooth="yes"/>
      <point x="1011" y="258"/>
      <point x="874" y="72"/>
      <point x="647" y="-20"/>
    </contour>
  </outline>
</glyph>
<glyph name="afii10026" format="2">
  <advance width="1435"/>
  <unicode hex="0418"/>
  <outline>
    <contour>
      <point x="1237" y="0" type="line"/>
      <point x="1039" y="0" type="line"/>
      <point x="1039" y="1127" type="line"/>
      <point x="441" y="0" type="line"/>
      <point x="198" y="0" type="line"/>
      <point x="198" y="1413" type="line"/>
      <point x="396" y="1413" type="line"/>
      <point x="396" y="288" type="line"/>
      <point x="997" y="1413" type="line"/>
      <point x="1237" y="1413" type="line"/>
    </contour>
  </outline>
</glyph>
<glyph name="afii10034" format="2">
  <advance width="1157"/>
  <unicode hex="0420"/>
  <outline>
    <contour>
      <point x="400" y="0" type="line"/>
      <point x="198" y="0" type="line"/>
      <point x="198" y="1412" type="line"/>
      <point x="616" y="1412" type="line" smooth="yes"/>
      <point x="752" y="1412"/>
      <point x="966" y="1321"/>
      <point x="1090" y="1142"/>
      <point x="1090" y="1010" type="qcurve" smooth="yes"/>
      <point x="1090" y="882"/>
      <point x="969" y="705"/>
      <point x="756" y="613"/>
      <point x="616" y="613" type="qcurve" smooth="yes"/>
      <point x="400" y="613" type="line"/>
    </contour>
    <contour>
      <point x="616" y="800" type="line" smooth="yes"/>
      <point x="755" y="800"/>
      <point x="890" y="909"/>
      <point x="890" y="1010" type="qcurve" smooth="yes"/>
      <point x="890" y="1108"/>
      <point x="756" y="1227"/>
      <point x="616" y="1227" type="qcurve" smooth="yes"/>
      <point x="400" y="1227" type="line"/>
      <point x="400" y="800" type="line"/>
    </contour>
  </outline>
</glyph>
<glyph name="afii10036" format="2">
  <advance width="1208"/>
  <unicode hex="0422"/>
  <outline>
    <contour>
      <point x="705" y="0" type="line"/>
      <point x="503" y="0" type="line"/>
      <point x="503" y="1237" type="line"/>
      <point x="41" y="1237" type="line"/>
      <point x="41" y="1412" type="line"/>
      <point x="1167" y="1412" type="line"/>
      <point x="1167" y="1237" type="line"/>
      <point x="705" y="1237" type="line"/>
    </contour>
  </outline>
</glyph>
<glyph name="afii10037" format="2">
  <advance width="1113"/>
  <unicode hex="0423"/>
  <outline>
    <contour>
      <point x="457" y="0" type="line"/>
      <point x="242" y="0" type="line"/>
      <point x="437" y="457" type="line"/>
      <point x="39" y="1412" type="line"/>
      <point x="257" y="1412" type="line"/>
      <point x="544" y="676" type="line"/>
      <point x="854" y="1412" type="line"/>
      <point x="1073" y="1412" type="line"/>
    </contour>
  </outline>
</glyph>
<glyph name="afii10038" format="2">
  <advance width="1733"/>
  <unicode hex="0424"/>
  <outline>
    <contour>
      <point x="968" y="0" type="line"/>
      <point x="765" y="0" type="line"/>
      <point x="765" y="109" type="line"/>
      <point x="538" y="109"/>
      <point x="248" y="257"/>
      <point x="178" y="386" type="qcurve"/>
      <point x="104" y="519"/>
      <point x="104" y="705" type="qcurve" smooth="yes"/>
      <point x="104" y="884"/>
      <point x="247" y="1159"/>
      <point x="401" y="1238" type="qcurve"/>
      <point x="549" y="1312"/>
      <point x="765" y="1312" type="qcurve"/>
      <point x="765" y="1412" type="line"/>
      <point x="968" y="1412" type="line"/>
      <point x="968" y="1312" type="line"/>
      <point x="1194" y="1312"/>
      <point x="1484" y="1160"/>
      <point x="1555" y="1028" type="qcurve" smooth="yes"/>
      <point x="1629" y="892"/>
      <point x="1629" y="705" type="qcurve" smooth="yes"/>
      <point x="1629" y="523"/>
      <point x="1485" y="255"/>
      <point x="1192" y="109"/>
      <point x="968" y="109" type="qcurve"/>
    </contour>
    <contour>
      <point x="765" y="292" type="qcurve"/>
      <point x="765" y="1129" type="line"/>
      <point x="608" y="1129"/>
      <point x="408" y="1024"/>
      <point x="312" y="833"/>
      <point x="312" y="705" type="qcurve" smooth="yes"/>
      <point x="312" y="578"/>
      <point x="408" y="393"/>
      <point x="608" y="292"/>
    </contour>
    <contour>
      <point x="968" y="292" type="line"/>
      <point x="1124" y="292"/>
      <point x="1325" y="393"/>
      <point x="1421" y="578"/>
      <point x="1421" y="705" type="qcurve" smooth="yes"/>
      <point x="1421" y="833"/>
      <point x="1324" y="1024"/>
      <point x="1124" y="1129"/>
      <point x="968" y="1129" type="qcurve"/>
    </contour>
  </outline>
</glyph>
<glyph name="afii10066" format="2">
  <advance width="1157"/>
  <unicode hex="0431"/>
  <outline>
    <contour>
      <point x="596" y="-20" type="qcurve" smooth="yes"/>
      <point x="446" y="-20"/>
      <point x="230" y="112"/>
      <point x="113" y="344"/>
      <point x="113" y="494" type="qcurve" smooth="yes"/>
      <point x="113" y="751" type="line" smooth="yes"/>
      <point x="113" y="951"/>
      <point x="242" y="1180"/>
      <point x="332" y="1239" type="qcurve" smooth="yes"/>
      <point x="430" y="1304"/>
      <point x="688" y="1391"/>
      <point x="874" y="1434" type="qcurve"/>
      <point x="874" y="1244" type="line"/>
      <point x="736" y="1211"/>
      <point x="503" y="1136"/>
      <point x="447" y="1105" type="qcurve"/>
      <point x="364" y="1061"/>
      <point x="287" y="920"/>
      <point x="287" y="777" type="qcurve"/>
      <point x="341" y="856"/>
      <point x="527" y="960"/>
      <point x="649" y="960" type="qcurve" smooth="yes"/>
      <point x="793" y="960"/>
      <point x="987" y="833"/>
      <point x="1086" y="616"/>
      <point x="1086" y="483" type="qcurve" smooth="yes"/>
      <point x="1086" y="344"/>
      <point x="961" y="116"/>
      <point x="738" y="-20"/>
    </contour>
    <contour>
      <point x="596" y="144" type="qcurve" smooth="yes"/>
      <point x="690" y="144"/>
      <point x="814" y="232"/>
      <point x="875" y="381"/>
      <point x="875" y="473" type="qcurve" smooth="yes"/>
      <point x="875" y="616"/>
      <point x="739" y="794"/>
      <point x="596" y="794" type="qcurve" smooth="yes"/>
      <point x="503" y="794"/>
      <point x="379" y="700"/>
      <point x="318" y="553"/>
      <point x="318" y="473" type="qcurve" smooth="yes"/>
      <point x="318" y="327"/>
      <point x="454" y="144"/>
    </contour>
  </outline>
</glyph>
<glyph name="afii10070" format="2">
  <advance width="1051"/>
  <unicode hex="0435"/>
  <outline>
    <contour>
      <point x="547" y="-12" type="qcurve" smooth="yes"/>
      <point x="389" y="-12"/>
      <point x="179" y="128"/>
      <point x="74" y="358"/>
      <point x="74" y="494" type="qcurve" smooth="yes"/>
      <point x="74" y="625"/>
      <point x="173" y="862"/>
      <point x="280" y="940" type="qcurve"/>
      <point x="383" y="1012"/>
      <point x="530" y="1012" type="qcurve" smooth="yes"/>
      <point x="768" y="1012"/>
      <point x="976" y="718"/>
      <point x="976" y="491" type="qcurve" smooth="yes"/>
      <point x="976" y="463"/>
      <point x="970" y="436" type="qcurve"/>
      <point x="279" y="436" type="line"/>
      <point x="282" y="361"/>
      <point x="341" y="239"/>
      <point x="457" y="165"/>
      <point x="545" y="165" type="qcurve" smooth="yes"/>
      <point x="639" y="165"/>
      <point x="762" y="210"/>
      <point x="812" y="263" type="qcurve"/>
      <point x="946" y="150" type="line"/>
      <point x="867" y="68"/>
      <point x="677" y="-12"/>
    </contour>
    <contour>
      <point x="788" y="583" type="line"/>
      <point x="785" y="662"/>
      <point x="728" y="779"/>
      <point x="616" y="845"/>
      <point x="530" y="845" type="qcurve" smooth="yes"/>
      <point x="450" y="845"/>
      <point x="343" y="776"/>
      <point x="285" y="658"/>
      <point x="279" y="583" type="qcurve"/>
    </contour>
  </outline>
</glyph>
<glyph name="afii10072" format="2">
  <advance width="1478"/>
  <unicode hex="0436"/>
  <outline>
    <contour>
      <point x="1448" y="0" type="line"/>
      <point x="1221" y="0" type="line"/>
      <point x="1100" y="356" type="line" smooth="yes"/>
      <point x="1077" y="422"/>
      <point x="1006" y="484"/>
      <point x="952" y="484" type="qcurve" smooth="yes"/>
      <point x="836" y="484" type="line"/>
      <point x="836" y="0" type="line"/>
      <point x="642" y="0" type="line"/>
      <point x="642" y="484" type="line"/>
      <point x="526" y="484" type="line" smooth="yes"/>
      <point x="419" y="484"/>
      <point x="379" y="356" type="qcurve"/>
      <point x="257" y="0" type="line"/>
      <point x="29" y="0" type="line"/>
      <point x="199" y="444" type="line" smooth="yes"/>
      <point x="223" y="505"/>
      <point x="309" y="604"/>
      <point x="360" y="604" type="qcurve"/>
      <point x="87" y="999" type="line"/>
      <point x="316" y="999" type="line"/>
      <point x="543" y="635" type="line"/>
      <point x="642" y="635" type="line"/>
      <point x="642" y="1412" type="line"/>
      <point x="836" y="1412" type="line"/>
      <point x="836" y="635" type="line"/>
      <point x="935" y="635" type="line"/>
      <point x="1162" y="999" type="line"/>
      <point x="1392" y="999" type="line"/>
      <point x="1119" y="604" type="line"/>
      <point x="1169" y="604"/>
      <point x="1253" y="505"/>
      <point x="1279" y="444" type="qcurve"/>
    </contour>
  </outline>
</glyph>
<glyph name="afii10073" format="2">
  <advance width="968"/>
  <unicode hex="0437"/>
  <outline>
    <contour>
      <point x="414" y="-450" type="qcurve" smooth="yes"/>
      <point x="286" y="-450"/>
      <point x="74" y="-345"/>
      <point x="1" y="-238" type="qcurve"/>
      <point x="160" y="-120" type="line"/>
      <point x="194" y="-196"/>
      <point x="329" y="-273"/>
      <point x="407" y="-273" type="qcurve" smooth="yes"/>
      <point x="540" y="-273"/>
      <point x="689" y="-115"/>
      <point x="689" y="14" type="qcurve" smooth="yes"/>
      <point x="689" y="142"/>
      <point x="560" y="272"/>
      <point x="461" y="272" type="qcurve" smooth="yes"/>
      <point x="266" y="272" type="line"/>
      <point x="266" y="442" type="line"/>
      <point x="487" y="442" type="line"/>
      <point x="571" y="453"/>
      <point x="654" y="562"/>
      <point x="654" y="635" type="qcurve" smooth="yes"/>
      <point x="654" y="742"/>
      <point x="530" y="838"/>
      <point x="427" y="838" type="qcurve" smooth="yes"/>
      <point x="268" y="838"/>
      <point x="177" y="666" type="qcurve"/>
      <point x="5" y="751" type="line"/>
      <point x="63" y="880"/>
      <point x="268" y="1012"/>
      <point x="425" y="1012" type="qcurve" smooth="yes"/>
      <point x="539" y="1012"/>
      <point x="731" y="933"/>
      <point x="846" y="771"/>
      <point x="846" y="646" type="qcurve" smooth="yes"/>
      <point x="846" y="564"/>
      <point x="756" y="406"/>
      <point x="663" y="367" type="qcurve"/>
      <point x="781" y="335"/>
      <point x="890" y="138"/>
      <point x="890" y="6" type="qcurve" smooth="yes"/>
      <point x="890" y="-140"/>
      <point x="762" y="-344"/>
      <point x="546" y="-450"/>
    </contour>
  </outline>
</glyph>
<glyph name="afii10074" format="2">
  <advance width="1140"/>
  <unicode hex="0438"/>
  <outline>
    <contour>
      <point x="486" y="-23" type="qcurve" smooth="yes"/>
      <point x="362" y="-23"/>
      <point x="204" y="96"/>
      <point x="129" y="293"/>
      <point x="129" y="409" type="qcurve" smooth="yes"/>
      <point x="129" y="999" type="line"/>
      <point x="325" y="999" type="line"/>
      <point x="325" y="412" type="line" smooth="yes"/>
      <point x="325" y="154"/>
      <point x="521" y="154" type="qcurve" smooth="yes"/>
      <point x="592" y="154"/>
      <point x="714" y="223"/>
      <point x="788" y="363"/>
      <point x="788" y="470" type="qcurve" smooth="yes"/>
      <point x="788" y="999" type="line"/>
      <point x="983" y="999" type="line"/>
      <point x="983" y="0" type="line"/>
      <point x="788" y="0" type="line"/>
      <point x="788" y="145" type="line"/>
      <point x="745" y="74"/>
      <point x="586" y="-23"/>
    </contour>
  </outline>
</glyph>
<glyph name="afii10075" format="2">
  <advance width="1168"/>
  <unicode hex="0439"/>
  <outline>
    <contour>
      <point x="581" y="1143" type="qcurve" smooth="yes"/>
      <point x="489" y="1143"/>
      <point x="350" y="1202"/>
      <point x="273" y="1322"/>
      <point x="273" y="1413" type="qcurve"/>
      <point x="418" y="1413" type="line"/>
      <point x="418" y="1343"/>
      <point x="515" y="1266"/>
      <point x="581" y="1266" type="qcurve" smooth="yes"/>
      <point x="648" y="1266"/>
      <point x="743" y="1343"/>
      <point x="743" y="1413" type="qcurve"/>
      <point x="889" y="1413" type="line"/>
      <point x="889" y="1321"/>
      <point x="811" y="1202"/>
      <point x="672" y="1143"/>
    </contour>
    <contour>
      <point x="514" y="-23" type="qcurve" smooth="yes"/>
      <point x="390" y="-23"/>
      <point x="232" y="96"/>
      <point x="158" y="292"/>
      <point x="158" y="408" type="qcurve" smooth="yes"/>
      <point x="158" y="999" type="line"/>
      <point x="353" y="999" type="line"/>
      <point x="353" y="413" type="line" smooth="yes"/>
      <point x="353" y="154"/>
      <point x="538" y="154" type="qcurve" smooth="yes"/>
      <point x="617" y="154"/>
      <point x="743" y="237"/>
      <point x="816" y="366"/>
      <point x="816" y="436" type="qcurve" smooth="yes"/>
      <point x="816" y="999" type="line"/>
      <point x="1011" y="999" type="line"/>
      <point x="1011" y="0" type="line"/>
      <point x="816" y="0" type="line"/>
      <point x="816" y="144" type="line"/>
      <point x="773" y="74"/>
      <point x="613" y="-23"/>
    </contour>
  </outline>
</glyph>
<glyph name="afii10078" format="2">
  <advance width="1430"/>
  <unicode hex="043C"/>
  <outline>
    <contour>
      <point x="1272" y="0" type="line"/>
      <point x="1089" y="0" type="line"/>
      <point x="1089" y="751" type="line"/>
      <point x="788" y="0" type="line"/>
      <point x="643" y="0" type="line"/>
      <point x="341" y="749" type="line"/>
      <point x="341" y="0" type="line"/>
      <point x="158" y="0" type="line"/>
      <point x="158" y="999" type="line"/>
      <point x="411" y="999" type="line"/>
      <point x="716" y="234" type="line"/>
      <point x="1017" y="1000" type="line"/>
      <point x="1272" y="1000" type="line"/>
    </contour>
  </outline>
</glyph>
<glyph name="afii10079" format="2">
  <advance width="1168"/>
  <unicode hex="043D"/>
  <outline>
    <contour>
      <point x="1011" y="0" type="line"/>
      <point x="815" y="0" type="line"/>
      <point x="815" y="478" type="line"/>
      <point x="354" y="478" type="line"/>
      <point x="354" y="0" type="line"/>
      <point x="158" y="0" type="line"/>
      <point x="158" y="999" type="line"/>
      <point x="354" y="999" type="line"/>
      <point x="354" y="626" type="line"/>
      <point x="815" y="626" type="line"/>
      <point x="815" y="999" type="line"/>
      <point x="1011" y="999" type="line"/>
    </contour>
  </outline>
</glyph>
<glyph name="afii10081" format="2">
  <advance width="1142"/>
  <unicode hex="043F"/>
  <outline>
    <contour>
      <point x="1011" y="0" type="line"/>
      <point x="815" y="0" type="line"/>
      <point x="815" y="581" type="line" smooth="yes"/>
      <point x="815" y="834"/>
      <point x="628" y="834" type="qcurve" smooth="yes"/>
      <point x="549" y="834"/>
      <point x="424" y="753"/>
      <point x="353" y="626"/>
      <point x="353" y="557" type="qcurve" smooth="yes"/>
      <point x="353" y="0" type="line"/>
      <point x="158" y="0" type="line"/>
      <point x="158" y="999" type="line"/>
      <point x="353" y="999" type="line"/>
      <point x="353" y="860" type="line"/>
      <point x="409" y="939"/>
      <point x="570" y="1016"/>
      <point x="654" y="1016" type="qcurve" smooth="yes"/>
      <point x="778" y="1016"/>
      <point x="936" y="903"/>
      <point x="1011" y="716"/>
      <point x="1011" y="605" type="qcurve" smooth="yes"/>
    </contour>
  </outline>
</glyph>
<glyph name="afii10082" format="2">
  <advance width="1137"/>
  <unicode hex="0440"/>
  <outline>
    <contour>
      <point x="353" y="-438" type="line"/>
      <point x="158" y="-438" type="line"/>
      <point x="158" y="999" type="line"/>
      <point x="353" y="999" type="line"/>
      <point x="353" y="879" type="line"/>
      <point x="456" y="1020"/>
      <point x="653" y="1020" type="qcurve" smooth="yes"/>
      <point x="786" y="1020"/>
      <point x="971" y="878"/>
      <point x="1067" y="641"/>
      <point x="1067" y="500" type="qcurve" smooth="yes"/>
      <point x="1067" y="363"/>
      <point x="973" y="124"/>
      <point x="875" y="50" type="qcurve" smooth="yes"/>
      <point x="781" y="-20"/>
      <point x="653" y="-20" type="qcurve" smooth="yes"/>
      <point x="554" y="-20"/>
      <point x="402" y="53"/>
      <point x="353" y="120" type="qcurve"/>
    </contour>
    <contour>
      <point x="604" y="155" type="qcurve" smooth="yes"/>
      <point x="693" y="155"/>
      <point x="811" y="247"/>
      <point x="869" y="403"/>
      <point x="869" y="499" type="qcurve" smooth="yes"/>
      <point x="869" y="590"/>
      <point x="814" y="749"/>
      <point x="698" y="847"/>
      <point x="604" y="847" type="qcurve" smooth="yes"/>
      <point x="514" y="847"/>
      <point x="398" y="754"/>
      <point x="342" y="596"/>
      <point x="342" y="499" type="qcurve" smooth="yes"/>
      <point x="342" y="407"/>
      <point x="395" y="250"/>
      <point x="511" y="155"/>
    </contour>
  </outline>
</glyph>
<glyph name="afii10084" format="2">
  <advance width="1719"/>
  <unicode hex="0442"/>
  <outline>
    <contour>
      <point x="1588" y="0" type="line"/>
      <point x="1391" y="0" type="line"/>
      <point x="1391" y="581" type="line" smooth="yes"/>
      <point x="1391" y="695"/>
      <point x="1306" y="844"/>
      <point x="1203" y="844" type="qcurve" smooth="yes"/>
      <point x="1128" y="844"/>
      <point x="1023" y="763"/>
      <point x="969" y="633"/>
      <point x="969" y="559" type="qcurve" smooth="yes"/>
      <point x="969" y="0" type="line"/>
      <point x="773" y="0" type="line"/>
      <point x="773" y="585" type="line" smooth="yes"/>
      <point x="773" y="844"/>
      <point x="586" y="844" type="qcurve" smooth="yes"/>
      <point x="511" y="844"/>
      <point x="407" y="763"/>
      <point x="353" y="633"/>
      <point x="353" y="559" type="qcurve" smooth="yes"/>
      <point x="353" y="0" type="line"/>
      <point x="158" y="0" type="line"/>
      <point x="158" y="999" type="line"/>
      <point x="353" y="999" type="line"/>
      <point x="353" y="859" type="line"/>
      <point x="396" y="939"/>
      <point x="536" y="1018"/>
      <point x="613" y="1018" type="qcurve" smooth="yes"/>
      <point x="718" y="1018"/>
      <point x="868" y="924"/>
      <point x="911" y="838" type="qcurve"/>
      <point x="965" y="928"/>
      <point x="1132" y="1016"/>
      <point x="1229" y="1016" type="qcurve" smooth="yes"/>
      <point x="1353" y="1016"/>
      <point x="1512" y="903"/>
      <point x="1588" y="716"/>
      <point x="1588" y="605" type="qcurve" smooth="yes"/>
    </contour>
  </outline>
</glyph>
<glyph name="afii10085" format="2">
  <advance width="1002"/>
  <unicode hex="0443"/>
  <outline>
    <contour>
      <point x="434" y="-430" type="line"/>
      <point x="228" y="-430" type="line"/>
      <point x="402" y="16" type="line"/>
      <point x="16" y="999" type="line"/>
      <point x="229" y="999" type="line"/>
      <point x="501" y="240" type="line"/>
      <point x="773" y="999" type="line"/>
      <point x="986" y="999" type="line"/>
    </contour>
  </outline>
</glyph>
<glyph name="afii10087" format="2">
  <advance width="973"/>
  <unicode hex="0445"/>
  <outline>
    <contour>
      <point x="943" y="0" type="line"/>
      <point x="708" y="0" type="line"/>
      <point x="486" y="359" type="line"/>
      <point x="265" y="0" type="line"/>
      <point x="29" y="0" type="line"/>
      <point x="368" y="504" type="line"/>
      <point x="29" y="999" type="line"/>
      <point x="265" y="999" type="line"/>
      <point x="486" y="647" type="line"/>
      <point x="708" y="999" type="line"/>
      <point x="943" y="999" type="line"/>
      <point x="605" y="504" type="line"/>
    </contour>
  </outline>
</glyph>
<glyph name="afii10090" format="2">
  <advance width="1745"/>
  <unicode hex="0448"/>
  <outline>
    <contour>
      <point x="1133" y="-18" type="qcurve" smooth="yes"/>
      <point x="1034" y="-18"/>
      <point x="880" y="70"/>
      <point x="835" y="161" type="qcurve"/>
      <point x="780" y="70"/>
      <point x="614" y="-16"/>
      <point x="516" y="-16" type="qcurve" smooth="yes"/>
      <point x="392" y="-16"/>
      <point x="233" y="97"/>
      <point x="158" y="284"/>
      <point x="158" y="395" type="qcurve" smooth="yes"/>
      <point x="158" y="999" type="line"/>
      <point x="354" y="999" type="line"/>
      <point x="354" y="419" type="line" smooth="yes"/>
      <point x="354" y="156"/>
      <point x="542" y="156" type="qcurve" smooth="yes"/>
      <point x="617" y="156"/>
      <point x="721" y="236"/>
      <point x="776" y="366"/>
      <point x="776" y="440" type="qcurve" smooth="yes"/>
      <point x="776" y="999" type="line"/>
      <point x="973" y="999" type="line"/>
      <point x="973" y="415" type="line" smooth="yes"/>
      <point x="973" y="156"/>
      <point x="1158" y="156" type="qcurve" smooth="yes"/>
      <point x="1233" y="156"/>
      <point x="1338" y="236"/>
      <point x="1393" y="366"/>
      <point x="1393" y="440" type="qcurve" smooth="yes"/>
      <point x="1393" y="999" type="line"/>
      <point x="1588" y="999" type="line"/>
      <point x="1588" y="0" type="line"/>
      <point x="1393" y="0" type="line"/>
      <point x="1393" y="140" type="line"/>
      <point x="1349" y="62"/>
      <point x="1210" y="-18"/>
    </contour>
  </outline>
</glyph>
<glyph name="afii10093" format="2">
  <advance width="1449"/>
  <unicode hex="044B"/>
  <outline>
    <contour>
      <point x="594" y="-20" type="qcurve" smooth="yes"/>
      <point x="395" y="-20"/>
      <point x="168" y="209"/>
      <point x="168" y="409" type="qcurve" smooth="yes"/>
      <point x="168" y="999" type="line"/>
      <point x="352" y="999" type="line"/>
      <point x="352" y="702" type="line"/>
      <point x="459" y="818"/>
      <point x="612" y="818" type="qcurve" smooth="yes"/>
      <point x="817" y="818"/>
      <point x="1050" y="589"/>
      <point x="1050" y="399" type="qcurve" smooth="yes"/>
      <point x="1050" y="266"/>
      <point x="931" y="78"/>
      <point x="724" y="-20"/>
    </contour>
    <contour>
      <point x="1378" y="0" type="line"/>
      <point x="1194" y="0" type="line"/>
      <point x="1194" y="999" type="line"/>
      <point x="1378" y="999" type="line"/>
    </contour>
    <contour>
      <point x="594" y="149" type="qcurve" smooth="yes"/>
      <point x="672" y="149"/>
      <point x="781" y="215"/>
      <point x="837" y="329"/>
      <point x="837" y="399" type="qcurve" smooth="yes"/>
      <point x="837" y="466"/>
      <point x="779" y="580"/>
      <point x="670" y="649"/>
      <point x="594" y="649" type="qcurve" smooth="yes"/>
      <point x="520" y="649"/>
      <point x="413" y="588"/>
      <point x="355" y="486"/>
      <point x="352" y="423" type="qcurve"/>
      <point x="352" y="382" type="line"/>
      <point x="358" y="275"/>
      <point x="488" y="149"/>
    </contour>
  </outline>
</glyph>
<glyph name="afii10095" format="2">
  <advance width="983"/>
  <unicode hex="044D"/>
  <outline>
    <contour>
      <point x="455" y="-20" type="qcurve" smooth="yes"/>
      <point x="314" y="-20"/>
      <point x="107" y="125"/>
      <point x="59" y="260" type="qcurve"/>
      <point x="231" y="329" type="line"/>
      <point x="253" y="251"/>
      <point x="372" y="155"/>
      <point x="457" y="155" type="qcurve" smooth="yes"/>
      <point x="568" y="155"/>
      <point x="693" y="304"/>
      <point x="709" y="418" type="qcurve"/>
      <point x="332" y="418" type="line"/>
      <point x="332" y="563" type="line"/>
      <point x="710" y="563" type="line"/>
      <point x="697" y="681"/>
      <point x="571" y="840"/>
      <point x="457" y="840" type="qcurve" smooth="yes"/>
      <point x="371" y="840"/>
      <point x="253" y="746"/>
      <point x="231" y="666" type="qcurve"/>
      <point x="48" y="741" type="line"/>
      <point x="101" y="866"/>
      <point x="310" y="1016"/>
      <point x="457" y="1016" type="qcurve" smooth="yes"/>
      <point x="572" y="1016"/>
      <point x="742" y="931"/>
      <point x="856" y="786"/>
      <point x="912" y="600"/>
      <point x="912" y="498" type="qcurve" smooth="yes"/>
      <point x="912" y="365"/>
      <point x="813" y="128"/>
      <point x="706" y="52" type="qcurve"/>
      <point x="602" y="-20"/>
    </contour>
  </outline>
</glyph>
<glyph name="afii10096" format="2">
  <advance width="1518"/>
  <unicode hex="044E"/>
  <outline>
    <contour>
      <point x="951" y="-20" type="qcurve" smooth="yes"/>
      <point x="805" y="-20"/>
      <point x="584" y="116"/>
      <point x="460" y="341"/>
      <point x="455" y="478" type="qcurve"/>
      <point x="354" y="478" type="line"/>
      <point x="354" y="0" type="line"/>
      <point x="158" y="0" type="line"/>
      <point x="158" y="1413" type="line"/>
      <point x="354" y="1413" type="line"/>
      <point x="354" y="626" type="line"/>
      <point x="469" y="626" type="line"/>
      <point x="495" y="735"/>
      <point x="626" y="909"/>
      <point x="825" y="1012"/>
      <point x="951" y="1012" type="qcurve" smooth="yes"/>
      <point x="1102" y="1012"/>
      <point x="1325" y="869"/>
      <point x="1447" y="634"/>
      <point x="1447" y="496" type="qcurve" smooth="yes"/>
      <point x="1447" y="351"/>
      <point x="1320" y="117"/>
      <point x="1096" y="-20"/>
    </contour>
    <contour>
      <point x="951" y="149" type="qcurve" smooth="yes"/>
      <point x="1050" y="149"/>
      <point x="1175" y="242"/>
      <point x="1235" y="399"/>
      <point x="1235" y="496" type="qcurve" smooth="yes"/>
      <point x="1235" y="591"/>
      <point x="1177" y="749"/>
      <point x="1051" y="843"/>
      <point x="951" y="843" type="qcurve" smooth="yes"/>
      <point x="852" y="843"/>
      <point x="726" y="749"/>
      <point x="667" y="591"/>
      <point x="667" y="496" type="qcurve" smooth="yes"/>
      <point x="667" y="401"/>
      <point x="725" y="243"/>
      <point x="851" y="149"/>
    </contour>
  </outline>
</glyph>
<glyph name="afii10097" format="2">
  <advance width="1026"/>
  <unicode hex="044F"/>
  <outline>
    <contour>
      <point x="869" y="0" type="line"/>
      <point x="675" y="0" type="line"/>
      <point x="675" y="431" type="line"/>
      <point x="556" y="431" type="line" smooth="yes"/>
      <point x="448" y="431"/>
      <point x="409" y="303" type="qcurve"/>
      <point x="292" y="0" type="line"/>
      <point x="65" y="0" type="line"/>
      <point x="185" y="318" type="line"/>
      <point x="211" y="379"/>
      <point x="295" y="477"/>
      <point x="345" y="477" type="qcurve"/>
      <point x="274" y="492"/>
      <point x="169" y="551"/>
      <point x="110" y="652"/>
      <point x="110" y="733" type="qcurve" smooth="yes"/>
      <point x="110" y="801"/>
      <point x="177" y="921"/>
      <point x="340" y="999"/>
      <point x="474" y="999" type="qcurve" smooth="yes"/>
      <point x="869" y="999" type="line"/>
    </contour>
    <contour>
      <point x="675" y="583" type="line"/>
      <point x="675" y="835" type="line"/>
      <point x="449" y="835" type="line" smooth="yes"/>
      <point x="383" y="835"/>
      <point x="318" y="766"/>
      <point x="318" y="717" type="qcurve" smooth="yes"/>
      <point x="318" y="656"/>
      <point x="394" y="583"/>
      <point x="481" y="583" type="qcurve" smooth="yes"/>
    </contour>
  </outline>
</glyph>
<glyph name="afii10100" format="2">
  <advance width="778"/>
  <unicode hex="0453"/>
  <outline>
    <contour>
      <point x="469" y="1124" type="line"/>
      <point x="323" y="1124" type="line"/>
      <point x="541" y="1413" type="line"/>
      <point x="754" y="1413" type="line"/>
    </contour>
    <contour>
      <point x="349" y="0" type="line"/>
      <point x="153" y="0" type="line"/>
      <point x="153" y="999" type="line"/>
      <point x="766" y="999" type="line"/>
      <point x="766" y="851" type="line"/>
      <point x="349" y="851" type="line"/>
    </contour>
  </outline>
</glyph>
<glyph name="afii10103" format="2">
  <advance width="511"/>
  <unicode hex="0456"/>
  <outline>
    <contour>
      <point x="363" y="1205" type="line"/>
      <point x="150" y="1205" type="line"/>
      <point x="150" y="1412" type="line"/>
      <point x="363" y="1412" type="line"/>
    </contour>
    <contour>
      <point x="351" y="0" type="line"/>
      <point x="158" y="0" type="line"/>
      <point x="158" y="999" type="line"/>
      <point x="351" y="999" type="line"/>
    </contour>
  </outline>
</glyph>
<glyph name="afii10104" format="2">
  <advance width="500"/>
  <unicode hex="0457"/>
  <outline>
    <contour>
      <point x="167" y="1171" type="line"/>
      <point x="-12" y="1171" type="line"/>
      <point x="-12" y="1351" type="line"/>
      <point x="167" y="1351" type="line"/>
    </contour>
    <contour>
      <point x="509" y="1171" type="line"/>
      <point x="330" y="1171" type="line"/>
      <point x="330" y="1351" type="line"/>
      <point x="509" y="1351" type="line"/>
    </contour>
    <contour>
      <point x="345" y="0" type="line"/>
      <point x="153" y="0" type="line"/>
      <point x="153" y="999" type="line"/>
      <point x="345" y="999" type="line"/>
    </contour>
  </outline>
</glyph>
<glyph name="afii10106" format="2">
  <advance width="1653"/>
  <unicode hex="0459"/>
  <outline>
    <contour>
      <point x="218" y="-21" type="qcurve" smooth="yes"/>
      <point x="139" y="-21"/>
      <point x="39" y="28" type="qcurve"/>
      <point x="95" y="159" type="line"/>
      <point x="143" y="131"/>
      <point x="176" y="131" type="qcurve" smooth="yes"/>
      <point x="222" y="131"/>
      <point x="279" y="372"/>
      <point x="279" y="616" type="qcurve" smooth="yes"/>
      <point x="279" y="999" type="line"/>
      <point x="984" y="999" type="line"/>
      <point x="984" y="684" type="line"/>
      <point x="1152" y="684" type="line" smooth="yes"/>
      <point x="1441" y="684"/>
      <point x="1524" y="546" type="qcurve"/>
      <point x="1572" y="471"/>
      <point x="1572" y="343" type="qcurve" smooth="yes"/>
      <point x="1572" y="227"/>
      <point x="1468" y="75"/>
      <point x="1280" y="0"/>
      <point x="1153" y="0" type="qcurve" smooth="yes"/>
      <point x="788" y="0" type="line"/>
      <point x="788" y="851" type="line"/>
      <point x="474" y="851" type="line"/>
      <point x="474" y="617" type="line" smooth="yes"/>
      <point x="474" y="379"/>
      <point x="411" y="89"/>
      <point x="296" y="-21"/>
    </contour>
    <contour>
      <point x="1152" y="164" type="line" smooth="yes"/>
      <point x="1247" y="164"/>
      <point x="1357" y="243"/>
      <point x="1357" y="343" type="qcurve" smooth="yes"/>
      <point x="1357" y="441"/>
      <point x="1247" y="520"/>
      <point x="1152" y="520" type="qcurve" smooth="yes"/>
      <point x="984" y="520" type="line"/>
      <point x="984" y="164" type="line"/>
    </contour>
  </outline>
</glyph>
<glyph name="afii10107" format="2">
  <advance width="1681"/>
  <unicode hex="045A"/>
  <outline>
    <contour>
      <point x="1181" y="0" type="qcurve" smooth="yes"/>
      <point x="816" y="0" type="line"/>
      <point x="816" y="478" type="line"/>
      <point x="353" y="478" type="line"/>
      <point x="353" y="0" type="line"/>
      <point x="158" y="0" type="line"/>
      <point x="158" y="999" type="line"/>
      <point x="353" y="999" type="line"/>
      <point x="353" y="626" type="line"/>
      <point x="816" y="626" type="line"/>
      <point x="816" y="999" type="line"/>
      <point x="1011" y="999" type="line"/>
      <point x="1011" y="626" type="line"/>
      <point x="1180" y="626" type="line" smooth="yes"/>
      <point x="1329" y="626"/>
      <point x="1507" y="569"/>
      <point x="1553" y="505" type="qcurve" smooth="yes"/>
      <point x="1601" y="436"/>
      <point x="1601" y="314" type="qcurve" smooth="yes"/>
      <point x="1601" y="151"/>
      <point x="1386" y="0"/>
    </contour>
    <contour>
      <point x="1180" y="164" type="line" smooth="yes"/>
      <point x="1244" y="164"/>
      <point x="1336" y="188"/>
      <point x="1385" y="253"/>
      <point x="1385" y="314" type="qcurve" smooth="yes"/>
      <point x="1385" y="380"/>
      <point x="1334" y="445"/>
      <point x="1249" y="462"/>
      <point x="1180" y="462" type="qcurve" smooth="yes"/>
      <point x="1011" y="462" type="line"/>
      <point x="1011" y="164" type="line"/>
    </contour>
  </outline>
</glyph>
<glyph name="afii10110" format="2">
  <advance width="1002"/>
  <unicode hex="045E"/>
  <outline>
    <contour>
      <point x="498" y="1143" type="qcurve" smooth="yes"/>
      <point x="406" y="1143"/>
      <point x="267" y="1202"/>
      <point x="189" y="1322"/>
      <point x="189" y="1413" type="qcurve"/>
      <point x="335" y="1413" type="line"/>
      <point x="335" y="1343"/>
      <point x="431" y="1266"/>
      <point x="498" y="1266" type="qcurve" smooth="yes"/>
      <point x="565" y="1266"/>
      <point x="660" y="1343"/>
      <point x="660" y="1413" type="qcurve"/>
      <point x="806" y="1413" type="line"/>
      <point x="806" y="1321"/>
      <point x="728" y="1202"/>
      <point x="589" y="1143"/>
    </contour>
    <contour>
      <point x="434" y="-430" type="line"/>
      <point x="228" y="-430" type="line"/>
      <point x="402" y="16" type="line"/>
      <point x="16" y="999" type="line"/>
      <point x="229" y="999" type="line"/>
      <point x="501" y="240" type="line"/>
      <point x="773" y="999" type="line"/>
      <point x="986" y="999" type="line"/>
    </contour>
  </outline>
</glyph>
<glyph name="afii10193" format="2">
  <advance width="1168"/>
  <unicode hex="045F"/>
  <outline>
    <contour>
      <point x="681" y="-307" type="line"/>
      <point x="486" y="-307" type="line"/>
      <point x="486" y="0" type="line"/>
      <point x="158" y="0" type="line"/>
      <point x="158" y="999" type="line"/>
      <point x="353" y="999" type="line"/>
      <point x="353" y="149" type="line"/>
      <point x="816" y="149" type="line"/>
      <point x="816" y="999" type="line"/>
      <point x="1011" y="999" type="line"/>
      <point x="1011" y="0" type="line"/>
      <point x="681" y="0" type="line"/>
    </contour>
  </outline>
</glyph>
<glyph name="afii10194" format="2">
  <advance width="1025"/>
  <unicode hex="0463"/>
  <outline>
    <contour>
      <point x="524" y="0" type="qcurve" smooth="yes"/>
      <point x="160" y="0" type="line"/>
      <point x="160" y="1138" type="line"/>
      <point x="-32" y="1138" type="line"/>
      <point x="-32" y="1277" type="line"/>
      <point x="160" y="1277" type="line"/>
      <point x="160" y="1412" type="line"/>
      <point x="354" y="1412" type="line"/>
      <point x="354" y="1277" type="line"/>
      <point x="607" y="1277" type="line"/>
      <point x="607" y="1138" type="line"/>
      <point x="354" y="1138" type="line"/>
      <point x="354" y="684" type="line"/>
      <point x="523" y="684" type="line" smooth="yes"/>
      <point x="812" y="684"/>
      <point x="895" y="546" type="qcurve"/>
      <point x="944" y="471"/>
      <point x="944" y="343" type="qcurve" smooth="yes"/>
      <point x="944" y="227"/>
      <point x="840" y="75"/>
      <point x="651" y="0"/>
    </contour>
    <contour>
      <point x="523" y="164" type="line" smooth="yes"/>
      <point x="618" y="164"/>
      <point x="729" y="243"/>
      <point x="729" y="343" type="qcurve" smooth="yes"/>
      <point x="729" y="441"/>
      <point x="618" y="520"/>
      <point x="523" y="520" type="qcurve" smooth="yes"/>
      <point x="354" y="520" type="line"/>
      <point x="354" y="164" type="line"/>
    </contour>
  </outline>
</glyph>
<glyph name="Eiotifiedcyrillic" format="2">
  <advance width="1872"/>
  <unicode hex="0464"/>
  <outline>
    <contour>
      <point x="1209" y="-20" type="qcurve" smooth="yes"/>
      <point x="1057" y="-20"/>
      <point x="822" y="77"/>
      <point x="658" y="250"/>
      <point x="565" y="481"/>
      <point x="554" y="616" type="qcurve"/>
      <point x="401" y="616" type="line"/>
      <point x="401" y="0" type="line"/>
      <point x="198" y="0" type="line"/>
      <point x="198" y="1412" type="line"/>
      <point x="401" y="1412" type="line"/>
      <point x="401" y="797" type="line"/>
      <point x="554" y="797" type="line"/>
      <point x="567" y="972"/>
      <point x="719" y="1261"/>
      <point x="867" y="1352" type="qcurve"/>
      <point x="1008" y="1436"/>
      <point x="1207" y="1436" type="qcurve" smooth="yes"/>
      <point x="1403" y="1436"/>
      <point x="1713" y="1244"/>
      <point x="1801" y="1046" type="qcurve"/>
      <point x="1612" y="970" type="line"/>
      <point x="1572" y="1112"/>
      <point x="1357" y="1244"/>
      <point x="1205" y="1244" type="qcurve" smooth="yes"/>
      <point x="1064" y="1244"/>
      <point x="874" y="1127"/>
      <point x="769" y="926"/>
      <point x="757" y="797" type="qcurve"/>
      <point x="1358" y="797" type="line"/>
      <point x="1358" y="616" type="line"/>
      <point x="759" y="616" type="line"/>
      <point x="779" y="413"/>
      <point x="1003" y="171"/>
      <point x="1209" y="171" type="qcurve" smooth="yes"/>
      <point x="1364" y="171"/>
      <point x="1562" y="310"/>
      <point x="1615" y="449" type="qcurve"/>
      <point x="1803" y="371" type="line"/>
      <point x="1717" y="172"/>
      <point x="1404" y="-20"/>
    </contour>
  </outline>
</glyph>
<glyph name="eiotifiedcyrillic" format="2">
  <advance width="1412"/>
  <unicode hex="0465"/>
  <outline>
    <contour>
      <point x="957" y="-20" type="qcurve" smooth="yes"/>
      <point x="815" y="-20"/>
      <point x="620" y="106"/>
      <point x="513" y="316"/>
      <point x="503" y="445" type="qcurve"/>
      <point x="353" y="445" type="line"/>
      <point x="353" y="0" type="line"/>
      <point x="158" y="0" type="line"/>
      <point x="158" y="999" type="line"/>
      <point x="353" y="999" type="line"/>
      <point x="353" y="593" type="line"/>
      <point x="507" y="593" type="line"/>
      <point x="523" y="708"/>
      <point x="631" y="899"/>
      <point x="818" y="1016"/>
      <point x="955" y="1016" type="qcurve" smooth="yes"/>
      <point x="1102" y="1016"/>
      <point x="1312" y="866"/>
      <point x="1365" y="741" type="qcurve"/>
      <point x="1181" y="666" type="line"/>
      <point x="1157" y="752"/>
      <point x="1034" y="840"/>
      <point x="955" y="840" type="qcurve" smooth="yes"/>
      <point x="876" y="840"/>
      <point x="768" y="763"/>
      <point x="708" y="650"/>
      <point x="702" y="593" type="qcurve"/>
      <point x="1080" y="593" type="line"/>
      <point x="1080" y="448" type="line"/>
      <point x="703" y="448" type="line"/>
      <point x="709" y="363"/>
      <point x="767" y="231"/>
      <point x="875" y="155"/>
      <point x="955" y="155" type="qcurve" smooth="yes"/>
      <point x="1041" y="155"/>
      <point x="1158" y="252"/>
      <point x="1181" y="329" type="qcurve"/>
      <point x="1353" y="260" type="line"/>
      <point x="1305" y="125"/>
      <point x="1098" y="-20"/>
    </contour>
  </outline>
</glyph>
<glyph name="yuslittlecyrillic" format="2">
  <advance width="992"/>
  <unicode hex="0467"/>
  <outline>
    <contour>
      <point x="953" y="0" type="line"/>
      <point x="756" y="0" type="line"/>
      <point x="672" y="269" type="line"/>
      <point x="574" y="269" type="line"/>
      <point x="574" y="0" type="line"/>
      <point x="421" y="0" type="line"/>
      <point x="421" y="269" type="line"/>
      <point x="325" y="269" type="line"/>
      <point x="229" y="0" type="line"/>
      <point x="39" y="0" type="line"/>
      <point x="420" y="999" type="line"/>
      <point x="574" y="999" type="line"/>
    </contour>
    <contour>
      <point x="627" y="413" type="line"/>
      <point x="498" y="764" type="line"/>
      <point x="371" y="413" type="line"/>
    </contour>
  </outline>
</glyph>
<glyph name="yusbigiotifiedcyrillic" format="2">
  <advance width="1644"/>
  <unicode hex="046D"/>
  <outline>
    <contour>
      <point x="1605" y="0" type="line"/>
      <point x="1378" y="0" type="line"/>
      <point x="1256" y="356" type="line" smooth="yes"/>
      <point x="1239" y="406"/>
      <point x="1200" y="456"/>
      <point x="1146" y="475"/>
      <point x="1109" y="475" type="qcurve" smooth="yes"/>
      <point x="1098" y="475" type="line"/>
      <point x="1098" y="0" type="line"/>
      <point x="921" y="0" type="line"/>
      <point x="921" y="475" type="line"/>
      <point x="855" y="475"/>
      <point x="785" y="418"/>
      <point x="765" y="356" type="qcurve"/>
      <point x="643" y="0" type="line"/>
      <point x="415" y="0" type="line"/>
      <point x="559" y="375" type="line"/>
      <point x="572" y="416"/>
      <point x="593" y="451" type="qcurve"/>
      <point x="353" y="451" type="line"/>
      <point x="353" y="0" type="line"/>
      <point x="158" y="0" type="line"/>
      <point x="158" y="999" type="line"/>
      <point x="353" y="999" type="line"/>
      <point x="353" y="600" type="line"/>
      <point x="774" y="600" type="line"/>
      <point x="571" y="851" type="line"/>
      <point x="571" y="999" type="line"/>
      <point x="1448" y="999" type="line"/>
      <point x="1448" y="851" type="line"/>
      <point x="1254" y="612" type="line"/>
      <point x="1304" y="612"/>
      <point x="1374" y="560"/>
      <point x="1416" y="491"/>
      <point x="1436" y="444" type="qcurve"/>
    </contour>
    <contour>
      <point x="1008" y="610" type="line"/>
      <point x="1206" y="851" type="line"/>
      <point x="817" y="851" type="line"/>
    </contour>
  </outline>
</glyph>
<glyph name="afii10195" format="2">
  <advance width="1133"/>
  <unicode hex="0473"/>
  <outline>
    <contour>
      <point x="566" y="-20" type="qcurve" smooth="yes"/>
      <point x="414" y="-20"/>
      <point x="191" y="123"/>
      <point x="69" y="359"/>
      <point x="69" y="496" type="qcurve" smooth="yes"/>
      <point x="69" y="638"/>
      <point x="196" y="872"/>
      <point x="422" y="1012"/>
      <point x="566" y="1012" type="qcurve" smooth="yes"/>
      <point x="716" y="1012"/>
      <point x="940" y="869"/>
      <point x="1063" y="634"/>
      <point x="1063" y="496" type="qcurve" smooth="yes"/>
      <point x="1063" y="356"/>
      <point x="938" y="121"/>
      <point x="710" y="-20"/>
    </contour>
    <contour>
      <point x="842" y="578" type="line"/>
      <point x="825" y="697"/>
      <point x="688" y="843"/>
      <point x="566" y="843" type="qcurve" smooth="yes"/>
      <point x="443" y="843"/>
      <point x="305" y="697"/>
      <point x="287" y="578" type="qcurve"/>
    </contour>
    <contour>
      <point x="566" y="149" type="qcurve" smooth="yes"/>
      <point x="693" y="149"/>
      <point x="829" y="306"/>
      <point x="843" y="432" type="qcurve"/>
      <point x="286" y="432" type="line"/>
      <point x="300" y="306"/>
      <point x="438" y="149"/>
    </contour>
  </outline>
</glyph>
<glyph name="afii10148" format="2">
  <advance width="1319"/>
  <unicode hex="0474"/>
  <outline>
    <contour>
      <point x="704" y="0" type="line"/>
      <point x="542" y="0" type="line"/>
      <point x="23" y="1413" type="line"/>
      <point x="242" y="1413" type="line"/>
      <point x="623" y="305" type="line"/>
      <point x="883" y="1002" type="line" smooth="yes"/>
      <point x="960" y="1210"/>
      <point x="1157" y="1400"/>
      <point x="1294" y="1413" type="qcurve"/>
      <point x="1294" y="1223" type="line"/>
      <point x="1217" y="1191"/>
      <point x="1115" y="1064"/>
      <point x="1073" y="958" type="qcurve"/>
    </contour>
  </outline>
</glyph>
<glyph name="afii10098" format="2">
  <advance width="780"/>
  <unicode hex="0491"/>
  <outline>
    <contour>
      <point x="349" y="0" type="line"/>
      <point x="153" y="0" type="line"/>
      <point x="153" y="999" type="line"/>
      <point x="571" y="999" type="line"/>
      <point x="571" y="1307" type="line"/>
      <point x="766" y="1307" type="line"/>
      <point x="766" y="851" type="line"/>
      <point x="349" y="851" type="line"/>
    </contour>
  </outline>
</glyph>
<glyph name="Ghestrokecyrillic" format="2">
  <advance width="1211"/>
  <unicode hex="0492"/>
  <outline>
    <contour>
      <point x="543" y="0" type="line"/>
      <point x="341" y="0" type="line"/>
      <point x="341" y="664" type="line"/>
      <point x="8" y="664" type="line"/>
      <point x="8" y="833" type="line"/>
      <point x="341" y="833" type="line"/>
      <point x="341" y="1412" type="line"/>
      <point x="1168" y="1412" type="line"/>
      <point x="1168" y="1231" type="line"/>
      <point x="543" y="1231" type="line"/>
      <point x="543" y="833" type="line"/>
      <point x="748" y="833" type="line"/>
      <point x="748" y="664" type="line"/>
      <point x="543" y="664" type="line"/>
    </contour>
  </outline>
</glyph>
<glyph name="Ustraightstrokecyrillic" format="2">
  <advance width="1319"/>
  <unicode hex="04B0"/>
  <outline>
    <contour>
      <point x="763" y="0" type="line"/>
      <point x="556" y="0" type="line"/>
      <point x="556" y="295" type="line"/>
      <point x="167" y="295" type="line"/>
      <point x="167" y="464" type="line"/>
      <point x="556" y="464" type="line"/>
      <point x="556" y="552" type="line"/>
      <point x="27" y="1413" type="line"/>
      <point x="269" y="1413" type="line"/>
      <point x="657" y="752" type="line"/>
      <point x="1047" y="1413" type="line"/>
      <point x="1290" y="1413" type="line"/>
      <point x="763" y="552" type="line"/>
      <point x="763" y="464" type="line"/>
      <point x="907" y="464" type="line"/>
      <point x="907" y="295" type="line"/>
      <point x="763" y="295" type="line"/>
    </contour>
  </outline>
</glyph>
<glyph name="Hadescendercyrillic" format="2">
  <advance width="1299"/>
  <unicode hex="04B2"/>
  <outline>
    <contour>
      <point x="1312" y="-238" type="line"/>
      <point x="1120" y="-238" type="line"/>
      <point x="1120" y="0" type="line"/>
      <point x="1008" y="0" type="line"/>
      <point x="647" y="558" type="line"/>
      <point x="292" y="0" type="line"/>
      <point x="50" y="0" type="line"/>
      <point x="519" y="707" type="line"/>
      <point x="52" y="1413" type="line"/>
      <point x="294" y="1413" type="line"/>
      <point x="649" y="846" type="line"/>
      <point x="1006" y="1413" type="line"/>
      <point x="1247" y="1413" type="line"/>
      <point x="781" y="707" type="line"/>
      <point x="1138" y="168" type="line"/>
      <point x="1312" y="168" type="line"/>
    </contour>
  </outline>
</glyph>
<glyph name="chedescendercyrillic" format="2">
  <advance width="1095"/>
  <unicode hex="04B7"/>
  <outline>
    <contour>
      <point x="1105" y="-238" type="line"/>
      <point x="913" y="-238" type="line"/>
      <point x="913" y="0" type="line"/>
      <point x="741" y="0" type="line"/>
      <point x="741" y="409" type="line"/>
      <point x="698" y="340"/>
      <point x="539" y="243"/>
      <point x="439" y="243" type="qcurve" smooth="yes"/>
      <point x="315" y="243"/>
      <point x="157" y="361"/>
      <point x="82" y="557"/>
      <point x="82" y="673" type="qcurve" smooth="yes"/>
      <point x="82" y="999" type="line"/>
      <point x="278" y="999" type="line"/>
      <point x="278" y="678" type="line" smooth="yes"/>
      <point x="278" y="419"/>
      <point x="463" y="419" type="qcurve" smooth="yes"/>
      <point x="542" y="419"/>
      <point x="668" y="502"/>
      <point x="741" y="631"/>
      <point x="741" y="701" type="qcurve" smooth="yes"/>
      <point x="741" y="999" type="line"/>
      <point x="938" y="999" type="line"/>
      <point x="938" y="168" type="line"/>
      <point x="1105" y="168" type="line"/>
    </contour>
  </outline>
</glyph>
<glyph name="Shhacyrillic" format="2">
  <advance width="1338"/>
  <unicode hex="04BA"/>
  <outline>
    <contour>
      <point x="1229" y="1" type="line"/>
      <point x="1026" y="1" type="line"/>
      <point x="1026" y="402" type="line" smooth="yes"/>
      <point x="1026" y="601"/>
      <point x="887" y="807"/>
      <point x="714" y="807" type="qcurve" smooth="yes"/>
      <point x="605" y="807"/>
      <point x="447" y="730"/>
      <point x="402" y="674" type="qcurve"/>
      <point x="402" y="1" type="line"/>
      <point x="198" y="1" type="line"/>
      <point x="198" y="1413" type="line"/>
      <point x="402" y="1413" type="line"/>
      <point x="402" y="902" type="line"/>
      <point x="529" y="1003"/>
      <point x="714" y="1003" type="qcurve" smooth="yes"/>
      <point x="976" y="1003"/>
      <point x="1229" y="688"/>
      <point x="1229" y="413" type="qcurve" smooth="yes"/>
    </contour>
  </outline>
</glyph>
<glyph name="afii00208" format="2">
  <advance width="1526"/>
  <unicode hex="2015"/>
  <outline>
    <contour>
      <point x="1374" y="545" type="line"/>
      <point x="152" y="545" type="line"/>
      <point x="152" y="692" type="line"/>
      <point x="1374" y="692" type="line"/>
    </contour>
  </outline>
</glyph>
<glyph name="quoteleft" format="2">
  <advance width="566"/>
  <unicode hex="2018"/>
  <outline>
    <contour>
      <point x="441" y="893" type="line"/>
      <point x="315" y="893" type="line"/>
      <point x="80" y="1413" type="line"/>
      <point x="313" y="1413" type="line"/>
    </contour>
  </outline>
</glyph>
<glyph name="quoteright" format="2">
  <advance width="566"/>
  <unicode hex="2019"/>
  <outline>
    <contour>
      <point x="250" y="893" type="line"/>
      <point x="124" y="893" type="line"/>
      <point x="253" y="1413" type="line"/>
      <point x="486" y="1413" type="line"/>
    </contour>
  </outline>
</glyph>
<glyph name="quotesinglbase" format="2">
  <advance width="557"/>
  <unicode hex="201A"/>
  <outline>
    <contour>
      <point x="243" y="-225" type="line"/>
      <point x="125" y="-225" type="line"/>
      <point x="252" y="264" type="line"/>
      <point x="475" y="264" type="line"/>
    </contour>
  </outline>
</glyph>
<glyph name="quotedblright" format="2">
  <advance width="912"/>
  <unicode hex="201D"/>
  <outline>
    <contour>
      <point x="250" y="893" type="line"/>
      <point x="124" y="893" type="line"/>
      <point x="253" y="1413" type="line"/>
      <point x="486" y="1413" type="line"/>
    </contour>
    <contour>
      <point x="597" y="893" type="line"/>
      <point x="471" y="893" type="line"/>
      <point x="600" y="1413" type="line"/>
      <point x="832" y="1413" type="line"/>
    </contour>
  </outline>
</glyph>
<glyph name="quotedblbase" format="2">
  <advance width="888"/>
  <unicode hex="201E"/>
  <outline>
    <contour>
      <point x="243" y="-225" type="line"/>
      <point x="125" y="-225" type="line"/>
      <point x="252" y="264" type="line"/>
      <point x="475" y="264" type="line"/>
    </contour>
    <contour>
      <point x="573" y="-225" type="line"/>
      <point x="456" y="-225" type="line"/>
      <point x="583" y="264" type="line"/>
      <point x="806" y="264" type="line"/>
    </contour>
  </outline>
</glyph>
<glyph name="uni2023" format="2">
  <advance width="853"/>
  <unicode hex="2023"/>
  <outline>
    <contour>
      <point x="221" y="193" type="line"/>
      <point x="221" y="826" type="line"/>
      <point x="770" y="510" type="line"/>
    </contour>
  </outline>
</glyph>
<glyph name="uni2031" format="2">
  <advance width="2777"/>
  <unicode hex="2031"/>
  <outline>
    <contour>
      <point x="370" y="787" type="qcurve" smooth="yes"/>
      <point x="275" y="787"/>
      <point x="154" y="892"/>
      <point x="104" y="1040"/>
      <point x="104" y="1111" type="qcurve" smooth="yes"/>
      <point x="104" y="1167"/>
      <point x="132" y="1281"/>
      <point x="193" y="1377"/>
      <point x="292" y="1436"/>
      <point x="364" y="1436" type="qcurve" smooth="yes"/>
      <point x="453" y="1436"/>
      <point x="570" y="1339"/>
      <point x="627" y="1189"/>
      <point x="627" y="1109" type="qcurve" smooth="yes"/>
      <point x="627" y="1033"/>
      <point x="573" y="885"/>
      <point x="459" y="787"/>
    </contour>
    <contour>
      <point x="472" y="-8" type="line"/>
      <point x="303" y="-8" type="line"/>
      <point x="1074" y="1428" type="line"/>
      <point x="1242" y="1428" type="line"/>
    </contour>
    <contour>
      <point x="367" y="921" type="qcurve" smooth="yes"/>
      <point x="406" y="921"/>
      <point x="458" y="975"/>
      <point x="485" y="1062"/>
      <point x="485" y="1111" type="qcurve" smooth="yes"/>
      <point x="485" y="1162"/>
      <point x="458" y="1248"/>
      <point x="404" y="1301"/>
      <point x="364" y="1301" type="qcurve" smooth="yes"/>
      <point x="323" y="1301"/>
      <point x="269" y="1248"/>
      <point x="242" y="1162"/>
      <point x="242" y="1111" type="qcurve" smooth="yes"/>
      <point x="242" y="1060"/>
      <point x="269" y="974"/>
      <point x="325" y="921"/>
    </contour>
    <contour>
      <point x="1197" y="-3" type="qcurve" smooth="yes"/>
      <point x="1102" y="-3"/>
      <point x="982" y="103"/>
      <point x="932" y="251"/>
      <point x="932" y="322" type="qcurve" smooth="yes"/>
      <point x="932" y="377"/>
      <point x="959" y="492"/>
      <point x="1019" y="588"/>
      <point x="1119" y="648"/>
      <point x="1191" y="648" type="qcurve" smooth="yes"/>
      <point x="1279" y="648"/>
      <point x="1397" y="551"/>
      <point x="1455" y="401"/>
      <point x="1455" y="321" type="qcurve" smooth="yes"/>
      <point x="1455" y="243"/>
      <point x="1400" y="94"/>
      <point x="1285" y="-3"/>
    </contour>
    <contour>
      <point x="1810" y="-3" type="qcurve" smooth="yes"/>
      <point x="1715" y="-3"/>
      <point x="1595" y="103"/>
      <point x="1545" y="251"/>
      <point x="1545" y="322" type="qcurve" smooth="yes"/>
      <point x="1545" y="377"/>
      <point x="1572" y="492"/>
      <point x="1632" y="588"/>
      <point x="1732" y="648"/>
      <point x="1804" y="648" type="qcurve" smooth="yes"/>
      <point x="1893" y="648"/>
      <point x="2010" y="552"/>
      <point x="2068" y="402"/>
      <point x="2068" y="321" type="qcurve" smooth="yes"/>
      <point x="2068" y="243"/>
      <point x="2013" y="94"/>
      <point x="1898" y="-3"/>
    </contour>
    <contour>
      <point x="2416" y="-3" type="qcurve" smooth="yes"/>
      <point x="2321" y="-3"/>
      <point x="2201" y="103"/>
      <point x="2151" y="251"/>
      <point x="2151" y="322" type="qcurve" smooth="yes"/>
      <point x="2151" y="377"/>
      <point x="2178" y="492"/>
      <point x="2238" y="588"/>
      <point x="2338" y="648"/>
      <point x="2410" y="648" type="qcurve" smooth="yes"/>
      <point x="2499" y="648"/>
      <point x="2616" y="552"/>
      <point x="2674" y="402"/>
      <point x="2674" y="321" type="qcurve" smooth="yes"/>
      <point x="2674" y="243"/>
      <point x="2619" y="94"/>
      <point x="2504" y="-3"/>
    </contour>
    <contour>
      <point x="1195" y="130" type="qcurve" smooth="yes"/>
      <point x="1251" y="130"/>
      <point x="1313" y="246"/>
      <point x="1313" y="323" type="qcurve" smooth="yes"/>
      <point x="1313" y="374"/>
      <point x="1286" y="461"/>
      <point x="1232" y="514"/>
      <point x="1191" y="514" type="qcurve" smooth="yes"/>
      <point x="1151" y="514"/>
      <point x="1097" y="460"/>
      <point x="1070" y="372"/>
      <point x="1070" y="322" type="qcurve" smooth="yes"/>
      <point x="1070" y="243"/>
      <point x="1133" y="130"/>
    </contour>
    <contour>
      <point x="1807" y="130" type="qcurve" smooth="yes"/>
      <point x="1846" y="130"/>
      <point x="1899" y="185"/>
      <point x="1926" y="273"/>
      <point x="1926" y="323" type="qcurve" smooth="yes"/>
      <point x="1926" y="374"/>
      <point x="1899" y="461"/>
      <point x="1845" y="514"/>
      <point x="1804" y="514" type="qcurve" smooth="yes"/>
      <point x="1763" y="514"/>
      <point x="1709" y="461"/>
      <point x="1683" y="373"/>
      <point x="1683" y="322" type="qcurve" smooth="yes"/>
      <point x="1683" y="271"/>
      <point x="1710" y="183"/>
      <point x="1765" y="130"/>
    </contour>
    <contour>
      <point x="2413" y="130" type="qcurve" smooth="yes"/>
      <point x="2452" y="130"/>
      <point x="2505" y="185"/>
      <point x="2532" y="273"/>
      <point x="2532" y="323" type="qcurve" smooth="yes"/>
      <point x="2532" y="374"/>
      <point x="2505" y="461"/>
      <point x="2451" y="514"/>
      <point x="2410" y="514" type="qcurve" smooth="yes"/>
      <point x="2369" y="514"/>
      <point x="2315" y="461"/>
      <point x="2289" y="373"/>
      <point x="2289" y="322" type="qcurve" smooth="yes"/>
      <point x="2289" y="271"/>
      <point x="2316" y="183"/>
      <point x="2371" y="130"/>
    </contour>
  </outline>
</glyph>
<glyph name="guilsinglleft" format="2">
  <advance width="595"/>
  <unicode hex="2039"/>
  <outline>
    <contour>
      <point x="438" y="171" type="line"/>
      <point x="42" y="511" type="line"/>
      <point x="438" y="851" type="line"/>
      <point x="438" y="666" type="line"/>
      <point x="251" y="511" type="line"/>
      <point x="438" y="356" type="line"/>
    </contour>
  </outline>
</glyph>
<glyph name="fraction" format="2">
  <advance width="802"/>
  <unicode hex="2044"/>
  <outline>
    <contour>
      <point x="112" y="0" type="line"/>
      <point x="-82" y="0" type="line"/>
      <point x="690" y="1413" type="line"/>
      <point x="884" y="1413" type="line"/>
    </contour>
  </outline>
</glyph>
<glyph name="fivesuperior" format="2">
  <advance width="853"/>
  <unicode hex="2075"/>
  <outline>
    <contour>
      <point x="423" y="473" type="qcurve" smooth="yes"/>
      <point x="332" y="473"/>
      <point x="185" y="549"/>
      <point x="88" y="675"/>
      <point x="70" y="752" type="qcurve"/>
      <point x="209" y="787" type="line"/>
      <point x="226" y="711"/>
      <point x="328" y="607"/>
      <point x="422" y="607" type="qcurve" smooth="yes"/>
      <point x="488" y="607"/>
      <point x="580" y="664"/>
      <point x="628" y="754"/>
      <point x="628" y="804" type="qcurve" smooth="yes"/>
      <point x="628" y="852"/>
      <point x="583" y="937"/>
      <point x="493" y="990"/>
      <point x="427" y="990" type="qcurve" smooth="yes"/>
      <point x="372" y="990"/>
      <point x="269" y="944"/>
      <point x="237" y="899" type="qcurve"/>
      <point x="101" y="937" type="line"/>
      <point x="200" y="1428" type="line"/>
      <point x="704" y="1428" type="line"/>
      <point x="704" y="1291" type="line"/>
      <point x="317" y="1291" type="line"/>
      <point x="271" y="1060" type="line"/>
      <point x="346" y="1122"/>
      <point x="451" y="1122" type="qcurve" smooth="yes"/>
      <point x="549" y="1122"/>
      <point x="699" y="1032"/>
      <point x="783" y="887"/>
      <point x="783" y="803" type="qcurve" smooth="yes"/>
      <point x="783" y="712"/>
      <point x="685" y="562"/>
      <point x="522" y="473"/>
    </contour>
  </outline>
</glyph>
<glyph name="sevensuperior" format="2">
  <advance width="791"/>
  <unicode hex="2077"/>
  <outline>
    <contour>
      <point x="312" y="486" type="line"/>
      <point x="163" y="486" type="line"/>
      <point x="562" y="1291" type="line"/>
      <point x="72" y="1291" type="line"/>
      <point x="72" y="1428" type="line"/>
      <point x="723" y="1428" type="line"/>
      <point x="723" y="1351" type="line"/>
    </contour>
  </outline>
</glyph>
<glyph name="ninesuperior" format="2">
  <advance width="825"/>
  <unicode hex="2079"/>
  <outline>
    <contour>
      <point x="410" y="486" type="line"/>
      <point x="259" y="486" type="line"/>
      <point x="464" y="808" type="line"/>
      <point x="432" y="803"/>
      <point x="407" y="803" type="qcurve" smooth="yes"/>
      <point x="307" y="803"/>
      <point x="154" y="888"/>
      <point x="67" y="1029"/>
      <point x="67" y="1114" type="qcurve" smooth="yes"/>
      <point x="67" y="1206"/>
      <point x="160" y="1355"/>
      <point x="316" y="1442"/>
      <point x="411" y="1442" type="qcurve" smooth="yes"/>
      <point x="510" y="1442"/>
      <point x="665" y="1353"/>
      <point x="753" y="1207"/>
      <point x="753" y="1123" type="qcurve" smooth="yes"/>
      <point x="753" y="1032"/>
      <point x="704" y="959" type="qcurve"/>
    </contour>
    <contour>
      <point x="410" y="929" type="qcurve" smooth="yes"/>
      <point x="494" y="929"/>
      <point x="606" y="1041"/>
      <point x="606" y="1115" type="qcurve" smooth="yes"/>
      <point x="606" y="1195"/>
      <point x="488" y="1302"/>
      <point x="410" y="1302" type="qcurve" smooth="yes"/>
      <point x="326" y="1302"/>
      <point x="215" y="1189"/>
      <point x="215" y="1115" type="qcurve" smooth="yes"/>
      <point x="215" y="1033"/>
      <point x="333" y="929"/>
    </contour>
  </outline>
</glyph>
<glyph name="Euro" format="2">
  <advance width="1272"/>
  <unicode hex="20AC"/>
  <outline>
    <contour>
      <point x="782" y="-20" type="qcurve" smooth="yes"/>
      <point x="578" y="-20"/>
      <point x="322" y="244"/>
      <point x="276" y="464" type="qcurve"/>
      <point x="122" y="464" type="line"/>
      <point x="188" y="616" type="line"/>
      <point x="255" y="616" type="line"/>
      <point x="253" y="647"/>
      <point x="253" y="707" type="qcurve" smooth="yes"/>
      <point x="253" y="765"/>
      <point x="257" y="809" type="qcurve"/>
      <point x="122" y="809" type="line"/>
      <point x="188" y="962" type="line"/>
      <point x="278" y="962" type="line"/>
      <point x="326" y="1178"/>
      <point x="580" y="1436"/>
      <point x="780" y="1436" type="qcurve" smooth="yes"/>
      <point x="901" y="1436"/>
      <point x="1094" y="1332"/>
      <point x="1162" y="1238" type="qcurve"/>
      <point x="1032" y="1133" type="line"/>
      <point x="948" y="1258"/>
      <point x="779" y="1258" type="qcurve" smooth="yes"/>
      <point x="692" y="1258"/>
      <point x="561" y="1181"/>
      <point x="473" y="1048"/>
      <point x="448" y="962" type="qcurve"/>
      <point x="976" y="962" type="line"/>
      <point x="911" y="809" type="line"/>
      <point x="422" y="809" type="line"/>
      <point x="418" y="749"/>
      <point x="418" y="719" type="qcurve" smooth="yes"/>
      <point x="418" y="681"/>
      <point x="422" y="619" type="qcurve"/>
      <point x="976" y="619" type="line"/>
      <point x="911" y="466" type="line"/>
      <point x="448" y="466" type="line"/>
      <point x="473" y="375"/>
      <point x="561" y="236"/>
      <point x="693" y="157"/>
      <point x="782" y="157" type="qcurve" smooth="yes"/>
      <point x="948" y="157"/>
      <point x="1028" y="285" type="qcurve"/>
      <point x="1149" y="160" type="line"/>
      <point x="1078" y="70"/>
      <point x="890" y="-20"/>
    </contour>
  </outline>
</glyph>
<glyph name="uni20B4" format="2">
  <advance width="1251"/>
  <unicode hex="20B4"/>
  <anchor x="632" y="0" name="b.uni0326"/>
  <anchor x="632" y="1412" name="t.ringcmb_1"/>
  <anchor x="0" y="0" name="b.ogonekcmb_2"/>
  <anchor x="0" y="0" name="m.horncmb_3"/>
  <outline>
    <contour>
      <point x="611" y="-16" type="qcurve" smooth="yes"/>
      <point x="487" y="-16"/>
      <point x="274" y="82"/>
      <point x="208" y="181" type="qcurve"/>
      <point x="147" y="275"/>
      <point x="147" y="402" type="qcurve" smooth="yes"/>
      <point x="147" y="521"/>
      <point x="257" y="679"/>
      <point x="414" y="768"/>
      <point x="540" y="820" type="qcurve" smooth="yes"/>
      <point x="602" y="846" type="line"/>
      <point x="248" y="846" type="line"/>
      <point x="248" y="964" type="line"/>
      <point x="788" y="964" type="line"/>
      <point x="827" y="1011"/>
      <point x="827" y="1075" type="qcurve" smooth="yes"/>
      <point x="827" y="1131"/>
      <point x="770" y="1211"/>
      <point x="678" y="1255"/>
      <point x="624" y="1255" type="qcurve" smooth="yes"/>
      <point x="549" y="1255"/>
      <point x="415" y="1177"/>
      <point x="372" y="1098" type="qcurve"/>
      <point x="210" y="1201" type="line"/>
      <point x="281" y="1323"/>
      <point x="495" y="1434"/>
      <point x="620" y="1434" type="qcurve" smooth="yes"/>
      <point x="727" y="1434"/>
      <point x="916" y="1347"/>
      <point x="975" y="1259" type="qcurve"/>
      <point x="1030" y="1174"/>
      <point x="1030" y="1061" type="qcurve" smooth="yes"/>
      <point x="1030" y="867"/>
      <point x="857" y="778" type="qcurve" smooth="yes"/>
      <point x="778" y="737"/>
      <point x="629" y="686" type="qcurve"/>
      <point x="586" y="670" type="line"/>
      <point x="994" y="670" type="line"/>
      <point x="994" y="553" type="line"/>
      <point x="397" y="553" type="line"/>
      <point x="350" y="497"/>
      <point x="350" y="412" type="qcurve" smooth="yes"/>
      <point x="350" y="286"/>
      <point x="493" y="170"/>
      <point x="609" y="170" type="qcurve" smooth="yes"/>
      <point x="687" y="170"/>
      <point x="825" y="226"/>
      <point x="917" y="342"/>
      <point x="927" y="432" type="qcurve"/>
      <point x="1124" y="379" type="line"/>
      <point x="1102" y="249"/>
      <point x="952" y="73"/>
      <point x="732" y="-16"/>
    </contour>
  </outline>
</glyph>
<glyph name="uni20BD" format="2">
  <advance width="1342"/>
  <unicode hex="20BD"/>
  <outline>
    <contour>
      <point x="529" y="0" type="line"/>
      <point x="328" y="0" type="line"/>
      <point x="328" y="313" type="line"/>
      <point x="151" y="313" type="line"/>
      <point x="151" y="476" type="line"/>
      <point x="328" y="476" type="line"/>
      <point x="328" y="624" type="line"/>
      <point x="151" y="624" type="line"/>
      <point x="151" y="800" type="line"/>
      <point x="328" y="800" type="line"/>
      <point x="328" y="1413" type="line"/>
      <point x="746" y="1413" type="line" smooth="yes"/>
      <point x="880" y="1413"/>
      <point x="1094" y="1321"/>
      <point x="1219" y="1142"/>
      <point x="1219" y="1010" type="qcurve" smooth="yes"/>
      <point x="1219" y="881"/>
      <point x="1099" y="710"/>
      <point x="886" y="624"/>
      <point x="746" y="624" type="qcurve" smooth="yes"/>
      <point x="529" y="624" type="line"/>
      <point x="529" y="476" type="line"/>
      <point x="889" y="476" type="line"/>
      <point x="889" y="313" type="line"/>
      <point x="529" y="313" type="line"/>
    </contour>
    <contour>
      <point x="746" y="800" type="line" smooth="yes"/>
      <point x="885" y="800"/>
      <point x="1020" y="909"/>
      <point x="1020" y="1010" type="qcurve" smooth="yes"/>
      <point x="1020" y="1109"/>
      <point x="886" y="1227"/>
      <point x="746" y="1227" type="qcurve" smooth="yes"/>
      <point x="529" y="1227" type="line"/>
      <point x="529" y="800" type="line"/>
    </contour>
  </outline>
</glyph>
<glyph name="arrowleft" format="2">
  <advance width="2206"/>
  <unicode hex="2190"/>
  <outline>
    <contour>
      <point x="1025" y="106" type="line"/>
      <point x="75" y="639" type="line"/>
      <point x="1025" y="1164" type="line"/>
      <point x="1112" y="1010" type="line"/>
      <point x="505" y="712" type="line"/>
      <point x="2105" y="712" type="line"/>
      <point x="2105" y="558" type="line"/>
      <point x="517" y="558" type="line"/>
      <point x="1112" y="259" type="line"/>
    </contour>
  </outline>
</glyph>
<glyph name="partialdiff" format="2">
  <advance width="1295"/>
  <unicode hex="2202"/>
  <outline>
    <contour>
      <point x="561" y="-11" type="qcurve" smooth="yes"/>
      <point x="423" y="-11"/>
      <point x="227" y="106"/>
      <point x="124" y="310"/>
      <point x="124" y="439" type="qcurve" smooth="yes"/>
      <point x="124" y="569"/>
      <point x="213" y="782"/>
      <point x="365" y="934"/>
      <point x="561" y="1016"/>
      <point x="668" y="1016" type="qcurve" smooth="yes"/>
      <point x="744" y="1016"/>
      <point x="888" y="963"/>
      <point x="947" y="907" type="qcurve"/>
      <point x="940" y="1093"/>
      <point x="777" y="1277"/>
      <point x="649" y="1277" type="qcurve" smooth="yes"/>
      <point x="474" y="1277"/>
      <point x="403" y="1116" type="qcurve"/>
      <point x="244" y="1161" type="line"/>
      <point x="295" y="1286"/>
      <point x="509" y="1429"/>
      <point x="664" y="1429" type="qcurve" smooth="yes"/>
      <point x="908" y="1429"/>
      <point x="1143" y="1066"/>
      <point x="1143" y="750" type="qcurve" smooth="yes"/>
      <point x="1143" y="547"/>
      <point x="1017" y="199"/>
      <point x="880" y="90" type="qcurve"/>
      <point x="748" y="-11"/>
    </contour>
    <contour>
      <point x="574" y="158" type="qcurve" smooth="yes"/>
      <point x="681" y="158"/>
      <point x="845" y="270"/>
      <point x="939" y="457"/>
      <point x="939" y="569" type="qcurve" smooth="yes"/>
      <point x="939" y="651"/>
      <point x="884" y="778"/>
      <point x="768" y="851"/>
      <point x="679" y="851" type="qcurve" smooth="yes"/>
      <point x="590" y="851"/>
      <point x="454" y="779"/>
      <point x="360" y="660"/>
      <point x="312" y="513"/>
      <point x="312" y="439" type="qcurve" smooth="yes"/>
      <point x="312" y="349"/>
      <point x="382" y="223"/>
      <point x="501" y="158"/>
    </contour>
  </outline>
</glyph>
<glyph name="Delta" format="2">
  <advance width="1297"/>
  <unicode hex="2206"/>
  <outline>
    <contour>
      <point x="1221" y="0" type="line"/>
      <point x="76" y="0" type="line"/>
      <point x="648" y="1458" type="line"/>
    </contour>
    <contour>
      <point x="975" y="167" type="line"/>
      <point x="648" y="1027" type="line"/>
      <point x="321" y="167" type="line"/>
    </contour>
  </outline>
</glyph>
<glyph name="integral" format="2">
  <advance width="949"/>
  <unicode hex="222B"/>
  <outline>
    <contour>
      <point x="70" y="-457" type="qcurve"/>
      <point x="70" y="-289" type="line"/>
      <point x="191" y="-289"/>
      <point x="334" y="-226"/>
      <point x="396" y="-95"/>
      <point x="396" y="8" type="qcurve" smooth="yes"/>
      <point x="396" y="1148" type="line" smooth="yes"/>
      <point x="396" y="1241"/>
      <point x="475" y="1376"/>
      <point x="604" y="1449"/>
      <point x="678" y="1449" type="qcurve" smooth="yes"/>
      <point x="791" y="1449"/>
      <point x="890" y="1367" type="qcurve"/>
      <point x="781" y="1238" type="line"/>
      <point x="734" y="1281"/>
      <point x="678" y="1281" type="qcurve" smooth="yes"/>
      <point x="632" y="1281"/>
      <point x="563" y="1215"/>
      <point x="563" y="1145" type="qcurve" smooth="yes"/>
      <point x="563" y="6" type="line" smooth="yes"/>
      <point x="563" y="-147"/>
      <point x="441" y="-353"/>
      <point x="220" y="-457"/>
    </contour>
  </outline>
</glyph>
<glyph name="greaterequal" format="2">
  <advance width="1317"/>
  <unicode hex="2265"/>
  <outline>
    <contour>
      <point x="233" y="135" type="line"/>
      <point x="149" y="281" type="line"/>
      <point x="853" y="660" type="line"/>
      <point x="149" y="1037" type="line"/>
      <point x="233" y="1183" type="line"/>
      <point x="1172" y="660" type="line"/>
    </contour>
    <contour>
      <point x="1223" y="-147" type="line"/>
      <point x="136" y="-147" type="line"/>
      <point x="136" y="0" type="line"/>
      <point x="1223" y="0" type="line"/>
    </contour>
  </outline>
</glyph>
<glyph name="lozenge" format="2">
  <advance width="1113"/>
  <unicode hex="25CA"/>
  <outline>
    <contour>
      <point x="648" y="0" type="line"/>
      <point x="466" y="0" type="line"/>
      <point x="90" y="717" type="line"/>
      <point x="466" y="1434" type="line"/>
      <point x="648" y="1434" type="line"/>
      <point x="1023" y="717" type="line"/>
    </contour>
    <contour>
      <point x="557" y="186" type="line"/>
      <point x="823" y="717" type="line"/>
      <point x="557" y="1247" type="line"/>
      <point x="290" y="717" type="line"/>
    </contour>
  </outline>
</glyph>
<glyph name="c.001" format="2">
  <advance width="988"/>
  <outline>
    <contour>
      <point x="533" y="-20" type="qcurve" smooth="yes"/>
      <point x="419" y="-20"/>
      <point x="248" y="65"/>
      <point x="133" y="210"/>
      <point x="76" y="396"/>
      <point x="76" y="498" type="qcurve" smooth="yes"/>
      <point x="76" y="629"/>
      <point x="175" y="868"/>
      <point x="282" y="947" type="qcurve"/>
      <point x="385" y="1020"/>
      <point x="531" y="1020" type="qcurve" smooth="yes"/>
      <point x="677" y="1020"/>
      <point x="886" y="866"/>
      <point x="940" y="741" type="qcurve"/>
      <point x="757" y="666" type="line"/>
      <point x="735" y="747"/>
      <point x="618" y="849"/>
      <point x="531" y="849" type="qcurve" smooth="yes"/>
      <point x="441" y="849"/>
      <point x="327" y="748"/>
      <point x="273" y="587"/>
      <point x="273" y="498" type="qcurve" smooth="yes"/>
      <point x="273" y="409"/>
      <point x="325" y="250"/>
      <point x="438" y="150"/>
      <point x="531" y="150" type="qcurve" smooth="yes"/>
      <point x="616" y="150"/>
      <point x="735" y="249"/>
      <point x="757" y="329" type="qcurve"/>
      <point x="929" y="260" type="line"/>
      <point x="882" y="130"/>
      <point x="678" y="-20"/>
    </contour>
  </outline>
</glyph>
<glyph name="f_f" format="2">
  <advance width="1244"/>
  <outline>
    <contour>
      <point x="369" y="838" type="line"/>
      <point x="369" y="0" type="line"/>
      <point x="177" y="0" type="line"/>
      <point x="177" y="838" type="line"/>
      <point x="27" y="838" type="line"/>
      <point x="27" y="999" type="line"/>
      <point x="179" y="999" type="line"/>
      <point x="179" y="1105" type="line" smooth="yes"/>
      <point x="179" y="1209"/>
      <point x="279" y="1358"/>
      <point x="449" y="1434"/>
      <point x="552" y="1434" type="qcurve" smooth="yes"/>
      <point x="714" y="1434"/>
      <point x="837" y="1340" type="qcurve"/>
      <point x="871" y="1379"/>
      <point x="919" y="1402" type="qcurve" smooth="yes"/>
      <point x="985" y="1434"/>
      <point x="1064" y="1434" type="qcurve" smooth="yes"/>
      <point x="1153" y="1434"/>
      <point x="1236" y="1394" type="qcurve"/>
      <point x="1180" y="1237" type="line"/>
      <point x="1126" y="1265"/>
      <point x="1081" y="1265" type="qcurve" smooth="yes"/>
      <point x="1032" y="1265"/>
      <point x="967" y="1203"/>
      <point x="967" y="1135" type="qcurve" smooth="yes"/>
      <point x="967" y="999" type="line"/>
      <point x="1229" y="999" type="line"/>
      <point x="1229" y="838" type="line"/>
      <point x="967" y="838" type="line"/>
      <point x="967" y="0" type="line"/>
      <point x="770" y="0" type="line"/>
      <point x="770" y="838" type="line"/>
    </contour>
    <contour>
      <point x="771" y="1151" type="line"/>
      <point x="771" y="1163"/>
      <point x="772" y="1175" type="qcurve"/>
      <point x="695" y="1263"/>
      <point x="567" y="1263" type="qcurve" smooth="yes"/>
      <point x="473" y="1263"/>
      <point x="369" y="1172"/>
      <point x="369" y="1094" type="qcurve" smooth="yes"/>
      <point x="369" y="999" type="line"/>
      <point x="769" y="999" type="line"/>
    </contour>
  </outline>
</glyph>
<glyph name="strokecy" format="2">
  <advance width="1078"/>
  <outline>
    <contour>
      <point x="909" y="295" type="line"/>
      <point x="169" y="295" type="line"/>
      <point x="169" y="464" type="line"/>
      <point x="909" y="464" type="line"/>
    </contour>
  </outline>
</glyph>
<glyph name="uni0414.loclSRB" format="2">
  <advance width="1458"/>
  <outline>
    <contour>
      <point x="1372" y="-307" type="line"/>
      <point x="1170" y="-307" type="line"/>
      <point x="1170" y="0" type="line"/>
      <point x="245" y="0" type="line"/>
      <point x="245" y="-306" type="line"/>
      <point x="42" y="-307" type="line"/>
      <point x="42" y="174" type="line"/>
      <point x="199" y="174" type="line"/>
      <point x="283" y="344"/>
      <point x="354" y="688"/>
      <point x="354" y="906" type="qcurve" smooth="yes"/>
      <point x="354" y="1412" type="line"/>
      <point x="1231" y="1412" type="line"/>
      <point x="1231" y="174" type="line"/>
      <point x="1372" y="174" type="line"/>
    </contour>
    <contour>
      <point x="1028" y="174" type="line"/>
      <point x="1028" y="1231" type="line"/>
      <point x="556" y="1231" type="line"/>
      <point x="556" y="907" type="line" smooth="yes"/>
      <point x="556" y="672"/>
      <point x="487" y="333"/>
      <point x="410" y="174" type="qcurve"/>
    </contour>
  </outline>
</glyph>
<glyph name="uni041B.loclRUS" format="2">
  <advance width="1427"/>
  <outline>
    <contour>
      <point x="224" y="-20" type="qcurve" smooth="yes"/>
      <point x="127" y="-20"/>
      <point x="39" y="31" type="qcurve"/>
      <point x="109" y="212" type="line"/>
      <point x="153" y="182"/>
      <point x="190" y="182" type="qcurve" smooth="yes"/>
      <point x="264" y="182"/>
      <point x="299" y="300" type="qcurve" smooth="yes"/>
      <point x="333" y="411"/>
      <point x="351" y="766"/>
      <point x="351" y="1078" type="qcurve" smooth="yes"/>
      <point x="351" y="1412" type="line"/>
      <point x="1230" y="1412" type="line"/>
      <point x="1230" y="0" type="line"/>
      <point x="1028" y="0" type="line"/>
      <point x="1028" y="1231" type="line"/>
      <point x="554" y="1231" type="line"/>
      <point x="554" y="1023" type="line" smooth="yes"/>
      <point x="554" y="686"/>
      <point x="522" y="273"/>
      <point x="378" y="-20"/>
    </contour>
  </outline>
</glyph>
<glyph name="uni0432.loclRUS" format="2">
  <advance width="1068"/>
  <outline>
    <contour>
      <point x="583" y="0" type="qcurve" smooth="yes"/>
      <point x="153" y="0" type="line"/>
      <point x="153" y="999" type="line"/>
      <point x="584" y="999" type="line" smooth="yes"/>
      <point x="696" y="999"/>
      <point x="856" y="952"/>
      <point x="942" y="835"/>
      <point x="942" y="731" type="qcurve" smooth="yes"/>
      <point x="942" y="662"/>
      <point x="867" y="545"/>
      <point x="783" y="524" type="qcurve"/>
      <point x="987" y="498"/>
      <point x="987" y="295" type="qcurve" smooth="yes"/>
      <point x="987" y="184"/>
      <point x="903" y="55"/>
      <point x="725" y="0"/>
    </contour>
    <contour>
      <point x="589" y="599" type="line" smooth="yes"/>
      <point x="666" y="599"/>
      <point x="749" y="666"/>
      <point x="749" y="713" type="qcurve" smooth="yes"/>
      <point x="749" y="773"/>
      <point x="672" y="825"/>
      <point x="588" y="825" type="qcurve" smooth="yes"/>
      <point x="343" y="825" type="line"/>
      <point x="343" y="599" type="line"/>
    </contour>
    <contour>
      <point x="585" y="177" type="line" smooth="yes"/>
      <point x="699" y="177"/>
      <point x="788" y="233"/>
      <point x="788" y="308" type="qcurve" smooth="yes"/>
      <point x="788" y="373"/>
      <point x="686" y="429"/>
      <point x="585" y="429" type="qcurve" smooth="yes"/>
      <point x="343" y="429" type="line"/>
      <point x="343" y="177" type="line"/>
    </contour>
  </outline>
</glyph>
<glyph name="uni0434.loclRUS" format="2">
  <advance width="1163"/>
  <outline>
    <contour>
      <point x="1095" y="-307" type="line"/>
      <point x="899" y="-307" type="line"/>
      <point x="899" y="0" type="line"/>
      <point x="209" y="0" type="line"/>
      <point x="209" y="-307" type="line"/>
      <point x="13" y="-307" type="line"/>
      <point x="13" y="149" type="line"/>
      <point x="139" y="149" type="line"/>
      <point x="206" y="224"/>
      <point x="260" y="465"/>
      <point x="260" y="616" type="qcurve" smooth="yes"/>
      <point x="260" y="999" type="line"/>
      <point x="975" y="999" type="line"/>
      <point x="975" y="149" type="line"/>
      <point x="1095" y="149" type="line"/>
    </contour>
    <contour>
      <point x="779" y="149" type="line"/>
      <point x="779" y="851" type="line"/>
      <point x="455" y="851" type="line"/>
      <point x="455" y="617" type="line" smooth="yes"/>
      <point x="455" y="278"/>
      <point x="343" y="149" type="qcurve"/>
    </contour>
  </outline>
</glyph>
<glyph name="uni043B.loclRUS" format="2">
  <advance width="1102"/>
  <outline>
    <contour>
      <point x="195" y="-21" type="qcurve" smooth="yes"/>
      <point x="144" y="-21"/>
      <point x="40" y="8"/>
      <point x="0" y="28" type="qcurve"/>
      <point x="56" y="159" type="line"/>
      <point x="59" y="158"/>
      <point x="66" y="155" type="qcurve" smooth="yes"/>
      <point x="73" y="151"/>
      <point x="96" y="141"/>
      <point x="121" y="134"/>
      <point x="132" y="134" type="qcurve" smooth="yes"/>
      <point x="192" y="134"/>
      <point x="241" y="358"/>
      <point x="241" y="616" type="qcurve" smooth="yes"/>
      <point x="241" y="999" type="line"/>
      <point x="945" y="999" type="line"/>
      <point x="945" y="0" type="line"/>
      <point x="749" y="0" type="line"/>
      <point x="749" y="851" type="line"/>
      <point x="435" y="851" type="line"/>
      <point x="435" y="547" type="line" smooth="yes"/>
      <point x="435" y="333"/>
      <point x="380" y="85"/>
      <point x="273" y="-21"/>
    </contour>
  </outline>
</glyph>
<glyph name="uni0442.loclSRB" format="2">
  <advance width="878"/>
  <outline>
    <contour>
      <point x="536" y="0" type="line"/>
      <point x="341" y="0" type="line"/>
      <point x="341" y="851" type="line"/>
      <point x="12" y="851" type="line"/>
      <point x="12" y="999" type="line"/>
      <point x="866" y="999" type="line"/>
      <point x="866" y="851" type="line"/>
      <point x="536" y="851" type="line"/>
    </contour>
  </outline>
</glyph>
<glyph name="uni0448.loclRUS" format="2">
  <advance width="1614"/>
  <outline>
    <contour>
      <point x="1457" y="0" type="line"/>
      <point x="158" y="0" type="line"/>
      <point x="158" y="999" type="line"/>
      <point x="353" y="999" type="line"/>
      <point x="353" y="149" type="line"/>
      <point x="710" y="149" type="line"/>
      <point x="710" y="999" type="line"/>
      <point x="904" y="999" type="line"/>
      <point x="904" y="149" type="line"/>
      <point x="1262" y="149" type="line"/>
      <point x="1262" y="999" type="line"/>
      <point x="1457" y="999" type="line"/>
    </contour>
  </outline>
</glyph>
